solid OpenSCAD_Model
  facet normal -1 0 0
    outer loop
      vertex -28.75 -36.25 -30
      vertex -28.75 36.25 2
      vertex -28.75 36.25 -30
    endloop
  endfacet
  facet normal -1 -0 0
    outer loop
      vertex -28.75 36.25 2
      vertex -28.75 -36.25 -30
      vertex -28.75 -36.25 2
    endloop
  endfacet
  facet normal 0 0 1
    outer loop
      vertex 11.75 -29.25 2
      vertex -4.75 -30.25 2
      vertex 4.75 -30.25 2
    endloop
  endfacet
  facet normal 0 0 1
    outer loop
      vertex -4.75 -30.25 2
      vertex -11.75 -29.25 2
      vertex -4.75 -34.75 2
    endloop
  endfacet
  facet normal -0 0 1
    outer loop
      vertex -11.75 -29.25 2
      vertex -4.75 -30.25 2
      vertex 11.75 -29.25 2
    endloop
  endfacet
  facet normal 0 0 1
    outer loop
      vertex 28.75 36.25 2
      vertex 11.75 29.25 2
      vertex 28.75 -36.25 2
    endloop
  endfacet
  facet normal 0 0 1
    outer loop
      vertex 28.75 36.25 2
      vertex -11.75 29.25 2
      vertex 11.75 29.25 2
    endloop
  endfacet
  facet normal 0 0 1
    outer loop
      vertex -11.75 29.25 2
      vertex -28.75 36.25 2
      vertex -11.75 -29.25 2
    endloop
  endfacet
  facet normal -0 0 1
    outer loop
      vertex -28.75 36.25 2
      vertex -11.75 29.25 2
      vertex 28.75 36.25 2
    endloop
  endfacet
  facet normal -0 0 1
    outer loop
      vertex 11.75 -29.25 2
      vertex 28.75 -36.25 2
      vertex 11.75 29.25 2
    endloop
  endfacet
  facet normal 0 0 1
    outer loop
      vertex 4.75 -34.75 2
      vertex 11.75 -29.25 2
      vertex 4.75 -30.25 2
    endloop
  endfacet
  facet normal 0 0 1
    outer loop
      vertex 11.75 -29.25 2
      vertex 4.75 -34.75 2
      vertex 28.75 -36.25 2
    endloop
  endfacet
  facet normal -0 0 1
    outer loop
      vertex -4.75 -34.75 2
      vertex 28.75 -36.25 2
      vertex 4.75 -34.75 2
    endloop
  endfacet
  facet normal 0 0 1
    outer loop
      vertex -4.75 -34.75 2
      vertex -28.75 -36.25 2
      vertex 28.75 -36.25 2
    endloop
  endfacet
  facet normal 0 0 1
    outer loop
      vertex -11.75 -29.25 2
      vertex -28.75 -36.25 2
      vertex -4.75 -34.75 2
    endloop
  endfacet
  facet normal 0 0 1
    outer loop
      vertex -28.75 -36.25 2
      vertex -11.75 -29.25 2
      vertex -28.75 36.25 2
    endloop
  endfacet
  facet normal 1 -0 0
    outer loop
      vertex 28.75 -36.25 2
      vertex 28.75 36.25 -30
      vertex 28.75 36.25 2
    endloop
  endfacet
  facet normal 1 0 0
    outer loop
      vertex 28.75 36.25 -30
      vertex 28.75 -36.25 2
      vertex 28.75 -36.25 -30
    endloop
  endfacet
  facet normal 0 -1 0
    outer loop
      vertex 5.72439 -36.25 -10.2436
      vertex 9 -36.25 -10.01
      vertex 5.75 -36.25 -10
    endloop
  endfacet
  facet normal 0 -1 0
    outer loop
      vertex 5.66805 -36.25 -10.7797
      vertex 9 -36.25 -10.01
      vertex 5.72439 -36.25 -10.2436
    endloop
  endfacet
  facet normal 0 -1 0
    outer loop
      vertex 5.42579 -36.25 -11.5253
      vertex 9 -36.25 -10.01
      vertex 5.66805 -36.25 -10.7797
    endloop
  endfacet
  facet normal 0 -1 0
    outer loop
      vertex 5.03381 -36.25 -12.2042
      vertex 9 -36.25 -10.01
      vertex 5.42579 -36.25 -11.5253
    endloop
  endfacet
  facet normal 0 -1 0
    outer loop
      vertex 4.50924 -36.25 -12.7868
      vertex 9 -36.25 -10.01
      vertex 5.03381 -36.25 -12.2042
    endloop
  endfacet
  facet normal 0 -1 0
    outer loop
      vertex 9 -36.25 -30
      vertex 4.50924 -36.25 -12.7868
      vertex 3.875 -36.25 -13.2476
    endloop
  endfacet
  facet normal 0 -1 0
    outer loop
      vertex 9 -36.25 -30
      vertex 2.39198 -36.25 -13.7295
      vertex -4 -36.25 -30
    endloop
  endfacet
  facet normal 0 -1 0
    outer loop
      vertex 2.39198 -36.25 -13.7295
      vertex 9 -36.25 -30
      vertex 3.15881 -36.25 -13.5665
    endloop
  endfacet
  facet normal 0 -1 0
    outer loop
      vertex 3.15881 -36.25 -13.5665
      vertex 9 -36.25 -30
      vertex 3.875 -36.25 -13.2476
    endloop
  endfacet
  facet normal 0 -1 0
    outer loop
      vertex 4.50924 -36.25 -12.7868
      vertex 9 -36.25 -30
      vertex 9 -36.25 -10.01
    endloop
  endfacet
  facet normal 0 -1 0
    outer loop
      vertex -28.75 -36.25 2
      vertex 1.60802 -36.25 -6.27054
      vertex 28.75 -36.25 2
    endloop
  endfacet
  facet normal 0 -1 0
    outer loop
      vertex -28.75 -36.25 2
      vertex 0.841186 -36.25 -6.43354
      vertex 1.60802 -36.25 -6.27054
    endloop
  endfacet
  facet normal 0 -1 0
    outer loop
      vertex -28.75 -36.25 2
      vertex 0.125 -36.25 -6.7524
      vertex 0.841186 -36.25 -6.43354
    endloop
  endfacet
  facet normal 0 -1 0
    outer loop
      vertex -28.75 -36.25 2
      vertex -0.509239 -36.25 -7.21321
      vertex 0.125 -36.25 -6.7524
    endloop
  endfacet
  facet normal 0 -1 0
    outer loop
      vertex -4 -36.25 -10.01
      vertex -0.509239 -36.25 -7.21321
      vertex -28.75 -36.25 2
    endloop
  endfacet
  facet normal 0 -1 0
    outer loop
      vertex -0.509239 -36.25 -7.21321
      vertex -4 -36.25 -10.01
      vertex -1.03381 -36.25 -7.7958
    endloop
  endfacet
  facet normal 0 -1 0
    outer loop
      vertex -1.03381 -36.25 -7.7958
      vertex -4 -36.25 -10.01
      vertex -1.42579 -36.25 -8.47474
    endloop
  endfacet
  facet normal 0 -1 0
    outer loop
      vertex -1.42579 -36.25 -8.47474
      vertex -4 -36.25 -10.01
      vertex -1.66805 -36.25 -9.22033
    endloop
  endfacet
  facet normal 0 -1 0
    outer loop
      vertex -4 -36.25 -10.01
      vertex -28.75 -36.25 2
      vertex -27 -36.25 -10.01
    endloop
  endfacet
  facet normal 0 -1 0
    outer loop
      vertex -28.75 -36.25 -30
      vertex -27 -36.25 -10.01
      vertex -28.75 -36.25 2
    endloop
  endfacet
  facet normal 0 -1 -0
    outer loop
      vertex -27 -36.25 -10.01
      vertex -28.75 -36.25 -30
      vertex -27 -36.25 -30
    endloop
  endfacet
  facet normal 0 -1 0
    outer loop
      vertex 2.39198 -36.25 -6.27054
      vertex 28.75 -36.25 2
      vertex 1.60802 -36.25 -6.27054
    endloop
  endfacet
  facet normal 0 -1 0
    outer loop
      vertex 3.15881 -36.25 -6.43354
      vertex 28.75 -36.25 2
      vertex 2.39198 -36.25 -6.27054
    endloop
  endfacet
  facet normal 0 -1 0
    outer loop
      vertex 3.875 -36.25 -6.7524
      vertex 28.75 -36.25 2
      vertex 3.15881 -36.25 -6.43354
    endloop
  endfacet
  facet normal 0 -1 0
    outer loop
      vertex 4.50924 -36.25 -7.21321
      vertex 28.75 -36.25 2
      vertex 3.875 -36.25 -6.7524
    endloop
  endfacet
  facet normal 0 -1 0
    outer loop
      vertex 9 -36.25 -10.01
      vertex 4.50924 -36.25 -7.21321
      vertex 5.03381 -36.25 -7.7958
    endloop
  endfacet
  facet normal 0 -1 0
    outer loop
      vertex 9 -36.25 -10.01
      vertex 5.03381 -36.25 -7.7958
      vertex 5.42579 -36.25 -8.47474
    endloop
  endfacet
  facet normal 0 -1 0
    outer loop
      vertex 9 -36.25 -10.01
      vertex 5.42579 -36.25 -8.47474
      vertex 5.66805 -36.25 -9.22033
    endloop
  endfacet
  facet normal 0 -1 0
    outer loop
      vertex 9 -36.25 -10.01
      vertex 5.66805 -36.25 -9.22033
      vertex 5.69366 -36.25 -9.46398
    endloop
  endfacet
  facet normal 0 -1 0
    outer loop
      vertex 9 -36.25 -10.01
      vertex 5.69366 -36.25 -9.46398
      vertex 5.75 -36.25 -10
    endloop
  endfacet
  facet normal 0 -1 0
    outer loop
      vertex 4.50924 -36.25 -7.21321
      vertex 9 -36.25 -10.01
      vertex 28.75 -36.25 2
    endloop
  endfacet
  facet normal 0 -1 0
    outer loop
      vertex 27 -36.25 -10.01
      vertex 28.75 -36.25 2
      vertex 9 -36.25 -10.01
    endloop
  endfacet
  facet normal 0 -1 0
    outer loop
      vertex 28.75 -36.25 -30
      vertex 27 -36.25 -10.01
      vertex 27 -36.25 -30
    endloop
  endfacet
  facet normal 0 -1 0
    outer loop
      vertex 27 -36.25 -10.01
      vertex 28.75 -36.25 -30
      vertex 28.75 -36.25 2
    endloop
  endfacet
  facet normal 0 -1 0
    outer loop
      vertex -1.66805 -36.25 -9.22033
      vertex -4 -36.25 -10.01
      vertex -1.75 -36.25 -10
    endloop
  endfacet
  facet normal 0 -1 0
    outer loop
      vertex -4 -36.25 -10.01
      vertex -1.66805 -36.25 -10.7797
      vertex -1.75 -36.25 -10
    endloop
  endfacet
  facet normal 0 -1 0
    outer loop
      vertex -4 -36.25 -10.01
      vertex -1.42579 -36.25 -11.5253
      vertex -1.66805 -36.25 -10.7797
    endloop
  endfacet
  facet normal 0 -1 0
    outer loop
      vertex -4 -36.25 -10.01
      vertex -1.03381 -36.25 -12.2042
      vertex -1.42579 -36.25 -11.5253
    endloop
  endfacet
  facet normal 0 -1 0
    outer loop
      vertex -4 -36.25 -10.01
      vertex -0.509239 -36.25 -12.7868
      vertex -1.03381 -36.25 -12.2042
    endloop
  endfacet
  facet normal 0 -1 -0
    outer loop
      vertex 1.60802 -36.25 -13.7295
      vertex -4 -36.25 -30
      vertex 2.39198 -36.25 -13.7295
    endloop
  endfacet
  facet normal 0 -1 -0
    outer loop
      vertex 0.841186 -36.25 -13.5665
      vertex -4 -36.25 -30
      vertex 1.60802 -36.25 -13.7295
    endloop
  endfacet
  facet normal 0 -1 -0
    outer loop
      vertex 0.124999 -36.25 -13.2476
      vertex -4 -36.25 -30
      vertex 0.841186 -36.25 -13.5665
    endloop
  endfacet
  facet normal 0 -1 -0
    outer loop
      vertex -0.509239 -36.25 -12.7868
      vertex -4 -36.25 -30
      vertex 0.124999 -36.25 -13.2476
    endloop
  endfacet
  facet normal 0 -1 0
    outer loop
      vertex -4 -36.25 -30
      vertex -0.509239 -36.25 -12.7868
      vertex -4 -36.25 -10.01
    endloop
  endfacet
  facet normal 0 1 -0
    outer loop
      vertex 28.75 36.25 -30
      vertex -28.75 36.25 2
      vertex 28.75 36.25 2
    endloop
  endfacet
  facet normal 0 1 0
    outer loop
      vertex -28.75 36.25 2
      vertex 28.75 36.25 -30
      vertex -28.75 36.25 -30
    endloop
  endfacet
  facet normal 0 -1 0
    outer loop
      vertex -11.75 29.25 1
      vertex 11.75 29.25 2
      vertex -11.75 29.25 2
    endloop
  endfacet
  facet normal 0 -1 -0
    outer loop
      vertex 11.75 29.25 2
      vertex -11.75 29.25 1
      vertex 11.75 29.25 1
    endloop
  endfacet
  facet normal 1 -1.63021e-08 0
    outer loop
      vertex -11.75 -29.25 2
      vertex -11.75 29.25 1
      vertex -11.75 29.25 2
    endloop
  endfacet
  facet normal 1 -1.63021e-08 0
    outer loop
      vertex -11.75 29.25 1
      vertex -11.75 -29.25 2
      vertex -11.75 -29.25 1
    endloop
  endfacet
  facet normal 0 1 -0
    outer loop
      vertex 11.75 -29.25 1
      vertex -11.75 -29.25 2
      vertex 11.75 -29.25 2
    endloop
  endfacet
  facet normal 0 1 0
    outer loop
      vertex -11.75 -29.25 2
      vertex 11.75 -29.25 1
      vertex -11.75 -29.25 1
    endloop
  endfacet
  facet normal 0 0 1
    outer loop
      vertex 4.75 23.25 1
      vertex 11.75 29.25 1
      vertex 4.75 27.75 1
    endloop
  endfacet
  facet normal 0 0 1
    outer loop
      vertex 11.75 29.25 1
      vertex -4.75 27.75 1
      vertex 4.75 27.75 1
    endloop
  endfacet
  facet normal 0 0 1
    outer loop
      vertex -4.75 27.75 1
      vertex -11.75 29.25 1
      vertex -4.75 23.25 1
    endloop
  endfacet
  facet normal -0 0 1
    outer loop
      vertex -11.75 29.25 1
      vertex -4.75 27.75 1
      vertex 11.75 29.25 1
    endloop
  endfacet
  facet normal 0 0 1
    outer loop
      vertex 11.75 29.25 1
      vertex 4.75 23.25 1
      vertex 11.75 -29.25 1
    endloop
  endfacet
  facet normal -0 0 1
    outer loop
      vertex -4.75 23.25 1
      vertex 11.75 -29.25 1
      vertex 4.75 23.25 1
    endloop
  endfacet
  facet normal 0 0 1
    outer loop
      vertex -11.75 -29.25 1
      vertex -4.75 23.25 1
      vertex -11.75 29.25 1
    endloop
  endfacet
  facet normal 0 0 1
    outer loop
      vertex -4.75 23.25 1
      vertex -11.75 -29.25 1
      vertex 11.75 -29.25 1
    endloop
  endfacet
  facet normal -1 1.63021e-08 0
    outer loop
      vertex 11.75 -29.25 1
      vertex 11.75 29.25 2
      vertex 11.75 29.25 1
    endloop
  endfacet
  facet normal -1 1.63021e-08 0
    outer loop
      vertex 11.75 29.25 2
      vertex 11.75 -29.25 1
      vertex 11.75 -29.25 2
    endloop
  endfacet
  facet normal 0 -1 0
    outer loop
      vertex -4.75 27.75 -0.0149994
      vertex 4.75 27.75 1
      vertex -4.75 27.75 1
    endloop
  endfacet
  facet normal 0 -1 -0
    outer loop
      vertex 4.75 27.75 1
      vertex -4.75 27.75 -0.0149994
      vertex 4.75 27.75 -0.0149994
    endloop
  endfacet
  facet normal 1 -2.11928e-07 0
    outer loop
      vertex -4.75 23.25 1
      vertex -4.75 27.75 -0.0149994
      vertex -4.75 27.75 1
    endloop
  endfacet
  facet normal 1 -2.11928e-07 0
    outer loop
      vertex -4.75 27.75 -0.0149994
      vertex -4.75 23.25 1
      vertex -4.75 23.25 -0.0149994
    endloop
  endfacet
  facet normal 0 1 -0
    outer loop
      vertex 4.75 23.25 -0.0149994
      vertex -4.75 23.25 1
      vertex 4.75 23.25 1
    endloop
  endfacet
  facet normal 0 1 0
    outer loop
      vertex -4.75 23.25 1
      vertex 4.75 23.25 -0.0149994
      vertex -4.75 23.25 -0.0149994
    endloop
  endfacet
  facet normal -1 2.11928e-07 0
    outer loop
      vertex 4.75 23.25 -0.0149994
      vertex 4.75 27.75 1
      vertex 4.75 27.75 -0.0149994
    endloop
  endfacet
  facet normal -1 2.11928e-07 0
    outer loop
      vertex 4.75 27.75 1
      vertex 4.75 23.25 -0.0149994
      vertex 4.75 23.25 1
    endloop
  endfacet
  facet normal 0 -1 0
    outer loop
      vertex -4.75 -30.25 -0.0149994
      vertex 4.75 -30.25 2
      vertex -4.75 -30.25 2
    endloop
  endfacet
  facet normal 0 -1 -0
    outer loop
      vertex 4.75 -30.25 2
      vertex -4.75 -30.25 -0.0149994
      vertex 4.75 -30.25 -0.0149994
    endloop
  endfacet
  facet normal 0 1 -0
    outer loop
      vertex 4.75 -34.75 -0.0149994
      vertex -4.75 -34.75 2
      vertex 4.75 -34.75 2
    endloop
  endfacet
  facet normal 0 1 0
    outer loop
      vertex -4.75 -34.75 2
      vertex 4.75 -34.75 -0.0149994
      vertex -4.75 -34.75 -0.0149994
    endloop
  endfacet
  facet normal -1 2.11928e-07 0
    outer loop
      vertex 4.75 -34.75 -0.0149994
      vertex 4.75 -30.25 2
      vertex 4.75 -30.25 -0.0149994
    endloop
  endfacet
  facet normal -1 2.11928e-07 0
    outer loop
      vertex 4.75 -30.25 2
      vertex 4.75 -34.75 -0.0149994
      vertex 4.75 -34.75 2
    endloop
  endfacet
  facet normal 1 -2.11928e-07 0
    outer loop
      vertex -4.75 -34.75 2
      vertex -4.75 -30.25 -0.0149994
      vertex -4.75 -30.25 2
    endloop
  endfacet
  facet normal 1 -2.11928e-07 0
    outer loop
      vertex -4.75 -30.25 -0.0149994
      vertex -4.75 -34.75 2
      vertex -4.75 -34.75 -0.0149994
    endloop
  endfacet
  facet normal 0 0 -1
    outer loop
      vertex -27 -36.25 -30
      vertex -27.75 -35.25 -30
      vertex -27 -35.25 -30
    endloop
  endfacet
  facet normal -0 0 -1
    outer loop
      vertex -27.75 -35.25 -30
      vertex -28.75 -36.25 -30
      vertex -27.75 35.25 -30
    endloop
  endfacet
  facet normal 0 0 -1
    outer loop
      vertex -28.75 -36.25 -30
      vertex -27.75 -35.25 -30
      vertex -27 -36.25 -30
    endloop
  endfacet
  facet normal 0 0 -1
    outer loop
      vertex 28.75 -36.25 -30
      vertex 27.75 -35.25 -30
      vertex 28.75 36.25 -30
    endloop
  endfacet
  facet normal 0 0 -1
    outer loop
      vertex 27 -36.25 -30
      vertex 27.75 -35.25 -30
      vertex 28.75 -36.25 -30
    endloop
  endfacet
  facet normal -0 0 -1
    outer loop
      vertex 27.75 -35.25 -30
      vertex 27 -36.25 -30
      vertex 27 -35.25 -30
    endloop
  endfacet
  facet normal 0 0 -1
    outer loop
      vertex 27.75 35.25 -30
      vertex 28.75 36.25 -30
      vertex 27.75 -35.25 -30
    endloop
  endfacet
  facet normal 0 0 -1
    outer loop
      vertex -27.75 35.25 -30
      vertex 28.75 36.25 -30
      vertex 27.75 35.25 -30
    endloop
  endfacet
  facet normal 0 0 -1
    outer loop
      vertex -27.75 35.25 -30
      vertex -28.75 36.25 -30
      vertex 28.75 36.25 -30
    endloop
  endfacet
  facet normal 0 0 -1
    outer loop
      vertex -28.75 36.25 -30
      vertex -27.75 35.25 -30
      vertex -28.75 -36.25 -30
    endloop
  endfacet
  facet normal 0 0 -1
    outer loop
      vertex -4 -36.25 -30
      vertex 9 -35.25 -30
      vertex 9 -36.25 -30
    endloop
  endfacet
  facet normal -0 0 -1
    outer loop
      vertex 9 -35.25 -30
      vertex -4 -36.25 -30
      vertex -4 -35.25 -30
    endloop
  endfacet
  facet normal 1 -0 0
    outer loop
      vertex -27.75 -35.25 -0.0149994
      vertex -27.75 35.25 -30
      vertex -27.75 35.25 -0.0149994
    endloop
  endfacet
  facet normal 1 0 0
    outer loop
      vertex -27.75 35.25 -30
      vertex -27.75 -35.25 -0.0149994
      vertex -27.75 -35.25 -30
    endloop
  endfacet
  facet normal 0 0 -1
    outer loop
      vertex 27.75 35.25 -0.0149994
      vertex 4.75 23.25 -0.0149994
      vertex 4.75 27.75 -0.0149994
    endloop
  endfacet
  facet normal 0 0 -1
    outer loop
      vertex -4.75 -30.25 -0.0149994
      vertex 4.75 23.25 -0.0149994
      vertex 4.75 -30.25 -0.0149994
    endloop
  endfacet
  facet normal 0 0 -1
    outer loop
      vertex -4.75 -30.25 -0.0149994
      vertex -4.75 23.25 -0.0149994
      vertex 4.75 23.25 -0.0149994
    endloop
  endfacet
  facet normal 0 0 -1
    outer loop
      vertex -27.75 -35.25 -0.0149994
      vertex -4.75 -30.25 -0.0149994
      vertex -4.75 -34.75 -0.0149994
    endloop
  endfacet
  facet normal 0 0 -1
    outer loop
      vertex 4.75 23.25 -0.0149994
      vertex 27.75 -35.25 -0.0149994
      vertex 4.75 -30.25 -0.0149994
    endloop
  endfacet
  facet normal 0 0 -1
    outer loop
      vertex 27.75 -35.25 -0.0149994
      vertex 4.75 -34.75 -0.0149994
      vertex 4.75 -30.25 -0.0149994
    endloop
  endfacet
  facet normal 0 0 -1
    outer loop
      vertex 27.75 -35.25 -0.0149994
      vertex -4.75 -34.75 -0.0149994
      vertex 4.75 -34.75 -0.0149994
    endloop
  endfacet
  facet normal -0 0 -1
    outer loop
      vertex -4.75 -30.25 -0.0149994
      vertex -27.75 -35.25 -0.0149994
      vertex -4.75 23.25 -0.0149994
    endloop
  endfacet
  facet normal 0 0 -1
    outer loop
      vertex -27.75 -35.25 -0.0149994
      vertex -4.75 -34.75 -0.0149994
      vertex 27.75 -35.25 -0.0149994
    endloop
  endfacet
  facet normal 0 0 -1
    outer loop
      vertex 4.75 23.25 -0.0149994
      vertex 27.75 35.25 -0.0149994
      vertex 27.75 -35.25 -0.0149994
    endloop
  endfacet
  facet normal 0 0 -1
    outer loop
      vertex -4.75 27.75 -0.0149994
      vertex 27.75 35.25 -0.0149994
      vertex 4.75 27.75 -0.0149994
    endloop
  endfacet
  facet normal 0 0 -1
    outer loop
      vertex -27.75 35.25 -0.0149994
      vertex -4.75 23.25 -0.0149994
      vertex -27.75 -35.25 -0.0149994
    endloop
  endfacet
  facet normal 0 0 -1
    outer loop
      vertex -4.75 27.75 -0.0149994
      vertex -27.75 35.25 -0.0149994
      vertex 27.75 35.25 -0.0149994
    endloop
  endfacet
  facet normal 0 0 -1
    outer loop
      vertex -4.75 23.25 -0.0149994
      vertex -27.75 35.25 -0.0149994
      vertex -4.75 27.75 -0.0149994
    endloop
  endfacet
  facet normal -1 0 0
    outer loop
      vertex 27.75 -35.25 -30
      vertex 27.75 35.25 -0.0149994
      vertex 27.75 35.25 -30
    endloop
  endfacet
  facet normal -1 -0 0
    outer loop
      vertex 27.75 35.25 -0.0149994
      vertex 27.75 -35.25 -30
      vertex 27.75 -35.25 -0.0149994
    endloop
  endfacet
  facet normal 0 1 0
    outer loop
      vertex -1.66805 -35.25 -10.7797
      vertex -4 -35.25 -10.01
      vertex -1.75 -35.25 -10
    endloop
  endfacet
  facet normal 0 1 0
    outer loop
      vertex -1.42579 -35.25 -11.5253
      vertex -4 -35.25 -10.01
      vertex -1.66805 -35.25 -10.7797
    endloop
  endfacet
  facet normal 0 1 0
    outer loop
      vertex -1.03381 -35.25 -12.2042
      vertex -4 -35.25 -10.01
      vertex -1.42579 -35.25 -11.5253
    endloop
  endfacet
  facet normal 0 1 0
    outer loop
      vertex -0.509239 -35.25 -12.7868
      vertex -4 -35.25 -10.01
      vertex -1.03381 -35.25 -12.2042
    endloop
  endfacet
  facet normal 0 1 0
    outer loop
      vertex 2.39198 -35.25 -13.7295
      vertex -4 -35.25 -30
      vertex 1.60802 -35.25 -13.7295
    endloop
  endfacet
  facet normal 0 1 0
    outer loop
      vertex 1.60802 -35.25 -13.7295
      vertex -4 -35.25 -30
      vertex 0.841186 -35.25 -13.5665
    endloop
  endfacet
  facet normal 0 1 0
    outer loop
      vertex 0.841186 -35.25 -13.5665
      vertex -4 -35.25 -30
      vertex 0.124999 -35.25 -13.2476
    endloop
  endfacet
  facet normal 0 1 0
    outer loop
      vertex 0.124999 -35.25 -13.2476
      vertex -4 -35.25 -30
      vertex -0.509239 -35.25 -12.7868
    endloop
  endfacet
  facet normal 0 1 0
    outer loop
      vertex -0.509239 -35.25 -12.7868
      vertex -4 -35.25 -30
      vertex -4 -35.25 -10.01
    endloop
  endfacet
  facet normal 0 1 0
    outer loop
      vertex 1.60802 -35.25 -6.27054
      vertex 27.75 -35.25 -0.0149994
      vertex 2.39198 -35.25 -6.27054
    endloop
  endfacet
  facet normal 0 1 0
    outer loop
      vertex 27.75 -35.25 -0.0149994
      vertex 3.15881 -35.25 -6.43354
      vertex 2.39198 -35.25 -6.27054
    endloop
  endfacet
  facet normal 0 1 0
    outer loop
      vertex 27.75 -35.25 -0.0149994
      vertex 3.875 -35.25 -6.7524
      vertex 3.15881 -35.25 -6.43354
    endloop
  endfacet
  facet normal 0 1 0
    outer loop
      vertex 27.75 -35.25 -0.0149994
      vertex 4.50924 -35.25 -7.21321
      vertex 3.875 -35.25 -6.7524
    endloop
  endfacet
  facet normal 0 1 -0
    outer loop
      vertex 9 -35.25 -10.01
      vertex 4.50924 -35.25 -7.21321
      vertex 27.75 -35.25 -0.0149994
    endloop
  endfacet
  facet normal 0 1 0
    outer loop
      vertex 4.50924 -35.25 -7.21321
      vertex 9 -35.25 -10.01
      vertex 5.03381 -35.25 -7.7958
    endloop
  endfacet
  facet normal 0 1 0
    outer loop
      vertex 5.03381 -35.25 -7.7958
      vertex 9 -35.25 -10.01
      vertex 5.42579 -35.25 -8.47474
    endloop
  endfacet
  facet normal 0 1 0
    outer loop
      vertex 5.42579 -35.25 -8.47474
      vertex 9 -35.25 -10.01
      vertex 5.66805 -35.25 -9.22033
    endloop
  endfacet
  facet normal 0 1 0
    outer loop
      vertex 5.66805 -35.25 -9.22033
      vertex 9 -35.25 -10.01
      vertex 5.68956 -35.25 -9.42499
    endloop
  endfacet
  facet normal 0 1 0
    outer loop
      vertex 9 -35.25 -10.01
      vertex 27.75 -35.25 -0.0149994
      vertex 27 -35.25 -10.01
    endloop
  endfacet
  facet normal 0 1 -0
    outer loop
      vertex 27.75 -35.25 -30
      vertex 27 -35.25 -10.01
      vertex 27.75 -35.25 -0.0149994
    endloop
  endfacet
  facet normal 0 1 0
    outer loop
      vertex 27 -35.25 -10.01
      vertex 27.75 -35.25 -30
      vertex 27 -35.25 -30
    endloop
  endfacet
  facet normal 0 1 0
    outer loop
      vertex 27.75 -35.25 -0.0149994
      vertex 1.60802 -35.25 -6.27054
      vertex -27.75 -35.25 -0.0149994
    endloop
  endfacet
  facet normal 0 1 -0
    outer loop
      vertex 0.841186 -35.25 -6.43354
      vertex -27.75 -35.25 -0.0149994
      vertex 1.60802 -35.25 -6.27054
    endloop
  endfacet
  facet normal 0 1 -0
    outer loop
      vertex 0.125 -35.25 -6.7524
      vertex -27.75 -35.25 -0.0149994
      vertex 0.841186 -35.25 -6.43354
    endloop
  endfacet
  facet normal 0 1 -0
    outer loop
      vertex -0.509239 -35.25 -7.21321
      vertex -27.75 -35.25 -0.0149994
      vertex 0.125 -35.25 -6.7524
    endloop
  endfacet
  facet normal 0 1 0
    outer loop
      vertex -4 -35.25 -10.01
      vertex -0.509239 -35.25 -7.21321
      vertex -1.03381 -35.25 -7.7958
    endloop
  endfacet
  facet normal 0 1 0
    outer loop
      vertex -4 -35.25 -10.01
      vertex -1.03381 -35.25 -7.7958
      vertex -1.42579 -35.25 -8.47474
    endloop
  endfacet
  facet normal 0 1 0
    outer loop
      vertex -4 -35.25 -10.01
      vertex -1.42579 -35.25 -8.47474
      vertex -1.66805 -35.25 -9.22033
    endloop
  endfacet
  facet normal 0 1 0
    outer loop
      vertex -4 -35.25 -10.01
      vertex -1.66805 -35.25 -9.22033
      vertex -1.75 -35.25 -10
    endloop
  endfacet
  facet normal 0 1 0
    outer loop
      vertex -0.509239 -35.25 -7.21321
      vertex -4 -35.25 -10.01
      vertex -27.75 -35.25 -0.0149994
    endloop
  endfacet
  facet normal 0 1 -0
    outer loop
      vertex -27 -35.25 -10.01
      vertex -27.75 -35.25 -0.0149994
      vertex -4 -35.25 -10.01
    endloop
  endfacet
  facet normal 0 1 0
    outer loop
      vertex -27.75 -35.25 -30
      vertex -27 -35.25 -10.01
      vertex -27 -35.25 -30
    endloop
  endfacet
  facet normal 0 1 0
    outer loop
      vertex -27 -35.25 -10.01
      vertex -27.75 -35.25 -30
      vertex -27.75 -35.25 -0.0149994
    endloop
  endfacet
  facet normal 0 1 0
    outer loop
      vertex 5.68956 -35.25 -9.42499
      vertex 9 -35.25 -10.01
      vertex 5.75 -35.25 -10
    endloop
  endfacet
  facet normal 0 1 0
    outer loop
      vertex 9 -35.25 -10.01
      vertex 5.72849 -35.25 -10.2047
      vertex 5.75 -35.25 -10
    endloop
  endfacet
  facet normal 0 1 0
    outer loop
      vertex 9 -35.25 -10.01
      vertex 5.66805 -35.25 -10.7797
      vertex 5.72849 -35.25 -10.2047
    endloop
  endfacet
  facet normal 0 1 0
    outer loop
      vertex 9 -35.25 -10.01
      vertex 5.42579 -35.25 -11.5253
      vertex 5.66805 -35.25 -10.7797
    endloop
  endfacet
  facet normal 0 1 0
    outer loop
      vertex 9 -35.25 -10.01
      vertex 5.03381 -35.25 -12.2042
      vertex 5.42579 -35.25 -11.5253
    endloop
  endfacet
  facet normal 0 1 0
    outer loop
      vertex 9 -35.25 -10.01
      vertex 4.50924 -35.25 -12.7868
      vertex 5.03381 -35.25 -12.2042
    endloop
  endfacet
  facet normal 0 1 -0
    outer loop
      vertex 9 -35.25 -30
      vertex 4.50924 -35.25 -12.7868
      vertex 9 -35.25 -10.01
    endloop
  endfacet
  facet normal 0 1 0
    outer loop
      vertex -4 -35.25 -30
      vertex 2.39198 -35.25 -13.7295
      vertex 9 -35.25 -30
    endloop
  endfacet
  facet normal 0 1 0
    outer loop
      vertex 3.15881 -35.25 -13.5665
      vertex 9 -35.25 -30
      vertex 2.39198 -35.25 -13.7295
    endloop
  endfacet
  facet normal 0 1 0
    outer loop
      vertex 3.875 -35.25 -13.2476
      vertex 9 -35.25 -30
      vertex 3.15881 -35.25 -13.5665
    endloop
  endfacet
  facet normal 0 1 0
    outer loop
      vertex 4.50924 -35.25 -12.7868
      vertex 9 -35.25 -30
      vertex 3.875 -35.25 -13.2476
    endloop
  endfacet
  facet normal 0 -1 0
    outer loop
      vertex -27.75 35.25 -30
      vertex 27.75 35.25 -0.0149994
      vertex -27.75 35.25 -0.0149994
    endloop
  endfacet
  facet normal 0 -1 -0
    outer loop
      vertex 27.75 35.25 -0.0149994
      vertex -27.75 35.25 -30
      vertex 27.75 35.25 -30
    endloop
  endfacet
  facet normal 1 -0 0
    outer loop
      vertex -27 -36.25 -10.01
      vertex -27 -35.25 -30
      vertex -27 -35.25 -10.01
    endloop
  endfacet
  facet normal 1 0 0
    outer loop
      vertex -27 -35.25 -30
      vertex -27 -36.25 -10.01
      vertex -27 -36.25 -30
    endloop
  endfacet
  facet normal 0 0 -1
    outer loop
      vertex -27 -36.25 -10.01
      vertex -4 -35.25 -10.01
      vertex -4 -36.25 -10.01
    endloop
  endfacet
  facet normal -0 0 -1
    outer loop
      vertex -4 -35.25 -10.01
      vertex -27 -36.25 -10.01
      vertex -27 -35.25 -10.01
    endloop
  endfacet
  facet normal -1 0 0
    outer loop
      vertex -4 -36.25 -30
      vertex -4 -35.25 -10.01
      vertex -4 -35.25 -30
    endloop
  endfacet
  facet normal -1 -0 0
    outer loop
      vertex -4 -35.25 -10.01
      vertex -4 -36.25 -30
      vertex -4 -36.25 -10.01
    endloop
  endfacet
  facet normal 1 -0 0
    outer loop
      vertex 9 -36.25 -10.01
      vertex 9 -35.25 -30
      vertex 9 -35.25 -10.01
    endloop
  endfacet
  facet normal 1 0 0
    outer loop
      vertex 9 -35.25 -30
      vertex 9 -36.25 -10.01
      vertex 9 -36.25 -30
    endloop
  endfacet
  facet normal 0 0 -1
    outer loop
      vertex 9 -36.25 -10.01
      vertex 27 -35.25 -10.01
      vertex 27 -36.25 -10.01
    endloop
  endfacet
  facet normal -0 0 -1
    outer loop
      vertex 27 -35.25 -10.01
      vertex 9 -36.25 -10.01
      vertex 9 -35.25 -10.01
    endloop
  endfacet
  facet normal -1 0 0
    outer loop
      vertex 27 -36.25 -30
      vertex 27 -35.25 -10.01
      vertex 27 -35.25 -30
    endloop
  endfacet
  facet normal -1 -0 0
    outer loop
      vertex 27 -35.25 -10.01
      vertex 27 -36.25 -30
      vertex 27 -36.25 -10.01
    endloop
  endfacet
  facet normal -0.994522 -1.06807e-07 -0.104529
    outer loop
      vertex 5.66805 -36.25 -9.22033
      vertex 5.68956 -35.25 -9.42499
      vertex 5.69366 -36.25 -9.46398
    endloop
  endfacet
  facet normal -0.994522 0 -0.104529
    outer loop
      vertex 5.68956 -35.25 -9.42499
      vertex 5.66805 -36.25 -9.22033
      vertex 5.66805 -35.25 -9.22033
    endloop
  endfacet
  facet normal -0.866026 0 -0.499999
    outer loop
      vertex 5.42579 -36.25 -8.47474
      vertex 5.03381 -35.25 -7.7958
      vertex 5.42579 -35.25 -8.47474
    endloop
  endfacet
  facet normal -0.866026 -0 -0.499999
    outer loop
      vertex 5.03381 -35.25 -7.7958
      vertex 5.42579 -36.25 -8.47474
      vertex 5.03381 -36.25 -7.7958
    endloop
  endfacet
  facet normal 0.951056 0 -0.309017
    outer loop
      vertex -1.42579 -36.25 -8.47474
      vertex -1.66805 -35.25 -9.22033
      vertex -1.42579 -35.25 -8.47474
    endloop
  endfacet
  facet normal 0.951056 0 -0.309017
    outer loop
      vertex -1.66805 -35.25 -9.22033
      vertex -1.42579 -36.25 -8.47474
      vertex -1.66805 -36.25 -9.22033
    endloop
  endfacet
  facet normal -0.994522 0 0.10453
    outer loop
      vertex 5.72439 -36.25 -10.2436
      vertex 5.66805 -35.25 -10.7797
      vertex 5.66805 -36.25 -10.7797
    endloop
  endfacet
  facet normal -0.994522 9.68629e-08 0.10453
    outer loop
      vertex 5.66805 -35.25 -10.7797
      vertex 5.72439 -36.25 -10.2436
      vertex 5.72849 -35.25 -10.2047
    endloop
  endfacet
  facet normal -0.587786 0 -0.809017
    outer loop
      vertex 3.875 -36.25 -6.7524
      vertex 4.50924 -35.25 -7.21321
      vertex 4.50924 -36.25 -7.21321
    endloop
  endfacet
  facet normal -0.587786 0 -0.809017
    outer loop
      vertex 4.50924 -35.25 -7.21321
      vertex 3.875 -36.25 -6.7524
      vertex 3.875 -35.25 -6.7524
    endloop
  endfacet
  facet normal -0.743145 0 -0.669131
    outer loop
      vertex 5.03381 -36.25 -7.7958
      vertex 4.50924 -35.25 -7.21321
      vertex 5.03381 -35.25 -7.7958
    endloop
  endfacet
  facet normal -0.743145 -0 -0.669131
    outer loop
      vertex 4.50924 -35.25 -7.21321
      vertex 5.03381 -36.25 -7.7958
      vertex 4.50924 -36.25 -7.21321
    endloop
  endfacet
  facet normal 0.207912 0 -0.978148
    outer loop
      vertex 0.841186 -36.25 -6.43354
      vertex 1.60802 -35.25 -6.27054
      vertex 1.60802 -36.25 -6.27054
    endloop
  endfacet
  facet normal 0.207912 0 -0.978148
    outer loop
      vertex 1.60802 -35.25 -6.27054
      vertex 0.841186 -36.25 -6.43354
      vertex 0.841186 -35.25 -6.43354
    endloop
  endfacet
  facet normal 0.994522 -0 0.104529
    outer loop
      vertex -1.75 -36.25 -10
      vertex -1.66805 -35.25 -10.7797
      vertex -1.75 -35.25 -10
    endloop
  endfacet
  facet normal 0.994522 0 0.104529
    outer loop
      vertex -1.66805 -35.25 -10.7797
      vertex -1.75 -36.25 -10
      vertex -1.66805 -36.25 -10.7797
    endloop
  endfacet
  facet normal 0.866026 0 -0.499999
    outer loop
      vertex -1.03381 -36.25 -7.7958
      vertex -1.42579 -35.25 -8.47474
      vertex -1.03381 -35.25 -7.7958
    endloop
  endfacet
  facet normal 0.866026 0 -0.499999
    outer loop
      vertex -1.42579 -35.25 -8.47474
      vertex -1.03381 -36.25 -7.7958
      vertex -1.42579 -36.25 -8.47474
    endloop
  endfacet
  facet normal 0.406737 0 -0.913545
    outer loop
      vertex 0.125 -36.25 -6.7524
      vertex 0.841186 -35.25 -6.43354
      vertex 0.841186 -36.25 -6.43354
    endloop
  endfacet
  facet normal 0.406737 0 -0.913545
    outer loop
      vertex 0.841186 -35.25 -6.43354
      vertex 0.125 -36.25 -6.7524
      vertex 0.125 -35.25 -6.7524
    endloop
  endfacet
  facet normal -0.994522 0 -0.104529
    outer loop
      vertex 5.69366 -36.25 -9.46398
      vertex 5.75 -35.25 -10
      vertex 5.75 -36.25 -10
    endloop
  endfacet
  facet normal -0.994522 -1.03621e-07 -0.10453
    outer loop
      vertex 5.75 -35.25 -10
      vertex 5.69366 -36.25 -9.46398
      vertex 5.68956 -35.25 -9.42499
    endloop
  endfacet
  facet normal -0.994522 1.06807e-07 0.104529
    outer loop
      vertex 5.75 -36.25 -10
      vertex 5.72849 -35.25 -10.2047
      vertex 5.72439 -36.25 -10.2436
    endloop
  endfacet
  facet normal -0.994522 0 0.104529
    outer loop
      vertex 5.72849 -35.25 -10.2047
      vertex 5.75 -36.25 -10
      vertex 5.75 -35.25 -10
    endloop
  endfacet
  facet normal 0.743145 -0 0.669131
    outer loop
      vertex -1.03381 -36.25 -12.2042
      vertex -0.509239 -35.25 -12.7868
      vertex -1.03381 -35.25 -12.2042
    endloop
  endfacet
  facet normal 0.743145 0 0.669131
    outer loop
      vertex -0.509239 -35.25 -12.7868
      vertex -1.03381 -36.25 -12.2042
      vertex -0.509239 -36.25 -12.7868
    endloop
  endfacet
  facet normal -0.207912 0 0.978148
    outer loop
      vertex 2.39198 -35.25 -13.7295
      vertex 3.15881 -36.25 -13.5665
      vertex 3.15881 -35.25 -13.5665
    endloop
  endfacet
  facet normal -0.207912 0 0.978148
    outer loop
      vertex 3.15881 -36.25 -13.5665
      vertex 2.39198 -35.25 -13.7295
      vertex 2.39198 -36.25 -13.7295
    endloop
  endfacet
  facet normal -0.406737 0 0.913545
    outer loop
      vertex 3.15881 -35.25 -13.5665
      vertex 3.875 -36.25 -13.2476
      vertex 3.875 -35.25 -13.2476
    endloop
  endfacet
  facet normal -0.406737 0 0.913545
    outer loop
      vertex 3.875 -36.25 -13.2476
      vertex 3.15881 -35.25 -13.5665
      vertex 3.15881 -36.25 -13.5665
    endloop
  endfacet
  facet normal -0.951056 0 -0.309017
    outer loop
      vertex 5.66805 -36.25 -9.22033
      vertex 5.42579 -35.25 -8.47474
      vertex 5.66805 -35.25 -9.22033
    endloop
  endfacet
  facet normal -0.951056 -0 -0.309017
    outer loop
      vertex 5.42579 -35.25 -8.47474
      vertex 5.66805 -36.25 -9.22033
      vertex 5.42579 -36.25 -8.47474
    endloop
  endfacet
  facet normal 0 0 -1
    outer loop
      vertex 1.60802 -36.25 -6.27054
      vertex 2.39198 -35.25 -6.27054
      vertex 2.39198 -36.25 -6.27054
    endloop
  endfacet
  facet normal -0 0 -1
    outer loop
      vertex 2.39198 -35.25 -6.27054
      vertex 1.60802 -36.25 -6.27054
      vertex 1.60802 -35.25 -6.27054
    endloop
  endfacet
  facet normal -0.406737 0 -0.913545
    outer loop
      vertex 3.15881 -36.25 -6.43354
      vertex 3.875 -35.25 -6.7524
      vertex 3.875 -36.25 -6.7524
    endloop
  endfacet
  facet normal -0.406737 0 -0.913545
    outer loop
      vertex 3.875 -35.25 -6.7524
      vertex 3.15881 -36.25 -6.43354
      vertex 3.15881 -35.25 -6.43354
    endloop
  endfacet
  facet normal -0.207912 0 -0.978148
    outer loop
      vertex 2.39198 -36.25 -6.27054
      vertex 3.15881 -35.25 -6.43354
      vertex 3.15881 -36.25 -6.43354
    endloop
  endfacet
  facet normal -0.207912 0 -0.978148
    outer loop
      vertex 3.15881 -35.25 -6.43354
      vertex 2.39198 -36.25 -6.27054
      vertex 2.39198 -35.25 -6.27054
    endloop
  endfacet
  facet normal 0.994522 0 -0.10453
    outer loop
      vertex -1.66805 -36.25 -9.22033
      vertex -1.75 -35.25 -10
      vertex -1.66805 -35.25 -9.22033
    endloop
  endfacet
  facet normal 0.994522 0 -0.10453
    outer loop
      vertex -1.75 -35.25 -10
      vertex -1.66805 -36.25 -9.22033
      vertex -1.75 -36.25 -10
    endloop
  endfacet
  facet normal 0.587786 0 -0.809017
    outer loop
      vertex -0.509239 -36.25 -7.21321
      vertex 0.125 -35.25 -6.7524
      vertex 0.125 -36.25 -6.7524
    endloop
  endfacet
  facet normal 0.587786 0 -0.809017
    outer loop
      vertex 0.125 -35.25 -6.7524
      vertex -0.509239 -36.25 -7.21321
      vertex -0.509239 -35.25 -7.21321
    endloop
  endfacet
  facet normal 0.743145 0 -0.669131
    outer loop
      vertex -0.509239 -36.25 -7.21321
      vertex -1.03381 -35.25 -7.7958
      vertex -0.509239 -35.25 -7.21321
    endloop
  endfacet
  facet normal 0.743145 0 -0.669131
    outer loop
      vertex -1.03381 -35.25 -7.7958
      vertex -0.509239 -36.25 -7.21321
      vertex -1.03381 -36.25 -7.7958
    endloop
  endfacet
  facet normal 0.406737 0 0.913545
    outer loop
      vertex 0.124999 -35.25 -13.2476
      vertex 0.841186 -36.25 -13.5665
      vertex 0.841186 -35.25 -13.5665
    endloop
  endfacet
  facet normal 0.406737 0 0.913545
    outer loop
      vertex 0.841186 -36.25 -13.5665
      vertex 0.124999 -35.25 -13.2476
      vertex 0.124999 -36.25 -13.2476
    endloop
  endfacet
  facet normal 0.951056 -0 0.309017
    outer loop
      vertex -1.66805 -36.25 -10.7797
      vertex -1.42579 -35.25 -11.5253
      vertex -1.66805 -35.25 -10.7797
    endloop
  endfacet
  facet normal 0.951056 0 0.309017
    outer loop
      vertex -1.42579 -35.25 -11.5253
      vertex -1.66805 -36.25 -10.7797
      vertex -1.42579 -36.25 -11.5253
    endloop
  endfacet
  facet normal 0.866026 -0 0.499999
    outer loop
      vertex -1.42579 -36.25 -11.5253
      vertex -1.03381 -35.25 -12.2042
      vertex -1.42579 -35.25 -11.5253
    endloop
  endfacet
  facet normal 0.866026 0 0.499999
    outer loop
      vertex -1.03381 -35.25 -12.2042
      vertex -1.42579 -36.25 -11.5253
      vertex -1.03381 -36.25 -12.2042
    endloop
  endfacet
  facet normal 0.587786 0 0.809016
    outer loop
      vertex -0.509239 -35.25 -12.7868
      vertex 0.124999 -36.25 -13.2476
      vertex 0.124999 -35.25 -13.2476
    endloop
  endfacet
  facet normal 0.587786 0 0.809016
    outer loop
      vertex 0.124999 -36.25 -13.2476
      vertex -0.509239 -35.25 -12.7868
      vertex -0.509239 -36.25 -12.7868
    endloop
  endfacet
  facet normal -0.587786 0 0.809017
    outer loop
      vertex 3.875 -35.25 -13.2476
      vertex 4.50924 -36.25 -12.7868
      vertex 4.50924 -35.25 -12.7868
    endloop
  endfacet
  facet normal -0.587786 0 0.809017
    outer loop
      vertex 4.50924 -36.25 -12.7868
      vertex 3.875 -35.25 -13.2476
      vertex 3.875 -36.25 -13.2476
    endloop
  endfacet
  facet normal -0.866026 0 0.499999
    outer loop
      vertex 5.03381 -36.25 -12.2042
      vertex 5.42579 -35.25 -11.5253
      vertex 5.03381 -35.25 -12.2042
    endloop
  endfacet
  facet normal -0.866026 0 0.499999
    outer loop
      vertex 5.42579 -35.25 -11.5253
      vertex 5.03381 -36.25 -12.2042
      vertex 5.42579 -36.25 -11.5253
    endloop
  endfacet
  facet normal -0.951056 0 0.309017
    outer loop
      vertex 5.42579 -36.25 -11.5253
      vertex 5.66805 -35.25 -10.7797
      vertex 5.42579 -35.25 -11.5253
    endloop
  endfacet
  facet normal -0.951056 0 0.309017
    outer loop
      vertex 5.66805 -35.25 -10.7797
      vertex 5.42579 -36.25 -11.5253
      vertex 5.66805 -36.25 -10.7797
    endloop
  endfacet
  facet normal -0 0 1
    outer loop
      vertex 1.60802 -35.25 -13.7295
      vertex 2.39198 -36.25 -13.7295
      vertex 2.39198 -35.25 -13.7295
    endloop
  endfacet
  facet normal 0 0 1
    outer loop
      vertex 2.39198 -36.25 -13.7295
      vertex 1.60802 -35.25 -13.7295
      vertex 1.60802 -36.25 -13.7295
    endloop
  endfacet
  facet normal -0.743145 0 0.669131
    outer loop
      vertex 4.50924 -36.25 -12.7868
      vertex 5.03381 -35.25 -12.2042
      vertex 4.50924 -35.25 -12.7868
    endloop
  endfacet
  facet normal -0.743145 0 0.669131
    outer loop
      vertex 5.03381 -35.25 -12.2042
      vertex 4.50924 -36.25 -12.7868
      vertex 5.03381 -36.25 -12.2042
    endloop
  endfacet
  facet normal 0.207912 0 0.978148
    outer loop
      vertex 0.841186 -35.25 -13.5665
      vertex 1.60802 -36.25 -13.7295
      vertex 1.60802 -35.25 -13.7295
    endloop
  endfacet
  facet normal 0.207912 0 0.978148
    outer loop
      vertex 1.60802 -36.25 -13.7295
      vertex 0.841186 -35.25 -13.5665
      vertex 0.841186 -36.25 -13.5665
    endloop
  endfacet
endsolid OpenSCAD_Model
