solid OpenSCAD_Model
  facet normal -1 0 0
    outer loop
      vertex -2.35 -3.35 0
      vertex -2.35 3.35 7
      vertex -2.35 3.35 0
    endloop
  endfacet
  facet normal -1 -0 0
    outer loop
      vertex -2.35 3.35 7
      vertex -2.35 -3.35 0
      vertex -2.35 -3.35 7
    endloop
  endfacet
  facet normal -0 0 1
    outer loop
      vertex -2.35 3.35 7
      vertex 2.35 -3.35 7
      vertex 2.35 3.35 7
    endloop
  endfacet
  facet normal 0 0 1
    outer loop
      vertex 2.35 -3.35 7
      vertex -2.35 3.35 7
      vertex -2.35 -3.35 7
    endloop
  endfacet
  facet normal 1 -0 0
    outer loop
      vertex 2.35 -3.35 7
      vertex 2.35 3.35 0
      vertex 2.35 3.35 7
    endloop
  endfacet
  facet normal 1 0 0
    outer loop
      vertex 2.35 3.35 0
      vertex 2.35 -3.35 7
      vertex 2.35 -3.35 0
    endloop
  endfacet
  facet normal 0 0 1
    outer loop
      vertex 2.35 3.35 0
      vertex 7 0 0
      vertex 6.71645 1.97213 0
    endloop
  endfacet
  facet normal -0 0 1
    outer loop
      vertex 2.35 3.35 0
      vertex 6.71645 1.97213 0
      vertex 5.88877 3.78448 0
    endloop
  endfacet
  facet normal 0 0 1
    outer loop
      vertex 2.35 -3.35 0
      vertex 7 0 0
      vertex 2.35 3.35 0
    endloop
  endfacet
  facet normal 0 0 1
    outer loop
      vertex 2.35 3.35 0
      vertex 5.88877 3.78448 0
      vertex 4.58402 5.29025 0
    endloop
  endfacet
  facet normal 0 0 1
    outer loop
      vertex 7 0 0
      vertex 2.35 -3.35 0
      vertex 6.71645 -1.97213 0
    endloop
  endfacet
  facet normal 0 0 1
    outer loop
      vertex 2.35 3.35 0
      vertex 4.58402 5.29025 0
      vertex 2.9079 6.36742 0
    endloop
  endfacet
  facet normal 0 0 1
    outer loop
      vertex 6.71645 -1.97213 0
      vertex 2.35 -3.35 0
      vertex 5.88877 -3.78448 0
    endloop
  endfacet
  facet normal 0 0 1
    outer loop
      vertex 5.88877 -3.78448 0
      vertex 2.35 -3.35 0
      vertex 4.58402 -5.29025 0
    endloop
  endfacet
  facet normal 0 0 1
    outer loop
      vertex 0.996203 6.92875 0
      vertex 2.35 3.35 0
      vertex 2.9079 6.36742 0
    endloop
  endfacet
  facet normal -0 0 1
    outer loop
      vertex -0.996203 6.92875 0
      vertex 2.35 3.35 0
      vertex 0.996203 6.92875 0
    endloop
  endfacet
  facet normal 0 0 1
    outer loop
      vertex -0.996203 6.92875 0
      vertex -2.35 3.35 0
      vertex 2.35 3.35 0
    endloop
  endfacet
  facet normal -0 0 1
    outer loop
      vertex -4.58402 5.29025 0
      vertex -2.35 3.35 0
      vertex -2.9079 6.36742 0
    endloop
  endfacet
  facet normal -0 0 1
    outer loop
      vertex -2.9079 6.36742 0
      vertex -2.35 3.35 0
      vertex -0.996203 6.92875 0
    endloop
  endfacet
  facet normal 0 0 1
    outer loop
      vertex 4.58402 -5.29025 0
      vertex 2.35 -3.35 0
      vertex 2.9079 -6.36742 0
    endloop
  endfacet
  facet normal 0 0 1
    outer loop
      vertex 2.35 -3.35 0
      vertex 0.996203 -6.92875 0
      vertex 2.9079 -6.36742 0
    endloop
  endfacet
  facet normal 0 0 1
    outer loop
      vertex 2.35 -3.35 0
      vertex -0.996203 -6.92875 0
      vertex 0.996203 -6.92875 0
    endloop
  endfacet
  facet normal -0 0 1
    outer loop
      vertex -2.35 -3.35 0
      vertex -0.996203 -6.92875 0
      vertex 2.35 -3.35 0
    endloop
  endfacet
  facet normal 0 0 1
    outer loop
      vertex -2.35 -3.35 0
      vertex -2.9079 -6.36742 0
      vertex -0.996203 -6.92875 0
    endloop
  endfacet
  facet normal -0 0 1
    outer loop
      vertex -5.88877 3.78448 0
      vertex -2.35 3.35 0
      vertex -4.58402 5.29025 0
    endloop
  endfacet
  facet normal 0 0 1
    outer loop
      vertex -6.71645 1.97213 0
      vertex -2.35 3.35 0
      vertex -5.88877 3.78448 0
    endloop
  endfacet
  facet normal 0 0 1
    outer loop
      vertex -2.35 -3.35 0
      vertex -4.58402 -5.29025 0
      vertex -2.9079 -6.36742 0
    endloop
  endfacet
  facet normal 0 0 1
    outer loop
      vertex -7 0 0
      vertex -2.35 3.35 0
      vertex -6.71645 1.97213 0
    endloop
  endfacet
  facet normal 0 0 1
    outer loop
      vertex -2.35 -3.35 0
      vertex -5.88877 -3.78448 0
      vertex -4.58402 -5.29025 0
    endloop
  endfacet
  facet normal 0 0 1
    outer loop
      vertex -2.35 3.35 0
      vertex -7 0 0
      vertex -2.35 -3.35 0
    endloop
  endfacet
  facet normal 0 0 1
    outer loop
      vertex -2.35 -3.35 0
      vertex -6.71645 -1.97213 0
      vertex -5.88877 -3.78448 0
    endloop
  endfacet
  facet normal 0 0 1
    outer loop
      vertex -2.35 -3.35 0
      vertex -7 0 0
      vertex -6.71645 -1.97213 0
    endloop
  endfacet
  facet normal 0 -1 0
    outer loop
      vertex -2.35 -3.35 0
      vertex 2.35 -3.35 7
      vertex -2.35 -3.35 7
    endloop
  endfacet
  facet normal 0 -1 -0
    outer loop
      vertex 2.35 -3.35 7
      vertex -2.35 -3.35 0
      vertex 2.35 -3.35 0
    endloop
  endfacet
  facet normal 0 1 -0
    outer loop
      vertex 2.35 3.35 0
      vertex -2.35 3.35 7
      vertex 2.35 3.35 7
    endloop
  endfacet
  facet normal 0 1 0
    outer loop
      vertex -2.35 3.35 7
      vertex 2.35 3.35 0
      vertex -2.35 3.35 0
    endloop
  endfacet
  facet normal 0.989821 0.142315 0
    outer loop
      vertex 7 0 0
      vertex 6.71645 1.97213 -3
      vertex 6.71645 1.97213 0
    endloop
  endfacet
  facet normal 0.989821 0.142315 0
    outer loop
      vertex 6.71645 1.97213 -3
      vertex 7 0 0
      vertex 7 0 -3
    endloop
  endfacet
  facet normal -0.989821 0.142315 0
    outer loop
      vertex -7 0 -3
      vertex -6.71645 1.97213 0
      vertex -6.71645 1.97213 -3
    endloop
  endfacet
  facet normal -0.989821 0.142315 0
    outer loop
      vertex -6.71645 1.97213 0
      vertex -7 0 -3
      vertex -7 0 0
    endloop
  endfacet
  facet normal 0 1 -0
    outer loop
      vertex 0.996203 6.92875 -3
      vertex -0.996203 6.92875 0
      vertex 0.996203 6.92875 0
    endloop
  endfacet
  facet normal 0 1 0
    outer loop
      vertex -0.996203 6.92875 0
      vertex 0.996203 6.92875 -3
      vertex -0.996203 6.92875 -3
    endloop
  endfacet
  facet normal 0 -1 0
    outer loop
      vertex -0.996203 -6.92875 -3
      vertex 0.996203 -6.92875 0
      vertex -0.996203 -6.92875 0
    endloop
  endfacet
  facet normal 0 -1 -0
    outer loop
      vertex 0.996203 -6.92875 0
      vertex -0.996203 -6.92875 -3
      vertex 0.996203 -6.92875 -3
    endloop
  endfacet
  facet normal 0.75575 0.654861 0
    outer loop
      vertex 5.88877 3.78448 0
      vertex 4.58402 5.29025 -3
      vertex 4.58402 5.29025 0
    endloop
  endfacet
  facet normal 0.75575 0.654861 0
    outer loop
      vertex 4.58402 5.29025 -3
      vertex 5.88877 3.78448 0
      vertex 5.88877 3.78448 -3
    endloop
  endfacet
  facet normal 0.909632 0.415415 0
    outer loop
      vertex 6.71645 1.97213 0
      vertex 5.88877 3.78448 -3
      vertex 5.88877 3.78448 0
    endloop
  endfacet
  facet normal 0.909632 0.415415 0
    outer loop
      vertex 5.88877 3.78448 -3
      vertex 6.71645 1.97213 0
      vertex 6.71645 1.97213 -3
    endloop
  endfacet
  facet normal -0.540641 0.841254 0
    outer loop
      vertex -2.9079 6.36742 -3
      vertex -4.58402 5.29025 0
      vertex -2.9079 6.36742 0
    endloop
  endfacet
  facet normal -0.540641 0.841254 0
    outer loop
      vertex -4.58402 5.29025 0
      vertex -2.9079 6.36742 -3
      vertex -4.58402 5.29025 -3
    endloop
  endfacet
  facet normal -0.281733 0.959493 0
    outer loop
      vertex -0.996203 6.92875 -3
      vertex -2.9079 6.36742 0
      vertex -0.996203 6.92875 0
    endloop
  endfacet
  facet normal -0.281733 0.959493 0
    outer loop
      vertex -2.9079 6.36742 0
      vertex -0.996203 6.92875 -3
      vertex -2.9079 6.36742 -3
    endloop
  endfacet
  facet normal 0 0 -1
    outer loop
      vertex 6.71645 -1.97213 -3
      vertex 6.71645 1.97213 -3
      vertex 7 0 -3
    endloop
  endfacet
  facet normal 0 0 -1
    outer loop
      vertex 5.88877 -3.78448 -3
      vertex 6.71645 1.97213 -3
      vertex 6.71645 -1.97213 -3
    endloop
  endfacet
  facet normal 0 0 -1
    outer loop
      vertex 5.88877 -3.78448 -3
      vertex 5.88877 3.78448 -3
      vertex 6.71645 1.97213 -3
    endloop
  endfacet
  facet normal 0 0 -1
    outer loop
      vertex 4.58402 -5.29025 -3
      vertex 5.88877 3.78448 -3
      vertex 5.88877 -3.78448 -3
    endloop
  endfacet
  facet normal 0 0 -1
    outer loop
      vertex 4.58402 -5.29025 -3
      vertex 4.58402 5.29025 -3
      vertex 5.88877 3.78448 -3
    endloop
  endfacet
  facet normal 0 0 -1
    outer loop
      vertex 2.9079 -6.36742 -3
      vertex 4.58402 5.29025 -3
      vertex 4.58402 -5.29025 -3
    endloop
  endfacet
  facet normal 0 0 -1
    outer loop
      vertex 2.9079 -6.36742 -3
      vertex 2.9079 6.36742 -3
      vertex 4.58402 5.29025 -3
    endloop
  endfacet
  facet normal 0 0 -1
    outer loop
      vertex 0.996203 -6.92875 -3
      vertex 2.9079 6.36742 -3
      vertex 2.9079 -6.36742 -3
    endloop
  endfacet
  facet normal 0 0 -1
    outer loop
      vertex 0.996203 -6.92875 -3
      vertex 0.996203 6.92875 -3
      vertex 2.9079 6.36742 -3
    endloop
  endfacet
  facet normal 0 0 -1
    outer loop
      vertex -0.996203 -6.92875 -3
      vertex 0.996203 6.92875 -3
      vertex 0.996203 -6.92875 -3
    endloop
  endfacet
  facet normal 0 0 -1
    outer loop
      vertex -0.996203 -6.92875 -3
      vertex -0.996203 6.92875 -3
      vertex 0.996203 6.92875 -3
    endloop
  endfacet
  facet normal 0 0 -1
    outer loop
      vertex -2.9079 -6.36742 -3
      vertex -0.996203 6.92875 -3
      vertex -0.996203 -6.92875 -3
    endloop
  endfacet
  facet normal 0 0 -1
    outer loop
      vertex -2.9079 -6.36742 -3
      vertex -2.9079 6.36742 -3
      vertex -0.996203 6.92875 -3
    endloop
  endfacet
  facet normal 0 0 -1
    outer loop
      vertex -4.58402 -5.29025 -3
      vertex -2.9079 6.36742 -3
      vertex -2.9079 -6.36742 -3
    endloop
  endfacet
  facet normal 0 0 -1
    outer loop
      vertex -4.58402 -5.29025 -3
      vertex -4.58402 5.29025 -3
      vertex -2.9079 6.36742 -3
    endloop
  endfacet
  facet normal 0 0 -1
    outer loop
      vertex -5.88877 -3.78448 -3
      vertex -4.58402 5.29025 -3
      vertex -4.58402 -5.29025 -3
    endloop
  endfacet
  facet normal 0 0 -1
    outer loop
      vertex -5.88877 -3.78448 -3
      vertex -5.88877 3.78448 -3
      vertex -4.58402 5.29025 -3
    endloop
  endfacet
  facet normal 0 0 -1
    outer loop
      vertex -6.71645 -1.97213 -3
      vertex -5.88877 3.78448 -3
      vertex -5.88877 -3.78448 -3
    endloop
  endfacet
  facet normal 0 0 -1
    outer loop
      vertex -6.71645 -1.97213 -3
      vertex -6.71645 1.97213 -3
      vertex -5.88877 3.78448 -3
    endloop
  endfacet
  facet normal 0 -0 -1
    outer loop
      vertex -6.71645 1.97213 -3
      vertex -6.71645 -1.97213 -3
      vertex -7 0 -3
    endloop
  endfacet
  facet normal 0.281733 0.959493 -0
    outer loop
      vertex 2.9079 6.36742 -3
      vertex 0.996203 6.92875 0
      vertex 2.9079 6.36742 0
    endloop
  endfacet
  facet normal 0.281733 0.959493 0
    outer loop
      vertex 0.996203 6.92875 0
      vertex 2.9079 6.36742 -3
      vertex 0.996203 6.92875 -3
    endloop
  endfacet
  facet normal 0.540641 0.841254 -0
    outer loop
      vertex 4.58402 5.29025 -3
      vertex 2.9079 6.36742 0
      vertex 4.58402 5.29025 0
    endloop
  endfacet
  facet normal 0.540641 0.841254 0
    outer loop
      vertex 2.9079 6.36742 0
      vertex 4.58402 5.29025 -3
      vertex 2.9079 6.36742 -3
    endloop
  endfacet
  facet normal -0.75575 0.654861 0
    outer loop
      vertex -5.88877 3.78448 -3
      vertex -4.58402 5.29025 0
      vertex -4.58402 5.29025 -3
    endloop
  endfacet
  facet normal -0.75575 0.654861 0
    outer loop
      vertex -4.58402 5.29025 0
      vertex -5.88877 3.78448 -3
      vertex -5.88877 3.78448 0
    endloop
  endfacet
  facet normal -0.909632 0.415415 0
    outer loop
      vertex -6.71645 1.97213 -3
      vertex -5.88877 3.78448 0
      vertex -5.88877 3.78448 -3
    endloop
  endfacet
  facet normal -0.909632 0.415415 0
    outer loop
      vertex -5.88877 3.78448 0
      vertex -6.71645 1.97213 -3
      vertex -6.71645 1.97213 0
    endloop
  endfacet
  facet normal 0.989821 -0.142315 0
    outer loop
      vertex 6.71645 -1.97213 0
      vertex 7 0 -3
      vertex 7 0 0
    endloop
  endfacet
  facet normal 0.989821 -0.142315 0
    outer loop
      vertex 7 0 -3
      vertex 6.71645 -1.97213 0
      vertex 6.71645 -1.97213 -3
    endloop
  endfacet
  facet normal -0.989821 -0.142315 0
    outer loop
      vertex -6.71645 -1.97213 -3
      vertex -7 0 0
      vertex -7 0 -3
    endloop
  endfacet
  facet normal -0.989821 -0.142315 0
    outer loop
      vertex -7 0 0
      vertex -6.71645 -1.97213 -3
      vertex -6.71645 -1.97213 0
    endloop
  endfacet
  facet normal 0.75575 -0.654861 0
    outer loop
      vertex 4.58402 -5.29025 0
      vertex 5.88877 -3.78448 -3
      vertex 5.88877 -3.78448 0
    endloop
  endfacet
  facet normal 0.75575 -0.654861 0
    outer loop
      vertex 5.88877 -3.78448 -3
      vertex 4.58402 -5.29025 0
      vertex 4.58402 -5.29025 -3
    endloop
  endfacet
  facet normal 0.909632 -0.415415 0
    outer loop
      vertex 5.88877 -3.78448 0
      vertex 6.71645 -1.97213 -3
      vertex 6.71645 -1.97213 0
    endloop
  endfacet
  facet normal 0.909632 -0.415415 0
    outer loop
      vertex 6.71645 -1.97213 -3
      vertex 5.88877 -3.78448 0
      vertex 5.88877 -3.78448 -3
    endloop
  endfacet
  facet normal -0.540641 -0.841254 0
    outer loop
      vertex -4.58402 -5.29025 -3
      vertex -2.9079 -6.36742 0
      vertex -4.58402 -5.29025 0
    endloop
  endfacet
  facet normal -0.540641 -0.841254 -0
    outer loop
      vertex -2.9079 -6.36742 0
      vertex -4.58402 -5.29025 -3
      vertex -2.9079 -6.36742 -3
    endloop
  endfacet
  facet normal -0.909632 -0.415415 0
    outer loop
      vertex -5.88877 -3.78448 -3
      vertex -6.71645 -1.97213 0
      vertex -6.71645 -1.97213 -3
    endloop
  endfacet
  facet normal -0.909632 -0.415415 0
    outer loop
      vertex -6.71645 -1.97213 0
      vertex -5.88877 -3.78448 -3
      vertex -5.88877 -3.78448 0
    endloop
  endfacet
  facet normal -0.75575 -0.654861 0
    outer loop
      vertex -4.58402 -5.29025 -3
      vertex -5.88877 -3.78448 0
      vertex -5.88877 -3.78448 -3
    endloop
  endfacet
  facet normal -0.75575 -0.654861 0
    outer loop
      vertex -5.88877 -3.78448 0
      vertex -4.58402 -5.29025 -3
      vertex -4.58402 -5.29025 0
    endloop
  endfacet
  facet normal -0.281733 -0.959493 0
    outer loop
      vertex -2.9079 -6.36742 -3
      vertex -0.996203 -6.92875 0
      vertex -2.9079 -6.36742 0
    endloop
  endfacet
  facet normal -0.281733 -0.959493 -0
    outer loop
      vertex -0.996203 -6.92875 0
      vertex -2.9079 -6.36742 -3
      vertex -0.996203 -6.92875 -3
    endloop
  endfacet
  facet normal 0.540641 -0.841254 0
    outer loop
      vertex 2.9079 -6.36742 -3
      vertex 4.58402 -5.29025 0
      vertex 2.9079 -6.36742 0
    endloop
  endfacet
  facet normal 0.540641 -0.841254 0
    outer loop
      vertex 4.58402 -5.29025 0
      vertex 2.9079 -6.36742 -3
      vertex 4.58402 -5.29025 -3
    endloop
  endfacet
  facet normal 0.281733 -0.959493 0
    outer loop
      vertex 0.996203 -6.92875 -3
      vertex 2.9079 -6.36742 0
      vertex 0.996203 -6.92875 0
    endloop
  endfacet
  facet normal 0.281733 -0.959493 0
    outer loop
      vertex 2.9079 -6.36742 0
      vertex 0.996203 -6.92875 -3
      vertex 2.9079 -6.36742 -3
    endloop
  endfacet
endsolid OpenSCAD_Model
