solid OpenSCAD_Model
  facet normal 0.866025 0.5 0
    outer loop
      vertex 17.3574 7.728 7.5
      vertex 15.3713 11.1679 -5
      vertex 15.3713 11.1679 7.5
    endloop
  endfacet
  facet normal 0.866025 0.5 0
    outer loop
      vertex 15.3713 11.1679 -5
      vertex 17.3574 7.728 7.5
      vertex 17.3574 7.728 -5
    endloop
  endfacet
  facet normal 0 1 -0
    outer loop
      vertex 1.98604 18.8959 -5
      vertex -1.98604 18.8959 7.5
      vertex 1.98604 18.8959 7.5
    endloop
  endfacet
  facet normal 0 1 0
    outer loop
      vertex -1.98604 18.8959 7.5
      vertex 1.98604 18.8959 -5
      vertex -1.98604 18.8959 -5
    endloop
  endfacet
  facet normal -0.951056 0.309017 0
    outer loop
      vertex -18.5848 3.95032 -5
      vertex -17.3574 7.728 7.5
      vertex -17.3574 7.728 -5
    endloop
  endfacet
  facet normal -0.951056 0.309017 0
    outer loop
      vertex -17.3574 7.728 7.5
      vertex -18.5848 3.95032 -5
      vertex -18.5848 3.95032 7.5
    endloop
  endfacet
  facet normal 0.743145 0.669131 0
    outer loop
      vertex 15.3713 11.1679 7.5
      vertex 12.7135 14.1198 -5
      vertex 12.7135 14.1198 7.5
    endloop
  endfacet
  facet normal 0.743145 0.669131 0
    outer loop
      vertex 12.7135 14.1198 -5
      vertex 15.3713 11.1679 7.5
      vertex 15.3713 11.1679 -5
    endloop
  endfacet
  facet normal 0.207912 0.978148 -0
    outer loop
      vertex 5.87132 18.0701 -5
      vertex 1.98604 18.8959 7.5
      vertex 5.87132 18.0701 7.5
    endloop
  endfacet
  facet normal 0.207912 0.978148 0
    outer loop
      vertex 1.98604 18.8959 7.5
      vertex 5.87132 18.0701 -5
      vertex 1.98604 18.8959 -5
    endloop
  endfacet
  facet normal -0.406736 0.913546 0
    outer loop
      vertex -5.87132 18.0701 -5
      vertex -9.5 16.4545 7.5
      vertex -5.87132 18.0701 7.5
    endloop
  endfacet
  facet normal -0.406736 0.913546 0
    outer loop
      vertex -9.5 16.4545 7.5
      vertex -5.87132 18.0701 -5
      vertex -9.5 16.4545 -5
    endloop
  endfacet
  facet normal -0.866025 0.5 0
    outer loop
      vertex -17.3574 7.728 -5
      vertex -15.3713 11.1679 7.5
      vertex -15.3713 11.1679 -5
    endloop
  endfacet
  facet normal -0.866025 0.5 0
    outer loop
      vertex -15.3713 11.1679 7.5
      vertex -17.3574 7.728 -5
      vertex -17.3574 7.728 7.5
    endloop
  endfacet
  facet normal 0.994522 -0.104528 0
    outer loop
      vertex 18.5848 -3.95032 7.5
      vertex 19 0 -5
      vertex 19 0 7.5
    endloop
  endfacet
  facet normal 0.994522 -0.104528 0
    outer loop
      vertex 19 0 -5
      vertex 18.5848 -3.95032 7.5
      vertex 18.5848 -3.95032 -5
    endloop
  endfacet
  facet normal 0.207912 -0.978148 0
    outer loop
      vertex 1.98604 -18.8959 -5
      vertex 5.87132 -18.0701 7.5
      vertex 1.98604 -18.8959 7.5
    endloop
  endfacet
  facet normal 0.207912 -0.978148 0
    outer loop
      vertex 5.87132 -18.0701 7.5
      vertex 1.98604 -18.8959 -5
      vertex 5.87132 -18.0701 -5
    endloop
  endfacet
  facet normal 0.587785 0.809017 -0
    outer loop
      vertex 12.7135 14.1198 -5
      vertex 9.5 16.4545 7.5
      vertex 12.7135 14.1198 7.5
    endloop
  endfacet
  facet normal 0.587785 0.809017 0
    outer loop
      vertex 9.5 16.4545 7.5
      vertex 12.7135 14.1198 -5
      vertex 9.5 16.4545 -5
    endloop
  endfacet
  facet normal 0.406736 0.913546 -0
    outer loop
      vertex 9.5 16.4545 -5
      vertex 5.87132 18.0701 7.5
      vertex 9.5 16.4545 7.5
    endloop
  endfacet
  facet normal 0.406736 0.913546 0
    outer loop
      vertex 5.87132 18.0701 7.5
      vertex 9.5 16.4545 -5
      vertex 5.87132 18.0701 -5
    endloop
  endfacet
  facet normal -0.994522 0.104528 0
    outer loop
      vertex -19 0 -5
      vertex -18.5848 3.95032 7.5
      vertex -18.5848 3.95032 -5
    endloop
  endfacet
  facet normal -0.994522 0.104528 0
    outer loop
      vertex -18.5848 3.95032 7.5
      vertex -19 0 -5
      vertex -19 0 7.5
    endloop
  endfacet
  facet normal -0.587785 0.809017 0
    outer loop
      vertex -9.5 16.4545 -5
      vertex -12.7135 14.1198 7.5
      vertex -9.5 16.4545 7.5
    endloop
  endfacet
  facet normal -0.587785 0.809017 0
    outer loop
      vertex -12.7135 14.1198 7.5
      vertex -9.5 16.4545 -5
      vertex -12.7135 14.1198 -5
    endloop
  endfacet
  facet normal -0.207912 0.978148 0
    outer loop
      vertex -1.98604 18.8959 -5
      vertex -5.87132 18.0701 7.5
      vertex -1.98604 18.8959 7.5
    endloop
  endfacet
  facet normal -0.207912 0.978148 0
    outer loop
      vertex -5.87132 18.0701 7.5
      vertex -1.98604 18.8959 -5
      vertex -5.87132 18.0701 -5
    endloop
  endfacet
  facet normal -0.743145 0.669131 0
    outer loop
      vertex -15.3713 11.1679 -5
      vertex -12.7135 14.1198 7.5
      vertex -12.7135 14.1198 -5
    endloop
  endfacet
  facet normal -0.743145 0.669131 0
    outer loop
      vertex -12.7135 14.1198 7.5
      vertex -15.3713 11.1679 -5
      vertex -15.3713 11.1679 7.5
    endloop
  endfacet
  facet normal 0.994522 0.104528 0
    outer loop
      vertex 19 0 7.5
      vertex 18.5848 3.95032 -5
      vertex 18.5848 3.95032 7.5
    endloop
  endfacet
  facet normal 0.994522 0.104528 0
    outer loop
      vertex 18.5848 3.95032 -5
      vertex 19 0 7.5
      vertex 19 0 -5
    endloop
  endfacet
  facet normal -0.866025 -0.5 0
    outer loop
      vertex -15.3713 -11.1679 -5
      vertex -17.3574 -7.728 7.5
      vertex -17.3574 -7.728 -5
    endloop
  endfacet
  facet normal -0.866025 -0.5 0
    outer loop
      vertex -17.3574 -7.728 7.5
      vertex -15.3713 -11.1679 -5
      vertex -15.3713 -11.1679 7.5
    endloop
  endfacet
  facet normal 0.587785 -0.809017 0
    outer loop
      vertex 9.5 -16.4545 -5
      vertex 12.7135 -14.1198 7.5
      vertex 9.5 -16.4545 7.5
    endloop
  endfacet
  facet normal 0.587785 -0.809017 0
    outer loop
      vertex 12.7135 -14.1198 7.5
      vertex 9.5 -16.4545 -5
      vertex 12.7135 -14.1198 -5
    endloop
  endfacet
  facet normal 0.951056 0.309017 0
    outer loop
      vertex 18.5848 3.95032 7.5
      vertex 17.3574 7.728 -5
      vertex 17.3574 7.728 7.5
    endloop
  endfacet
  facet normal 0.951056 0.309017 0
    outer loop
      vertex 17.3574 7.728 -5
      vertex 18.5848 3.95032 7.5
      vertex 18.5848 3.95032 -5
    endloop
  endfacet
  facet normal 0 0 1
    outer loop
      vertex 13.293 9.17581 0
      vertex 14.593 6.92416 0
      vertex 14.5059 8.375 0
    endloop
  endfacet
  facet normal 0 0 1
    outer loop
      vertex 14.593 6.92416 0
      vertex 13.293 9.17581 0
      vertex 14.0154 5.72466 0
    endloop
  endfacet
  facet normal 0 0 1
    outer loop
      vertex 11.9654 9.27533 0
      vertex 14.0154 5.72466 0
      vertex 13.293 9.17581 0
    endloop
  endfacet
  facet normal 0 0 1
    outer loop
      vertex 11.9654 9.27533 0
      vertex 10.4276 0 0
      vertex 14.0154 5.72466 0
    endloop
  endfacet
  facet normal 0 -0 1
    outer loop
      vertex 10.4276 0 0
      vertex 11.9654 9.27533 0
      vertex 5.21381 9.03055 0
    endloop
  endfacet
  facet normal 0 0 1
    outer loop
      vertex 13.293 -9.17581 0
      vertex 14.593 -6.92416 0
      vertex 14.0154 -5.72466 0
    endloop
  endfacet
  facet normal 0 0 1
    outer loop
      vertex 14.593 -6.92416 0
      vertex 13.293 -9.17581 0
      vertex 14.5059 -8.375 0
    endloop
  endfacet
  facet normal 0 0 1
    outer loop
      vertex 14.0154 -5.72466 0
      vertex 11.9654 -9.27533 0
      vertex 13.293 -9.17581 0
    endloop
  endfacet
  facet normal 0 0 1
    outer loop
      vertex 10.4276 0 0
      vertex 11.9654 -9.27533 0
      vertex 14.0154 -5.72466 0
    endloop
  endfacet
  facet normal 0 0 1
    outer loop
      vertex 5.21379 -9.03055 0
      vertex 10.4276 0 0
      vertex 5.21381 9.03055 0
    endloop
  endfacet
  facet normal 0 0 1
    outer loop
      vertex 10.4276 0 0
      vertex 5.21379 -9.03055 0
      vertex 11.9654 -9.27533 0
    endloop
  endfacet
  facet normal 0 0 1
    outer loop
      vertex -5.21381 9.03055 0
      vertex 5.21381 9.03055 0
      vertex 2.04999 15 0
    endloop
  endfacet
  facet normal 0 0 1
    outer loop
      vertex 5.21381 9.03055 0
      vertex -5.21381 9.03055 0
      vertex 5.21379 -9.03055 0
    endloop
  endfacet
  facet normal 0 0 1
    outer loop
      vertex -2.04999 15 0
      vertex 2.04999 15 0
      vertex 1.29999 16.1 0
    endloop
  endfacet
  facet normal 0 0 1
    outer loop
      vertex -5.21381 -9.03055 0
      vertex 5.21379 -9.03055 0
      vertex -5.21381 9.03055 0
    endloop
  endfacet
  facet normal 0 0 1
    outer loop
      vertex -1.29999 16.1 0
      vertex 1.29999 16.1 0
      vertex 0 16.75 0
    endloop
  endfacet
  facet normal 0 0 1
    outer loop
      vertex 5.21379 -9.03055 0
      vertex -5.21381 -9.03055 0
      vertex 2.04997 -15 0
    endloop
  endfacet
  facet normal 0 0 1
    outer loop
      vertex 1.29999 16.1 0
      vertex -1.29999 16.1 0
      vertex -2.04999 15 0
    endloop
  endfacet
  facet normal 0 0 1
    outer loop
      vertex 2.04999 15 0
      vertex -2.04999 15 0
      vertex -5.21381 9.03055 0
    endloop
  endfacet
  facet normal 0 -0 1
    outer loop
      vertex -2.04999 -15 0
      vertex 2.04997 -15 0
      vertex -5.21381 -9.03055 0
    endloop
  endfacet
  facet normal 0 0 1
    outer loop
      vertex 1.29997 -16.1 0
      vertex -1.29999 -16.1 0
      vertex 0 -16.75 0
    endloop
  endfacet
  facet normal 0 0 1
    outer loop
      vertex 2.04997 -15 0
      vertex -2.04999 -15 0
      vertex 1.29997 -16.1 0
    endloop
  endfacet
  facet normal 0 -0 1
    outer loop
      vertex -1.29999 -16.1 0
      vertex 1.29997 -16.1 0
      vertex -2.04999 -15 0
    endloop
  endfacet
  facet normal 0 0 1
    outer loop
      vertex -5.21381 9.03055 0
      vertex -10.4276 0 0
      vertex -5.21381 -9.03055 0
    endloop
  endfacet
  facet normal 0 0 1
    outer loop
      vertex -11.9654 9.27533 0
      vertex -10.4276 0 0
      vertex -5.21381 9.03055 0
    endloop
  endfacet
  facet normal 0 0 1
    outer loop
      vertex -14.0154 5.72466 0
      vertex -11.9654 9.27533 0
      vertex -13.293 9.17581 0
    endloop
  endfacet
  facet normal 0 0 1
    outer loop
      vertex -11.9654 9.27533 0
      vertex -14.0154 5.72466 0
      vertex -10.4276 0 0
    endloop
  endfacet
  facet normal 0 0 1
    outer loop
      vertex -14.593 6.92416 0
      vertex -13.293 9.17581 0
      vertex -14.5059 8.375 0
    endloop
  endfacet
  facet normal 0 0 1
    outer loop
      vertex -13.293 9.17581 0
      vertex -14.593 6.92416 0
      vertex -14.0154 5.72466 0
    endloop
  endfacet
  facet normal 0 0 1
    outer loop
      vertex -10.4276 0 0
      vertex -11.9654 -9.27533 0
      vertex -5.21381 -9.03055 0
    endloop
  endfacet
  facet normal -0 0 1
    outer loop
      vertex -14.0154 -5.72466 0
      vertex -11.9654 -9.27533 0
      vertex -10.4276 0 0
    endloop
  endfacet
  facet normal 0 0 1
    outer loop
      vertex -11.9654 -9.27533 0
      vertex -14.0154 -5.72466 0
      vertex -13.293 -9.17581 0
    endloop
  endfacet
  facet normal -0 0 1
    outer loop
      vertex -14.593 -6.92416 0
      vertex -13.293 -9.17581 0
      vertex -14.0154 -5.72466 0
    endloop
  endfacet
  facet normal 0 0 1
    outer loop
      vertex -13.293 -9.17581 0
      vertex -14.593 -6.92416 0
      vertex -14.5059 -8.37498 0
    endloop
  endfacet
  facet normal 0.866025 -0.5 0
    outer loop
      vertex 15.3713 -11.1679 7.5
      vertex 17.3574 -7.728 -5
      vertex 17.3574 -7.728 7.5
    endloop
  endfacet
  facet normal 0.866025 -0.5 0
    outer loop
      vertex 17.3574 -7.728 -5
      vertex 15.3713 -11.1679 7.5
      vertex 15.3713 -11.1679 -5
    endloop
  endfacet
  facet normal 0 -1 0
    outer loop
      vertex -1.98604 -18.8959 -5
      vertex 1.98604 -18.8959 7.5
      vertex -1.98604 -18.8959 7.5
    endloop
  endfacet
  facet normal 0 -1 -0
    outer loop
      vertex 1.98604 -18.8959 7.5
      vertex -1.98604 -18.8959 -5
      vertex 1.98604 -18.8959 -5
    endloop
  endfacet
  facet normal -0.994522 -0.104528 0
    outer loop
      vertex -18.5848 -3.95032 -5
      vertex -19 0 7.5
      vertex -19 0 -5
    endloop
  endfacet
  facet normal -0.994522 -0.104528 0
    outer loop
      vertex -19 0 7.5
      vertex -18.5848 -3.95032 -5
      vertex -18.5848 -3.95032 7.5
    endloop
  endfacet
  facet normal 0 0 -1
    outer loop
      vertex 2.5 -3.5 -5
      vertex 19 0 -5
      vertex 18.5848 -3.95032 -5
    endloop
  endfacet
  facet normal 0 0 -1
    outer loop
      vertex 2.5 -3.5 -5
      vertex 18.5848 -3.95032 -5
      vertex 17.3574 -7.728 -5
    endloop
  endfacet
  facet normal 0 0 -1
    outer loop
      vertex 2.5 3.5 -5
      vertex 19 0 -5
      vertex 2.5 -3.5 -5
    endloop
  endfacet
  facet normal 0 0 -1
    outer loop
      vertex 2.5 -3.5 -5
      vertex 17.3574 -7.728 -5
      vertex 15.3713 -11.1679 -5
    endloop
  endfacet
  facet normal 0 0 -1
    outer loop
      vertex 19 0 -5
      vertex 2.5 3.5 -5
      vertex 18.5848 3.95032 -5
    endloop
  endfacet
  facet normal 0 0 -1
    outer loop
      vertex 2.5 -3.5 -5
      vertex 15.3713 -11.1679 -5
      vertex 12.7135 -14.1198 -5
    endloop
  endfacet
  facet normal -0 0 -1
    outer loop
      vertex 18.5848 3.95032 -5
      vertex 2.5 3.5 -5
      vertex 17.3574 7.728 -5
    endloop
  endfacet
  facet normal 0 0 -1
    outer loop
      vertex 2.5 -3.5 -5
      vertex 12.7135 -14.1198 -5
      vertex 9.5 -16.4545 -5
    endloop
  endfacet
  facet normal -0 0 -1
    outer loop
      vertex 17.3574 7.728 -5
      vertex 2.5 3.5 -5
      vertex 15.3713 11.1679 -5
    endloop
  endfacet
  facet normal 0 0 -1
    outer loop
      vertex 2.5 -3.5 -5
      vertex 9.5 -16.4545 -5
      vertex 5.87132 -18.0701 -5
    endloop
  endfacet
  facet normal -0 0 -1
    outer loop
      vertex 15.3713 11.1679 -5
      vertex 2.5 3.5 -5
      vertex 12.7135 14.1198 -5
    endloop
  endfacet
  facet normal -0 0 -1
    outer loop
      vertex 12.7135 14.1198 -5
      vertex 2.5 3.5 -5
      vertex 9.5 16.4545 -5
    endloop
  endfacet
  facet normal 0 0 -1
    outer loop
      vertex 1.98604 -18.8959 -5
      vertex 2.5 -3.5 -5
      vertex 5.87132 -18.0701 -5
    endloop
  endfacet
  facet normal 0 0 -1
    outer loop
      vertex -1.98604 -18.8959 -5
      vertex 2.5 -3.5 -5
      vertex 1.98604 -18.8959 -5
    endloop
  endfacet
  facet normal 0 0 -1
    outer loop
      vertex -1.98604 -18.8959 -5
      vertex -2.5 -3.5 -5
      vertex 2.5 -3.5 -5
    endloop
  endfacet
  facet normal 0 0 -1
    outer loop
      vertex -9.5 -16.4545 -5
      vertex -2.5 -3.5 -5
      vertex -5.87132 -18.0701 -5
    endloop
  endfacet
  facet normal 0 0 -1
    outer loop
      vertex -5.87132 -18.0701 -5
      vertex -2.5 -3.5 -5
      vertex -1.98604 -18.8959 -5
    endloop
  endfacet
  facet normal -0 0 -1
    outer loop
      vertex 9.5 16.4545 -5
      vertex 2.5 3.5 -5
      vertex 5.87132 18.0701 -5
    endloop
  endfacet
  facet normal 0 0 -1
    outer loop
      vertex 2.5 3.5 -5
      vertex 1.98604 18.8959 -5
      vertex 5.87132 18.0701 -5
    endloop
  endfacet
  facet normal 0 0 -1
    outer loop
      vertex 2.5 3.5 -5
      vertex -1.98604 18.8959 -5
      vertex 1.98604 18.8959 -5
    endloop
  endfacet
  facet normal 0 0 -1
    outer loop
      vertex -2.5 3.5 -5
      vertex -1.98604 18.8959 -5
      vertex 2.5 3.5 -5
    endloop
  endfacet
  facet normal 0 0 -1
    outer loop
      vertex -12.7135 -14.1198 -5
      vertex -2.5 -3.5 -5
      vertex -9.5 -16.4545 -5
    endloop
  endfacet
  facet normal 0 0 -1
    outer loop
      vertex -2.5 3.5 -5
      vertex -5.87132 18.0701 -5
      vertex -1.98604 18.8959 -5
    endloop
  endfacet
  facet normal 0 0 -1
    outer loop
      vertex -2.5 3.5 -5
      vertex -9.5 16.4545 -5
      vertex -5.87132 18.0701 -5
    endloop
  endfacet
  facet normal 0 0 -1
    outer loop
      vertex -15.3713 -11.1679 -5
      vertex -2.5 -3.5 -5
      vertex -12.7135 -14.1198 -5
    endloop
  endfacet
  facet normal 0 0 -1
    outer loop
      vertex -17.3574 -7.728 -5
      vertex -2.5 -3.5 -5
      vertex -15.3713 -11.1679 -5
    endloop
  endfacet
  facet normal 0 0 -1
    outer loop
      vertex -2.5 3.5 -5
      vertex -12.7135 14.1198 -5
      vertex -9.5 16.4545 -5
    endloop
  endfacet
  facet normal 0 0 -1
    outer loop
      vertex -18.5848 -3.95032 -5
      vertex -2.5 -3.5 -5
      vertex -17.3574 -7.728 -5
    endloop
  endfacet
  facet normal 0 0 -1
    outer loop
      vertex -2.5 3.5 -5
      vertex -15.3713 11.1679 -5
      vertex -12.7135 14.1198 -5
    endloop
  endfacet
  facet normal 0 0 -1
    outer loop
      vertex -19 0 -5
      vertex -2.5 -3.5 -5
      vertex -18.5848 -3.95032 -5
    endloop
  endfacet
  facet normal 0 0 -1
    outer loop
      vertex -2.5 3.5 -5
      vertex -17.3574 7.728 -5
      vertex -15.3713 11.1679 -5
    endloop
  endfacet
  facet normal 0 0 -1
    outer loop
      vertex -2.5 -3.5 -5
      vertex -19 0 -5
      vertex -2.5 3.5 -5
    endloop
  endfacet
  facet normal 0 0 -1
    outer loop
      vertex -2.5 3.5 -5
      vertex -18.5848 3.95032 -5
      vertex -17.3574 7.728 -5
    endloop
  endfacet
  facet normal -0 0 -1
    outer loop
      vertex -2.5 3.5 -5
      vertex -19 0 -5
      vertex -18.5848 3.95032 -5
    endloop
  endfacet
  facet normal 0.406736 -0.913546 0
    outer loop
      vertex 5.87132 -18.0701 -5
      vertex 9.5 -16.4545 7.5
      vertex 5.87132 -18.0701 7.5
    endloop
  endfacet
  facet normal 0.406736 -0.913546 0
    outer loop
      vertex 9.5 -16.4545 7.5
      vertex 5.87132 -18.0701 -5
      vertex 9.5 -16.4545 -5
    endloop
  endfacet
  facet normal 0.951056 -0.309017 0
    outer loop
      vertex 17.3574 -7.728 7.5
      vertex 18.5848 -3.95032 -5
      vertex 18.5848 -3.95032 7.5
    endloop
  endfacet
  facet normal 0.951056 -0.309017 0
    outer loop
      vertex 18.5848 -3.95032 -5
      vertex 17.3574 -7.728 7.5
      vertex 17.3574 -7.728 -5
    endloop
  endfacet
  facet normal -0.951056 -0.309017 0
    outer loop
      vertex -17.3574 -7.728 -5
      vertex -18.5848 -3.95032 7.5
      vertex -18.5848 -3.95032 -5
    endloop
  endfacet
  facet normal -0.951056 -0.309017 0
    outer loop
      vertex -18.5848 -3.95032 7.5
      vertex -17.3574 -7.728 -5
      vertex -17.3574 -7.728 7.5
    endloop
  endfacet
  facet normal -0.743145 -0.669131 0
    outer loop
      vertex -12.7135 -14.1198 -5
      vertex -15.3713 -11.1679 7.5
      vertex -15.3713 -11.1679 -5
    endloop
  endfacet
  facet normal -0.743145 -0.669131 0
    outer loop
      vertex -15.3713 -11.1679 7.5
      vertex -12.7135 -14.1198 -5
      vertex -12.7135 -14.1198 7.5
    endloop
  endfacet
  facet normal 0.743145 -0.669131 0
    outer loop
      vertex 12.7135 -14.1198 7.5
      vertex 15.3713 -11.1679 -5
      vertex 15.3713 -11.1679 7.5
    endloop
  endfacet
  facet normal 0.743145 -0.669131 0
    outer loop
      vertex 15.3713 -11.1679 -5
      vertex 12.7135 -14.1198 7.5
      vertex 12.7135 -14.1198 -5
    endloop
  endfacet
  facet normal -0.406736 -0.913546 0
    outer loop
      vertex -9.5 -16.4545 -5
      vertex -5.87132 -18.0701 7.5
      vertex -9.5 -16.4545 7.5
    endloop
  endfacet
  facet normal -0.406736 -0.913546 -0
    outer loop
      vertex -5.87132 -18.0701 7.5
      vertex -9.5 -16.4545 -5
      vertex -5.87132 -18.0701 -5
    endloop
  endfacet
  facet normal -0.587785 -0.809017 0
    outer loop
      vertex -12.7135 -14.1198 -5
      vertex -9.5 -16.4545 7.5
      vertex -12.7135 -14.1198 7.5
    endloop
  endfacet
  facet normal -0.587785 -0.809017 -0
    outer loop
      vertex -9.5 -16.4545 7.5
      vertex -12.7135 -14.1198 -5
      vertex -9.5 -16.4545 -5
    endloop
  endfacet
  facet normal -0.207912 -0.978148 0
    outer loop
      vertex -5.87132 -18.0701 -5
      vertex -1.98604 -18.8959 7.5
      vertex -5.87132 -18.0701 7.5
    endloop
  endfacet
  facet normal -0.207912 -0.978148 -0
    outer loop
      vertex -1.98604 -18.8959 7.5
      vertex -5.87132 -18.0701 -5
      vertex -1.98604 -18.8959 -5
    endloop
  endfacet
  facet normal 1 -0 0
    outer loop
      vertex -2.5 -3.5 -2.01
      vertex -2.5 3.5 -5
      vertex -2.5 3.5 -2.01
    endloop
  endfacet
  facet normal 1 0 0
    outer loop
      vertex -2.5 3.5 -5
      vertex -2.5 -3.5 -2.01
      vertex -2.5 -3.5 -5
    endloop
  endfacet
  facet normal 0 0 -1
    outer loop
      vertex -2.5 -3.5 -2.01
      vertex 2.5 3.5 -2.01
      vertex 2.5 -3.5 -2.01
    endloop
  endfacet
  facet normal -0 0 -1
    outer loop
      vertex 2.5 3.5 -2.01
      vertex -2.5 -3.5 -2.01
      vertex -2.5 3.5 -2.01
    endloop
  endfacet
  facet normal -1 0 0
    outer loop
      vertex 2.5 -3.5 -5
      vertex 2.5 3.5 -2.01
      vertex 2.5 3.5 -5
    endloop
  endfacet
  facet normal -1 -0 0
    outer loop
      vertex 2.5 3.5 -2.01
      vertex 2.5 -3.5 -5
      vertex 2.5 -3.5 -2.01
    endloop
  endfacet
  facet normal 0 -1 0
    outer loop
      vertex -2.5 3.5 -5
      vertex 2.5 3.5 -2.01
      vertex -2.5 3.5 -2.01
    endloop
  endfacet
  facet normal 0 -1 -0
    outer loop
      vertex 2.5 3.5 -2.01
      vertex -2.5 3.5 -5
      vertex 2.5 3.5 -5
    endloop
  endfacet
  facet normal 0 1 -0
    outer loop
      vertex 2.5 -3.5 -5
      vertex -2.5 -3.5 -2.01
      vertex 2.5 -3.5 -2.01
    endloop
  endfacet
  facet normal 0 1 0
    outer loop
      vertex -2.5 -3.5 -2.01
      vertex 2.5 -3.5 -5
      vertex -2.5 -3.5 -5
    endloop
  endfacet
  facet normal 0 0 1
    outer loop
      vertex 10.4276 0 7.5
      vertex 19 0 7.5
      vertex 14.0154 5.72466 7.5
    endloop
  endfacet
  facet normal 0 0 1
    outer loop
      vertex 19 0 7.5
      vertex 14.0154 -5.72466 7.5
      vertex 14.593 -6.92416 7.5
    endloop
  endfacet
  facet normal 0 0 1
    outer loop
      vertex 19 0 7.5
      vertex 10.4276 0 7.5
      vertex 14.0154 -5.72466 7.5
    endloop
  endfacet
  facet normal -0 0 1
    outer loop
      vertex 14.0154 5.72466 7.5
      vertex 18.5848 3.95032 7.5
      vertex 14.593 6.92416 7.5
    endloop
  endfacet
  facet normal -0 0 1
    outer loop
      vertex 14.593 6.92416 7.5
      vertex 18.5848 3.95032 7.5
      vertex 17.3574 7.728 7.5
    endloop
  endfacet
  facet normal 0 0 1
    outer loop
      vertex 18.5848 3.95032 7.5
      vertex 14.0154 5.72466 7.5
      vertex 19 0 7.5
    endloop
  endfacet
  facet normal -0 0 1
    outer loop
      vertex 14.5059 8.375 7.5
      vertex 17.3574 7.728 7.5
      vertex 15.3713 11.1679 7.5
    endloop
  endfacet
  facet normal 0 0 1
    outer loop
      vertex 19 0 7.5
      vertex 14.593 -6.92416 7.5
      vertex 18.5848 -3.95032 7.5
    endloop
  endfacet
  facet normal 0 0 1
    outer loop
      vertex 18.5848 -3.95032 7.5
      vertex 14.593 -6.92416 7.5
      vertex 17.3574 -7.728 7.5
    endloop
  endfacet
  facet normal 0 0 1
    outer loop
      vertex 17.3574 7.728 7.5
      vertex 14.5059 8.375 7.5
      vertex 14.593 6.92416 7.5
    endloop
  endfacet
  facet normal 0 0 1
    outer loop
      vertex 15.3713 11.1679 7.5
      vertex 13.293 9.17581 7.5
      vertex 14.5059 8.375 7.5
    endloop
  endfacet
  facet normal 0 0 1
    outer loop
      vertex 12.7135 14.1198 7.5
      vertex 13.293 9.17581 7.5
      vertex 15.3713 11.1679 7.5
    endloop
  endfacet
  facet normal 0 0 1
    outer loop
      vertex 12.7135 14.1198 7.5
      vertex 11.9654 9.27533 7.5
      vertex 13.293 9.17581 7.5
    endloop
  endfacet
  facet normal 0 0 1
    outer loop
      vertex 9.5 16.4545 7.5
      vertex 11.9654 9.27533 7.5
      vertex 12.7135 14.1198 7.5
    endloop
  endfacet
  facet normal 0 0 1
    outer loop
      vertex 2.04999 15 7.5
      vertex 9.5 16.4545 7.5
      vertex 5.87132 18.0701 7.5
    endloop
  endfacet
  facet normal 0 0 1
    outer loop
      vertex 9.5 16.4545 7.5
      vertex 5.21381 9.03055 7.5
      vertex 11.9654 9.27533 7.5
    endloop
  endfacet
  facet normal 0 0 1
    outer loop
      vertex 9.5 16.4545 7.5
      vertex 2.04999 15 7.5
      vertex 5.21381 9.03055 7.5
    endloop
  endfacet
  facet normal 0 0 1
    outer loop
      vertex 1.29999 16.1 7.5
      vertex 5.87132 18.0701 7.5
      vertex 1.98604 18.8959 7.5
    endloop
  endfacet
  facet normal 0 0 1
    outer loop
      vertex 5.87132 18.0701 7.5
      vertex 1.29999 16.1 7.5
      vertex 2.04999 15 7.5
    endloop
  endfacet
  facet normal 0 0 1
    outer loop
      vertex 1.98604 18.8959 7.5
      vertex 0 16.75 7.5
      vertex 1.29999 16.1 7.5
    endloop
  endfacet
  facet normal -0 0 1
    outer loop
      vertex -1.98604 18.8959 7.5
      vertex 0 16.75 7.5
      vertex 1.98604 18.8959 7.5
    endloop
  endfacet
  facet normal 0 0 1
    outer loop
      vertex 0 16.75 7.5
      vertex -1.98604 18.8959 7.5
      vertex -1.29999 16.1 7.5
    endloop
  endfacet
  facet normal -0 0 1
    outer loop
      vertex -5.87132 18.0701 7.5
      vertex -1.29999 16.1 7.5
      vertex -1.98604 18.8959 7.5
    endloop
  endfacet
  facet normal 0 0 1
    outer loop
      vertex -1.29999 16.1 7.5
      vertex -5.87132 18.0701 7.5
      vertex -2.04999 15 7.5
    endloop
  endfacet
  facet normal -0 0 1
    outer loop
      vertex -9.5 16.4545 7.5
      vertex -2.04999 15 7.5
      vertex -5.87132 18.0701 7.5
    endloop
  endfacet
  facet normal 0 0 1
    outer loop
      vertex -2.04999 15 7.5
      vertex -9.5 16.4545 7.5
      vertex -5.21381 9.03055 7.5
    endloop
  endfacet
  facet normal 0 0 1
    outer loop
      vertex -9.5 16.4545 7.5
      vertex -11.9654 9.27533 7.5
      vertex -5.21381 9.03055 7.5
    endloop
  endfacet
  facet normal -0 0 1
    outer loop
      vertex -12.7135 14.1198 7.5
      vertex -11.9654 9.27533 7.5
      vertex -9.5 16.4545 7.5
    endloop
  endfacet
  facet normal 0 0 1
    outer loop
      vertex -12.7135 14.1198 7.5
      vertex -13.293 9.17581 7.5
      vertex -11.9654 9.27533 7.5
    endloop
  endfacet
  facet normal -0 0 1
    outer loop
      vertex -15.3713 11.1679 7.5
      vertex -13.293 9.17581 7.5
      vertex -12.7135 14.1198 7.5
    endloop
  endfacet
  facet normal 0 0 1
    outer loop
      vertex -14.5059 8.375 7.5
      vertex -17.3574 7.728 7.5
      vertex -14.593 6.92416 7.5
    endloop
  endfacet
  facet normal 0 0 1
    outer loop
      vertex -17.3574 7.728 7.5
      vertex -14.5059 8.375 7.5
      vertex -15.3713 11.1679 7.5
    endloop
  endfacet
  facet normal 0 0 1
    outer loop
      vertex -13.293 9.17581 7.5
      vertex -15.3713 11.1679 7.5
      vertex -14.5059 8.375 7.5
    endloop
  endfacet
  facet normal 0 0 1
    outer loop
      vertex 14.5059 -8.375 7.5
      vertex 17.3574 -7.728 7.5
      vertex 14.593 -6.92416 7.5
    endloop
  endfacet
  facet normal 0 0 1
    outer loop
      vertex 17.3574 -7.728 7.5
      vertex 14.5059 -8.375 7.5
      vertex 15.3713 -11.1679 7.5
    endloop
  endfacet
  facet normal -0 0 1
    outer loop
      vertex 13.293 -9.17581 7.5
      vertex 15.3713 -11.1679 7.5
      vertex 14.5059 -8.375 7.5
    endloop
  endfacet
  facet normal 0 0 1
    outer loop
      vertex 13.293 -9.17581 7.5
      vertex 12.7135 -14.1198 7.5
      vertex 15.3713 -11.1679 7.5
    endloop
  endfacet
  facet normal -0 0 1
    outer loop
      vertex 11.9654 -9.27533 7.5
      vertex 12.7135 -14.1198 7.5
      vertex 13.293 -9.17581 7.5
    endloop
  endfacet
  facet normal 0 0 1
    outer loop
      vertex 11.9654 -9.27533 7.5
      vertex 9.5 -16.4545 7.5
      vertex 12.7135 -14.1198 7.5
    endloop
  endfacet
  facet normal 0 0 1
    outer loop
      vertex 5.21379 -9.03055 7.5
      vertex 9.5 -16.4545 7.5
      vertex 11.9654 -9.27533 7.5
    endloop
  endfacet
  facet normal -0 0 1
    outer loop
      vertex 2.04997 -15 7.5
      vertex 9.5 -16.4545 7.5
      vertex 5.21379 -9.03055 7.5
    endloop
  endfacet
  facet normal 0 0 1
    outer loop
      vertex 9.5 -16.4545 7.5
      vertex 2.04997 -15 7.5
      vertex 5.87132 -18.0701 7.5
    endloop
  endfacet
  facet normal -0 0 1
    outer loop
      vertex 1.29997 -16.1 7.5
      vertex 5.87132 -18.0701 7.5
      vertex 2.04997 -15 7.5
    endloop
  endfacet
  facet normal 0 0 1
    outer loop
      vertex 5.87132 -18.0701 7.5
      vertex 1.29997 -16.1 7.5
      vertex 1.98604 -18.8959 7.5
    endloop
  endfacet
  facet normal -0 0 1
    outer loop
      vertex 0 -16.75 7.5
      vertex 1.98604 -18.8959 7.5
      vertex 1.29997 -16.1 7.5
    endloop
  endfacet
  facet normal 0 0 1
    outer loop
      vertex -1.98604 -18.8959 7.5
      vertex 0 -16.75 7.5
      vertex -1.29999 -16.1 7.5
    endloop
  endfacet
  facet normal 0 0 1
    outer loop
      vertex 0 -16.75 7.5
      vertex -1.98604 -18.8959 7.5
      vertex 1.98604 -18.8959 7.5
    endloop
  endfacet
  facet normal 0 0 1
    outer loop
      vertex -5.87132 -18.0701 7.5
      vertex -1.29999 -16.1 7.5
      vertex -2.04999 -15 7.5
    endloop
  endfacet
  facet normal 0 0 1
    outer loop
      vertex -9.5 -16.4545 7.5
      vertex -2.04999 -15 7.5
      vertex -5.21381 -9.03055 7.5
    endloop
  endfacet
  facet normal 0 0 1
    outer loop
      vertex -1.29999 -16.1 7.5
      vertex -5.87132 -18.0701 7.5
      vertex -1.98604 -18.8959 7.5
    endloop
  endfacet
  facet normal 0 0 1
    outer loop
      vertex -2.04999 -15 7.5
      vertex -9.5 -16.4545 7.5
      vertex -5.87132 -18.0701 7.5
    endloop
  endfacet
  facet normal -0 0 1
    outer loop
      vertex -11.9654 -9.27533 7.5
      vertex -9.5 -16.4545 7.5
      vertex -5.21381 -9.03055 7.5
    endloop
  endfacet
  facet normal 0 0 1
    outer loop
      vertex -11.9654 -9.27533 7.5
      vertex -12.7135 -14.1198 7.5
      vertex -9.5 -16.4545 7.5
    endloop
  endfacet
  facet normal 0 0 1
    outer loop
      vertex -13.293 -9.17581 7.5
      vertex -12.7135 -14.1198 7.5
      vertex -11.9654 -9.27533 7.5
    endloop
  endfacet
  facet normal 0 0 1
    outer loop
      vertex -15.3713 -11.1679 7.5
      vertex -13.293 -9.17581 7.5
      vertex -14.5059 -8.37498 7.5
    endloop
  endfacet
  facet normal 0 0 1
    outer loop
      vertex -13.293 -9.17581 7.5
      vertex -15.3713 -11.1679 7.5
      vertex -12.7135 -14.1198 7.5
    endloop
  endfacet
  facet normal -0 0 1
    outer loop
      vertex -17.3574 -7.728 7.5
      vertex -14.5059 -8.37498 7.5
      vertex -14.593 -6.92416 7.5
    endloop
  endfacet
  facet normal 0 0 1
    outer loop
      vertex -18.5848 3.95032 7.5
      vertex -14.593 6.92416 7.5
      vertex -17.3574 7.728 7.5
    endloop
  endfacet
  facet normal 0 0 1
    outer loop
      vertex -19 0 7.5
      vertex -14.593 6.92416 7.5
      vertex -18.5848 3.95032 7.5
    endloop
  endfacet
  facet normal 0 0 1
    outer loop
      vertex -14.5059 -8.37498 7.5
      vertex -17.3574 -7.728 7.5
      vertex -15.3713 -11.1679 7.5
    endloop
  endfacet
  facet normal 0 0 1
    outer loop
      vertex -14.593 6.92416 7.5
      vertex -19 0 7.5
      vertex -14.593 -6.92416 7.5
    endloop
  endfacet
  facet normal 0 0 1
    outer loop
      vertex -14.593 -6.92416 7.5
      vertex -18.5848 -3.95032 7.5
      vertex -17.3574 -7.728 7.5
    endloop
  endfacet
  facet normal 0 0 1
    outer loop
      vertex -14.593 -6.92416 7.5
      vertex -19 0 7.5
      vertex -18.5848 -3.95032 7.5
    endloop
  endfacet
  facet normal 0 0 1
    outer loop
      vertex -14.0154 5.72466 7.5
      vertex -14.0154 -5.72466 7.5
      vertex -10.4276 0 7.5
    endloop
  endfacet
  facet normal 0 0 1
    outer loop
      vertex -14.593 6.92416 7.5
      vertex -14.0154 -5.72466 7.5
      vertex -14.0154 5.72466 7.5
    endloop
  endfacet
  facet normal 0 0 1
    outer loop
      vertex -14.0154 -5.72466 7.5
      vertex -14.593 6.92416 7.5
      vertex -14.593 -6.92416 7.5
    endloop
  endfacet
  facet normal -0.826225 0.56334 0
    outer loop
      vertex 1.29997 -16.1 0
      vertex 2.04997 -15 7.5
      vertex 2.04997 -15 0
    endloop
  endfacet
  facet normal -0.826225 0.56334 0
    outer loop
      vertex 2.04997 -15 7.5
      vertex 1.29997 -16.1 0
      vertex 1.29997 -16.1 7.5
    endloop
  endfacet
  facet normal -0.883572 0.468295 0
    outer loop
      vertex 2.04997 -15 0
      vertex 5.21379 -9.03055 7.5
      vertex 5.21379 -9.03055 0
    endloop
  endfacet
  facet normal -0.883572 0.468295 0
    outer loop
      vertex 5.21379 -9.03055 7.5
      vertex 2.04997 -15 0
      vertex 2.04997 -15 7.5
    endloop
  endfacet
  facet normal 0.0362316 0.999343 -0
    outer loop
      vertex 11.9654 -9.27533 0
      vertex 5.21379 -9.03055 7.5
      vertex 11.9654 -9.27533 7.5
    endloop
  endfacet
  facet normal 0.0362316 0.999343 0
    outer loop
      vertex 5.21379 -9.03055 7.5
      vertex 11.9654 -9.27533 0
      vertex 5.21379 -9.03055 0
    endloop
  endfacet
  facet normal -0.0747498 0.997202 0
    outer loop
      vertex 13.293 -9.17581 0
      vertex 11.9654 -9.27533 7.5
      vertex 13.293 -9.17581 7.5
    endloop
  endfacet
  facet normal -0.0747498 0.997202 0
    outer loop
      vertex 11.9654 -9.27533 7.5
      vertex 13.293 -9.17581 0
      vertex 11.9654 -9.27533 0
    endloop
  endfacet
  facet normal -0.550978 0.83452 0
    outer loop
      vertex 14.5059 -8.375 0
      vertex 13.293 -9.17581 7.5
      vertex 14.5059 -8.375 7.5
    endloop
  endfacet
  facet normal -0.550978 0.83452 0
    outer loop
      vertex 13.293 -9.17581 7.5
      vertex 14.5059 -8.375 0
      vertex 13.293 -9.17581 0
    endloop
  endfacet
  facet normal -0.998204 0.0599036 0
    outer loop
      vertex 14.5059 -8.375 0
      vertex 14.593 -6.92416 7.5
      vertex 14.593 -6.92416 0
    endloop
  endfacet
  facet normal -0.998204 0.0599036 0
    outer loop
      vertex 14.593 -6.92416 7.5
      vertex 14.5059 -8.375 0
      vertex 14.5059 -8.375 7.5
    endloop
  endfacet
  facet normal -0.900978 -0.433865 0
    outer loop
      vertex 14.593 -6.92416 0
      vertex 14.0154 -5.72466 7.5
      vertex 14.0154 -5.72466 0
    endloop
  endfacet
  facet normal -0.900978 -0.433865 0
    outer loop
      vertex 14.0154 -5.72466 7.5
      vertex 14.593 -6.92416 0
      vertex 14.593 -6.92416 7.5
    endloop
  endfacet
  facet normal -0.847341 -0.53105 0
    outer loop
      vertex 14.0154 -5.72466 0
      vertex 10.4276 0 7.5
      vertex 10.4276 0 0
    endloop
  endfacet
  facet normal -0.847341 -0.53105 0
    outer loop
      vertex 10.4276 0 7.5
      vertex 14.0154 -5.72466 0
      vertex 14.0154 -5.72466 7.5
    endloop
  endfacet
  facet normal -0.847341 0.53105 0
    outer loop
      vertex 10.4276 0 0
      vertex 14.0154 5.72466 7.5
      vertex 14.0154 5.72466 0
    endloop
  endfacet
  facet normal -0.847341 0.53105 0
    outer loop
      vertex 14.0154 5.72466 7.5
      vertex 10.4276 0 0
      vertex 10.4276 0 7.5
    endloop
  endfacet
  facet normal -0.900978 0.433865 0
    outer loop
      vertex 14.0154 5.72466 0
      vertex 14.593 6.92416 7.5
      vertex 14.593 6.92416 0
    endloop
  endfacet
  facet normal -0.900978 0.433865 0
    outer loop
      vertex 14.593 6.92416 7.5
      vertex 14.0154 5.72466 0
      vertex 14.0154 5.72466 7.5
    endloop
  endfacet
  facet normal -0.998204 -0.0599036 0
    outer loop
      vertex 14.593 6.92416 0
      vertex 14.5059 8.375 7.5
      vertex 14.5059 8.375 0
    endloop
  endfacet
  facet normal -0.998204 -0.0599036 0
    outer loop
      vertex 14.5059 8.375 7.5
      vertex 14.593 6.92416 0
      vertex 14.593 6.92416 7.5
    endloop
  endfacet
  facet normal -0.550978 -0.83452 0
    outer loop
      vertex 13.293 9.17581 0
      vertex 14.5059 8.375 7.5
      vertex 13.293 9.17581 7.5
    endloop
  endfacet
  facet normal -0.550978 -0.83452 -0
    outer loop
      vertex 14.5059 8.375 7.5
      vertex 13.293 9.17581 0
      vertex 14.5059 8.375 0
    endloop
  endfacet
  facet normal -0.0747498 -0.997202 0
    outer loop
      vertex 11.9654 9.27533 0
      vertex 13.293 9.17581 7.5
      vertex 11.9654 9.27533 7.5
    endloop
  endfacet
  facet normal -0.0747498 -0.997202 -0
    outer loop
      vertex 13.293 9.17581 7.5
      vertex 11.9654 9.27533 0
      vertex 13.293 9.17581 0
    endloop
  endfacet
  facet normal 0.0362317 -0.999343 0
    outer loop
      vertex 5.21381 9.03055 0
      vertex 11.9654 9.27533 7.5
      vertex 5.21381 9.03055 7.5
    endloop
  endfacet
  facet normal 0.0362317 -0.999343 0
    outer loop
      vertex 11.9654 9.27533 7.5
      vertex 5.21381 9.03055 0
      vertex 11.9654 9.27533 0
    endloop
  endfacet
  facet normal -0.883572 -0.468295 0
    outer loop
      vertex 5.21381 9.03055 0
      vertex 2.04999 15 7.5
      vertex 2.04999 15 0
    endloop
  endfacet
  facet normal -0.883572 -0.468295 0
    outer loop
      vertex 2.04999 15 7.5
      vertex 5.21381 9.03055 0
      vertex 5.21381 9.03055 7.5
    endloop
  endfacet
  facet normal -0.826225 -0.56334 0
    outer loop
      vertex 2.04999 15 0
      vertex 1.29999 16.1 7.5
      vertex 1.29999 16.1 0
    endloop
  endfacet
  facet normal -0.826225 -0.56334 0
    outer loop
      vertex 1.29999 16.1 7.5
      vertex 2.04999 15 0
      vertex 2.04999 15 7.5
    endloop
  endfacet
  facet normal -0.447222 -0.894423 0
    outer loop
      vertex 0 16.75 0
      vertex 1.29999 16.1 7.5
      vertex 0 16.75 7.5
    endloop
  endfacet
  facet normal -0.447222 -0.894423 -0
    outer loop
      vertex 1.29999 16.1 7.5
      vertex 0 16.75 0
      vertex 1.29999 16.1 0
    endloop
  endfacet
  facet normal 0.447222 -0.894423 0
    outer loop
      vertex -1.29999 16.1 0
      vertex 0 16.75 7.5
      vertex -1.29999 16.1 7.5
    endloop
  endfacet
  facet normal 0.447222 -0.894423 0
    outer loop
      vertex 0 16.75 7.5
      vertex -1.29999 16.1 0
      vertex 0 16.75 0
    endloop
  endfacet
  facet normal 0.826225 -0.56334 0
    outer loop
      vertex -2.04999 15 7.5
      vertex -1.29999 16.1 0
      vertex -1.29999 16.1 7.5
    endloop
  endfacet
  facet normal 0.826225 -0.56334 0
    outer loop
      vertex -1.29999 16.1 0
      vertex -2.04999 15 7.5
      vertex -2.04999 15 0
    endloop
  endfacet
  facet normal 0.883572 -0.468295 0
    outer loop
      vertex -5.21381 9.03055 7.5
      vertex -2.04999 15 0
      vertex -2.04999 15 7.5
    endloop
  endfacet
  facet normal 0.883572 -0.468295 0
    outer loop
      vertex -2.04999 15 0
      vertex -5.21381 9.03055 7.5
      vertex -5.21381 9.03055 0
    endloop
  endfacet
  facet normal -0.0362317 -0.999343 0
    outer loop
      vertex -11.9654 9.27533 0
      vertex -5.21381 9.03055 7.5
      vertex -11.9654 9.27533 7.5
    endloop
  endfacet
  facet normal -0.0362317 -0.999343 -0
    outer loop
      vertex -5.21381 9.03055 7.5
      vertex -11.9654 9.27533 0
      vertex -5.21381 9.03055 0
    endloop
  endfacet
  facet normal 0.0747498 -0.997202 0
    outer loop
      vertex -13.293 9.17581 0
      vertex -11.9654 9.27533 7.5
      vertex -13.293 9.17581 7.5
    endloop
  endfacet
  facet normal 0.0747498 -0.997202 0
    outer loop
      vertex -11.9654 9.27533 7.5
      vertex -13.293 9.17581 0
      vertex -11.9654 9.27533 0
    endloop
  endfacet
  facet normal 0.550978 -0.83452 0
    outer loop
      vertex -14.5059 8.375 0
      vertex -13.293 9.17581 7.5
      vertex -14.5059 8.375 7.5
    endloop
  endfacet
  facet normal 0.550978 -0.83452 0
    outer loop
      vertex -13.293 9.17581 7.5
      vertex -14.5059 8.375 0
      vertex -13.293 9.17581 0
    endloop
  endfacet
  facet normal 0.998204 -0.0599036 0
    outer loop
      vertex -14.593 6.92416 7.5
      vertex -14.5059 8.375 0
      vertex -14.5059 8.375 7.5
    endloop
  endfacet
  facet normal 0.998204 -0.0599036 0
    outer loop
      vertex -14.5059 8.375 0
      vertex -14.593 6.92416 7.5
      vertex -14.593 6.92416 0
    endloop
  endfacet
  facet normal 0.900978 0.433865 0
    outer loop
      vertex -14.0154 5.72466 7.5
      vertex -14.593 6.92416 0
      vertex -14.593 6.92416 7.5
    endloop
  endfacet
  facet normal 0.900978 0.433865 0
    outer loop
      vertex -14.593 6.92416 0
      vertex -14.0154 5.72466 7.5
      vertex -14.0154 5.72466 0
    endloop
  endfacet
  facet normal 0.847341 0.53105 0
    outer loop
      vertex -10.4276 0 7.5
      vertex -14.0154 5.72466 0
      vertex -14.0154 5.72466 7.5
    endloop
  endfacet
  facet normal 0.847341 0.53105 0
    outer loop
      vertex -14.0154 5.72466 0
      vertex -10.4276 0 7.5
      vertex -10.4276 0 0
    endloop
  endfacet
  facet normal 0.847341 -0.53105 0
    outer loop
      vertex -14.0154 -5.72466 7.5
      vertex -10.4276 0 0
      vertex -10.4276 0 7.5
    endloop
  endfacet
  facet normal 0.847341 -0.53105 0
    outer loop
      vertex -10.4276 0 0
      vertex -14.0154 -5.72466 7.5
      vertex -14.0154 -5.72466 0
    endloop
  endfacet
  facet normal 0.900978 -0.433865 0
    outer loop
      vertex -14.593 -6.92416 7.5
      vertex -14.0154 -5.72466 0
      vertex -14.0154 -5.72466 7.5
    endloop
  endfacet
  facet normal 0.900978 -0.433865 0
    outer loop
      vertex -14.0154 -5.72466 0
      vertex -14.593 -6.92416 7.5
      vertex -14.593 -6.92416 0
    endloop
  endfacet
  facet normal 0.998204 0.0599042 0
    outer loop
      vertex -14.5059 -8.37498 7.5
      vertex -14.593 -6.92416 0
      vertex -14.593 -6.92416 7.5
    endloop
  endfacet
  facet normal 0.998204 0.0599042 0
    outer loop
      vertex -14.593 -6.92416 0
      vertex -14.5059 -8.37498 7.5
      vertex -14.5059 -8.37498 0
    endloop
  endfacet
  facet normal 0.550986 0.834515 -0
    outer loop
      vertex -13.293 -9.17581 0
      vertex -14.5059 -8.37498 7.5
      vertex -13.293 -9.17581 7.5
    endloop
  endfacet
  facet normal 0.550986 0.834515 0
    outer loop
      vertex -14.5059 -8.37498 7.5
      vertex -13.293 -9.17581 0
      vertex -14.5059 -8.37498 0
    endloop
  endfacet
  facet normal 0.0747498 0.997202 -0
    outer loop
      vertex -11.9654 -9.27533 0
      vertex -13.293 -9.17581 7.5
      vertex -11.9654 -9.27533 7.5
    endloop
  endfacet
  facet normal 0.0747498 0.997202 0
    outer loop
      vertex -13.293 -9.17581 7.5
      vertex -11.9654 -9.27533 0
      vertex -13.293 -9.17581 0
    endloop
  endfacet
  facet normal -0.0362317 0.999343 0
    outer loop
      vertex -5.21381 -9.03055 0
      vertex -11.9654 -9.27533 7.5
      vertex -5.21381 -9.03055 7.5
    endloop
  endfacet
  facet normal -0.0362317 0.999343 0
    outer loop
      vertex -11.9654 -9.27533 7.5
      vertex -5.21381 -9.03055 0
      vertex -11.9654 -9.27533 0
    endloop
  endfacet
  facet normal 0.883572 0.468295 0
    outer loop
      vertex -2.04999 -15 7.5
      vertex -5.21381 -9.03055 0
      vertex -5.21381 -9.03055 7.5
    endloop
  endfacet
  facet normal 0.883572 0.468295 0
    outer loop
      vertex -5.21381 -9.03055 0
      vertex -2.04999 -15 7.5
      vertex -2.04999 -15 0
    endloop
  endfacet
  facet normal 0.826225 0.56334 0
    outer loop
      vertex -1.29999 -16.1 7.5
      vertex -2.04999 -15 0
      vertex -2.04999 -15 7.5
    endloop
  endfacet
  facet normal 0.826225 0.56334 0
    outer loop
      vertex -2.04999 -15 0
      vertex -1.29999 -16.1 7.5
      vertex -1.29999 -16.1 0
    endloop
  endfacet
  facet normal 0.447222 0.894423 -0
    outer loop
      vertex 0 -16.75 0
      vertex -1.29999 -16.1 7.5
      vertex 0 -16.75 7.5
    endloop
  endfacet
  facet normal 0.447222 0.894423 0
    outer loop
      vertex -1.29999 -16.1 7.5
      vertex 0 -16.75 0
      vertex -1.29999 -16.1 0
    endloop
  endfacet
  facet normal -0.447226 0.894421 0
    outer loop
      vertex 1.29997 -16.1 0
      vertex 0 -16.75 7.5
      vertex 1.29997 -16.1 7.5
    endloop
  endfacet
  facet normal -0.447226 0.894421 0
    outer loop
      vertex 0 -16.75 7.5
      vertex 1.29997 -16.1 0
      vertex 0 -16.75 0
    endloop
  endfacet
endsolid OpenSCAD_Model
