solid OpenSCAD_Model
  facet normal 0.866025 0.5 0
    outer loop
      vertex 17.3574 7.728 7.5
      vertex 15.3713 11.1679 -2
      vertex 15.3713 11.1679 7.5
    endloop
  endfacet
  facet normal 0.866025 0.5 0
    outer loop
      vertex 15.3713 11.1679 -2
      vertex 17.3574 7.728 7.5
      vertex 17.3574 7.728 -2
    endloop
  endfacet
  facet normal 0 1 -0
    outer loop
      vertex 1.98604 18.8959 -2
      vertex -1.98604 18.8959 7.5
      vertex 1.98604 18.8959 7.5
    endloop
  endfacet
  facet normal 0 1 0
    outer loop
      vertex -1.98604 18.8959 7.5
      vertex 1.98604 18.8959 -2
      vertex -1.98604 18.8959 -2
    endloop
  endfacet
  facet normal 0.743145 0.669131 0
    outer loop
      vertex 15.3713 11.1679 7.5
      vertex 12.7135 14.1198 -2
      vertex 12.7135 14.1198 7.5
    endloop
  endfacet
  facet normal 0.743145 0.669131 0
    outer loop
      vertex 12.7135 14.1198 -2
      vertex 15.3713 11.1679 7.5
      vertex 15.3713 11.1679 -2
    endloop
  endfacet
  facet normal 0.207912 0.978148 -0
    outer loop
      vertex 5.87132 18.0701 -2
      vertex 1.98604 18.8959 7.5
      vertex 5.87132 18.0701 7.5
    endloop
  endfacet
  facet normal 0.207912 0.978148 0
    outer loop
      vertex 1.98604 18.8959 7.5
      vertex 5.87132 18.0701 -2
      vertex 1.98604 18.8959 -2
    endloop
  endfacet
  facet normal -0.406736 0.913546 0
    outer loop
      vertex -5.87132 18.0701 -2
      vertex -9.5 16.4545 7.5
      vertex -5.87132 18.0701 7.5
    endloop
  endfacet
  facet normal -0.406736 0.913546 0
    outer loop
      vertex -9.5 16.4545 7.5
      vertex -5.87132 18.0701 -2
      vertex -9.5 16.4545 -2
    endloop
  endfacet
  facet normal -0.866025 0.5 0
    outer loop
      vertex -17.3574 7.728 -2
      vertex -15.3713 11.1679 7.5
      vertex -15.3713 11.1679 -2
    endloop
  endfacet
  facet normal -0.866025 0.5 0
    outer loop
      vertex -15.3713 11.1679 7.5
      vertex -17.3574 7.728 -2
      vertex -17.3574 7.728 7.5
    endloop
  endfacet
  facet normal 0.994522 -0.104529 0
    outer loop
      vertex 19 0 7.5
      vertex 18.65 -3.33002 5.05
      vertex 19 0 5.05
    endloop
  endfacet
  facet normal 0.994522 -0.104527 0
    outer loop
      vertex 18.5848 -3.95032 -2
      vertex 18.65 -3.33002 5.05
      vertex 18.5848 -3.95032 7.5
    endloop
  endfacet
  facet normal 0.994522 -0.104528 -3.24711e-07
    outer loop
      vertex 18.5848 -3.95032 7.5
      vertex 18.65 -3.33002 5.05
      vertex 19 0 7.5
    endloop
  endfacet
  facet normal 0.994522 -0.104529 0
    outer loop
      vertex 18.65 -3.33002 0.349999
      vertex 19 0 -2
      vertex 19 0 0.349999
    endloop
  endfacet
  facet normal 0.994522 -0.104528 3.38529e-07
    outer loop
      vertex 18.65 -3.33002 0.349999
      vertex 18.5848 -3.95032 -2
      vertex 19 0 -2
    endloop
  endfacet
  facet normal 0.994522 -0.104527 0
    outer loop
      vertex 18.65 -3.33002 5.05
      vertex 18.5848 -3.95032 -2
      vertex 18.65 -3.33002 0.349999
    endloop
  endfacet
  facet normal 0.207912 -0.978148 0
    outer loop
      vertex 1.98604 -18.8959 -2
      vertex 5.87132 -18.0701 7.5
      vertex 1.98604 -18.8959 7.5
    endloop
  endfacet
  facet normal 0.207912 -0.978148 0
    outer loop
      vertex 5.87132 -18.0701 7.5
      vertex 1.98604 -18.8959 -2
      vertex 5.87132 -18.0701 -2
    endloop
  endfacet
  facet normal 0.587785 0.809017 -0
    outer loop
      vertex 12.7135 14.1198 -2
      vertex 9.5 16.4545 7.5
      vertex 12.7135 14.1198 7.5
    endloop
  endfacet
  facet normal 0.587785 0.809017 0
    outer loop
      vertex 9.5 16.4545 7.5
      vertex 12.7135 14.1198 -2
      vertex 9.5 16.4545 -2
    endloop
  endfacet
  facet normal 0.406736 0.913546 -0
    outer loop
      vertex 9.5 16.4545 -2
      vertex 5.87132 18.0701 7.5
      vertex 9.5 16.4545 7.5
    endloop
  endfacet
  facet normal 0.406736 0.913546 0
    outer loop
      vertex 5.87132 18.0701 7.5
      vertex 9.5 16.4545 -2
      vertex 5.87132 18.0701 -2
    endloop
  endfacet
  facet normal -0.994522 0.104528 0
    outer loop
      vertex -19 0 -2
      vertex -18.5848 3.95032 7.5
      vertex -18.5848 3.95032 -2
    endloop
  endfacet
  facet normal -0.994522 0.104528 0
    outer loop
      vertex -18.5848 3.95032 7.5
      vertex -19 0 -2
      vertex -19 0 7.5
    endloop
  endfacet
  facet normal -0.587785 0.809017 0
    outer loop
      vertex -9.5 16.4545 -2
      vertex -12.7135 14.1198 7.5
      vertex -9.5 16.4545 7.5
    endloop
  endfacet
  facet normal -0.587785 0.809017 0
    outer loop
      vertex -12.7135 14.1198 7.5
      vertex -9.5 16.4545 -2
      vertex -12.7135 14.1198 -2
    endloop
  endfacet
  facet normal -0.207912 0.978148 0
    outer loop
      vertex -1.98604 18.8959 -2
      vertex -5.87132 18.0701 7.5
      vertex -1.98604 18.8959 7.5
    endloop
  endfacet
  facet normal -0.207912 0.978148 0
    outer loop
      vertex -5.87132 18.0701 7.5
      vertex -1.98604 18.8959 -2
      vertex -5.87132 18.0701 -2
    endloop
  endfacet
  facet normal -0.743145 0.669131 0
    outer loop
      vertex -15.3713 11.1679 -2
      vertex -12.7135 14.1198 7.5
      vertex -12.7135 14.1198 -2
    endloop
  endfacet
  facet normal -0.743145 0.669131 0
    outer loop
      vertex -12.7135 14.1198 7.5
      vertex -15.3713 11.1679 -2
      vertex -15.3713 11.1679 7.5
    endloop
  endfacet
  facet normal 0.994522 0.104527 0
    outer loop
      vertex 18.5848 3.95032 7.5
      vertex 18.65 3.33002 5.05
      vertex 18.5848 3.95032 -2
    endloop
  endfacet
  facet normal 0.994522 0.104528 -3.24711e-07
    outer loop
      vertex 19 0 7.5
      vertex 18.65 3.33002 5.05
      vertex 18.5848 3.95032 7.5
    endloop
  endfacet
  facet normal 0.994522 0.104529 0
    outer loop
      vertex 18.65 3.33002 5.05
      vertex 19 0 7.5
      vertex 19 0 5.05
    endloop
  endfacet
  facet normal 0.994522 0.104527 -0
    outer loop
      vertex 18.65 3.33002 0.349999
      vertex 18.5848 3.95032 -2
      vertex 18.65 3.33002 5.05
    endloop
  endfacet
  facet normal 0.994522 0.104529 -0
    outer loop
      vertex 19 0 -2
      vertex 18.65 3.33002 0.349999
      vertex 19 0 0.349999
    endloop
  endfacet
  facet normal 0.994522 0.104528 3.38529e-07
    outer loop
      vertex 18.65 3.33002 0.349999
      vertex 19 0 -2
      vertex 18.5848 3.95032 -2
    endloop
  endfacet
  facet normal -0.866025 -0.5 0
    outer loop
      vertex -15.3713 -11.1679 -2
      vertex -17.3574 -7.728 7.5
      vertex -17.3574 -7.728 -2
    endloop
  endfacet
  facet normal -0.866025 -0.5 0
    outer loop
      vertex -17.3574 -7.728 7.5
      vertex -15.3713 -11.1679 -2
      vertex -15.3713 -11.1679 7.5
    endloop
  endfacet
  facet normal 0.587785 -0.809017 0
    outer loop
      vertex 9.5 -16.4545 -2
      vertex 12.7135 -14.1198 7.5
      vertex 9.5 -16.4545 7.5
    endloop
  endfacet
  facet normal 0.587785 -0.809017 0
    outer loop
      vertex 12.7135 -14.1198 7.5
      vertex 9.5 -16.4545 -2
      vertex 12.7135 -14.1198 -2
    endloop
  endfacet
  facet normal 0.951056 0.309017 0
    outer loop
      vertex 18.5848 3.95032 7.5
      vertex 17.3574 7.728 -2
      vertex 17.3574 7.728 7.5
    endloop
  endfacet
  facet normal 0.951056 0.309017 0
    outer loop
      vertex 17.3574 7.728 -2
      vertex 18.5848 3.95032 7.5
      vertex 18.5848 3.95032 -2
    endloop
  endfacet
  facet normal 0 0 1
    outer loop
      vertex 8.90823 0 7.5
      vertex 19 0 7.5
      vertex 14.0154 5.72466 7.5
    endloop
  endfacet
  facet normal 0 0 1
    outer loop
      vertex 19 0 7.5
      vertex 14.0154 -5.72466 7.5
      vertex 14.1399 -7.00897 7.5
    endloop
  endfacet
  facet normal 0 0 1
    outer loop
      vertex 19 0 7.5
      vertex 8.90823 0 7.5
      vertex 14.0154 -5.72466 7.5
    endloop
  endfacet
  facet normal 0 0 1
    outer loop
      vertex 17.3574 7.728 7.5
      vertex 14.0154 5.72466 7.5
      vertex 18.5848 3.95032 7.5
    endloop
  endfacet
  facet normal 0 0 1
    outer loop
      vertex 14.0154 5.72466 7.5
      vertex 17.3574 7.728 7.5
      vertex 14.1399 7.00897 7.5
    endloop
  endfacet
  facet normal 0 0 1
    outer loop
      vertex 18.5848 3.95032 7.5
      vertex 14.0154 5.72466 7.5
      vertex 19 0 7.5
    endloop
  endfacet
  facet normal -0 0 1
    outer loop
      vertex 13.8997 8.02499 7.5
      vertex 17.3574 7.728 7.5
      vertex 15.3713 11.1679 7.5
    endloop
  endfacet
  facet normal 0 0 1
    outer loop
      vertex 19 0 7.5
      vertex 14.1399 -7.00897 7.5
      vertex 18.5848 -3.95032 7.5
    endloop
  endfacet
  facet normal 0 0 1
    outer loop
      vertex 18.5848 -3.95032 7.5
      vertex 14.1399 -7.00897 7.5
      vertex 17.3574 -7.728 7.5
    endloop
  endfacet
  facet normal 0 0 1
    outer loop
      vertex 17.3574 7.728 7.5
      vertex 13.8997 8.02499 7.5
      vertex 14.1399 7.00897 7.5
    endloop
  endfacet
  facet normal 0 0 1
    outer loop
      vertex 15.3713 11.1679 7.5
      vertex 13.1399 8.74101 7.5
      vertex 13.8997 8.02499 7.5
    endloop
  endfacet
  facet normal 0 0 1
    outer loop
      vertex 11.9654 9.27533 7.5
      vertex 15.3713 11.1679 7.5
      vertex 12.7135 14.1198 7.5
    endloop
  endfacet
  facet normal 0 0 1
    outer loop
      vertex 15.3713 11.1679 7.5
      vertex 11.9654 9.27533 7.5
      vertex 13.1399 8.74101 7.5
    endloop
  endfacet
  facet normal 0 0 1
    outer loop
      vertex 9.5 16.4545 7.5
      vertex 11.9654 9.27533 7.5
      vertex 12.7135 14.1198 7.5
    endloop
  endfacet
  facet normal 0 0 1
    outer loop
      vertex 2.04999 15 7.5
      vertex 9.5 16.4545 7.5
      vertex 5.87132 18.0701 7.5
    endloop
  endfacet
  facet normal 0 0 1
    outer loop
      vertex 9.5 16.4545 7.5
      vertex 4.45413 7.71475 7.5
      vertex 11.9654 9.27533 7.5
    endloop
  endfacet
  facet normal 0 0 1
    outer loop
      vertex 9.5 16.4545 7.5
      vertex 2.04999 15 7.5
      vertex 4.45413 7.71475 7.5
    endloop
  endfacet
  facet normal 0 0 1
    outer loop
      vertex 1.98604 18.8959 7.5
      vertex 2.04999 15 7.5
      vertex 5.87132 18.0701 7.5
    endloop
  endfacet
  facet normal 0 0 1
    outer loop
      vertex 1.98604 18.8959 7.5
      vertex 1 15.75 7.5
      vertex 2.04999 15 7.5
    endloop
  endfacet
  facet normal 0 0 1
    outer loop
      vertex 1.98604 18.8959 7.5
      vertex 0 16.05 7.5
      vertex 1 15.75 7.5
    endloop
  endfacet
  facet normal -0 0 1
    outer loop
      vertex -1.98604 18.8959 7.5
      vertex 0 16.05 7.5
      vertex 1.98604 18.8959 7.5
    endloop
  endfacet
  facet normal 0 0 1
    outer loop
      vertex 0 16.05 7.5
      vertex -1.98604 18.8959 7.5
      vertex -1 15.75 7.5
    endloop
  endfacet
  facet normal 0 0 1
    outer loop
      vertex -1.98604 18.8959 7.5
      vertex -2.04999 15 7.5
      vertex -1 15.75 7.5
    endloop
  endfacet
  facet normal -0 0 1
    outer loop
      vertex -5.87132 18.0701 7.5
      vertex -2.04999 15 7.5
      vertex -1.98604 18.8959 7.5
    endloop
  endfacet
  facet normal -0 0 1
    outer loop
      vertex -9.5 16.4545 7.5
      vertex -2.04999 15 7.5
      vertex -5.87132 18.0701 7.5
    endloop
  endfacet
  facet normal 0 0 1
    outer loop
      vertex -2.04999 15 7.5
      vertex -9.5 16.4545 7.5
      vertex -4.45413 7.71475 7.5
    endloop
  endfacet
  facet normal 0 0 1
    outer loop
      vertex -9.5 16.4545 7.5
      vertex -11.9654 9.27533 7.5
      vertex -4.45413 7.71475 7.5
    endloop
  endfacet
  facet normal -0 0 1
    outer loop
      vertex -12.7135 14.1198 7.5
      vertex -11.9654 9.27533 7.5
      vertex -9.5 16.4545 7.5
    endloop
  endfacet
  facet normal -0 0 1
    outer loop
      vertex -15.3713 11.1679 7.5
      vertex -11.9654 9.27533 7.5
      vertex -12.7135 14.1198 7.5
    endloop
  endfacet
  facet normal 0 0 1
    outer loop
      vertex -11.9654 9.27533 7.5
      vertex -15.3713 11.1679 7.5
      vertex -13.1399 8.74101 7.5
    endloop
  endfacet
  facet normal 0 0 1
    outer loop
      vertex -13.1399 8.74101 7.5
      vertex -15.3713 11.1679 7.5
      vertex -13.8997 8.02499 7.5
    endloop
  endfacet
  facet normal 0 0 1
    outer loop
      vertex -18.5848 3.95032 7.5
      vertex -14.0154 5.72466 7.5
      vertex -17.3574 7.728 7.5
    endloop
  endfacet
  facet normal 0 0 1
    outer loop
      vertex -17.3574 7.728 7.5
      vertex -13.8997 8.02499 7.5
      vertex -15.3713 11.1679 7.5
    endloop
  endfacet
  facet normal 0 0 1
    outer loop
      vertex 13.8997 -8.02499 7.5
      vertex 17.3574 -7.728 7.5
      vertex 14.1399 -7.00897 7.5
    endloop
  endfacet
  facet normal 0 0 1
    outer loop
      vertex 17.3574 -7.728 7.5
      vertex 13.8997 -8.02499 7.5
      vertex 15.3713 -11.1679 7.5
    endloop
  endfacet
  facet normal -0 0 1
    outer loop
      vertex 13.1399 -8.74101 7.5
      vertex 15.3713 -11.1679 7.5
      vertex 13.8997 -8.02499 7.5
    endloop
  endfacet
  facet normal -0 0 1
    outer loop
      vertex 11.9654 -9.27533 7.5
      vertex 15.3713 -11.1679 7.5
      vertex 13.1399 -8.74101 7.5
    endloop
  endfacet
  facet normal 0 0 1
    outer loop
      vertex 15.3713 -11.1679 7.5
      vertex 11.9654 -9.27533 7.5
      vertex 12.7135 -14.1198 7.5
    endloop
  endfacet
  facet normal 0 0 1
    outer loop
      vertex 11.9654 -9.27533 7.5
      vertex 9.5 -16.4545 7.5
      vertex 12.7135 -14.1198 7.5
    endloop
  endfacet
  facet normal 0 0 1
    outer loop
      vertex 4.45412 -7.71475 7.5
      vertex 9.5 -16.4545 7.5
      vertex 11.9654 -9.27533 7.5
    endloop
  endfacet
  facet normal -0 0 1
    outer loop
      vertex 2.04997 -15 7.5
      vertex 9.5 -16.4545 7.5
      vertex 4.45412 -7.71475 7.5
    endloop
  endfacet
  facet normal 0 0 1
    outer loop
      vertex 9.5 -16.4545 7.5
      vertex 2.04997 -15 7.5
      vertex 5.87132 -18.0701 7.5
    endloop
  endfacet
  facet normal 0 0 1
    outer loop
      vertex 2.04997 -15 7.5
      vertex 1.98604 -18.8959 7.5
      vertex 5.87132 -18.0701 7.5
    endloop
  endfacet
  facet normal -0 0 1
    outer loop
      vertex 0.999985 -15.75 7.5
      vertex 1.98604 -18.8959 7.5
      vertex 2.04997 -15 7.5
    endloop
  endfacet
  facet normal -0 0 1
    outer loop
      vertex 0 -16.05 7.5
      vertex 1.98604 -18.8959 7.5
      vertex 0.999985 -15.75 7.5
    endloop
  endfacet
  facet normal 0 0 1
    outer loop
      vertex -1.98604 -18.8959 7.5
      vertex 0 -16.05 7.5
      vertex -1 -15.75 7.5
    endloop
  endfacet
  facet normal 0 0 1
    outer loop
      vertex 0 -16.05 7.5
      vertex -1.98604 -18.8959 7.5
      vertex 1.98604 -18.8959 7.5
    endloop
  endfacet
  facet normal 0 0 1
    outer loop
      vertex -2.04999 -15 7.5
      vertex -1.98604 -18.8959 7.5
      vertex -1 -15.75 7.5
    endloop
  endfacet
  facet normal 0 0 1
    outer loop
      vertex -9.5 -16.4545 7.5
      vertex -2.04999 -15 7.5
      vertex -4.45413 -7.71475 7.5
    endloop
  endfacet
  facet normal 0 0 1
    outer loop
      vertex -2.04999 -15 7.5
      vertex -5.87132 -18.0701 7.5
      vertex -1.98604 -18.8959 7.5
    endloop
  endfacet
  facet normal 0 0 1
    outer loop
      vertex -2.04999 -15 7.5
      vertex -9.5 -16.4545 7.5
      vertex -5.87132 -18.0701 7.5
    endloop
  endfacet
  facet normal -0 0 1
    outer loop
      vertex -11.9654 -9.27533 7.5
      vertex -9.5 -16.4545 7.5
      vertex -4.45413 -7.71475 7.5
    endloop
  endfacet
  facet normal 0 0 1
    outer loop
      vertex -11.9654 -9.27533 7.5
      vertex -12.7135 -14.1198 7.5
      vertex -9.5 -16.4545 7.5
    endloop
  endfacet
  facet normal 0 0 1
    outer loop
      vertex -15.3713 -11.1679 7.5
      vertex -11.9654 -9.27533 7.5
      vertex -13.1399 -8.74101 7.5
    endloop
  endfacet
  facet normal 0 0 1
    outer loop
      vertex -15.3713 -11.1679 7.5
      vertex -13.1399 -8.74101 7.5
      vertex -13.8997 -8.02498 7.5
    endloop
  endfacet
  facet normal -0 0 1
    outer loop
      vertex -17.3574 -7.728 7.5
      vertex -13.8997 -8.02498 7.5
      vertex -14.1399 -7.00897 7.5
    endloop
  endfacet
  facet normal 0 0 1
    outer loop
      vertex -11.9654 -9.27533 7.5
      vertex -15.3713 -11.1679 7.5
      vertex -12.7135 -14.1198 7.5
    endloop
  endfacet
  facet normal 0 0 1
    outer loop
      vertex -19 0 7.5
      vertex -14.0154 5.72466 7.5
      vertex -18.5848 3.95032 7.5
    endloop
  endfacet
  facet normal 0 0 1
    outer loop
      vertex -14.0154 5.72466 7.5
      vertex -19 0 7.5
      vertex -14.0154 -5.72466 7.5
    endloop
  endfacet
  facet normal 0 0 1
    outer loop
      vertex -13.8997 -8.02498 7.5
      vertex -17.3574 -7.728 7.5
      vertex -15.3713 -11.1679 7.5
    endloop
  endfacet
  facet normal -0 -0 1
    outer loop
      vertex -18.5848 -3.95032 7.5
      vertex -14.0154 -5.72466 7.5
      vertex -19 0 7.5
    endloop
  endfacet
  facet normal 0 0 1
    outer loop
      vertex -14.0154 -5.72466 7.5
      vertex -17.3574 -7.728 7.5
      vertex -14.1399 -7.00897 7.5
    endloop
  endfacet
  facet normal 0 -0 1
    outer loop
      vertex -17.3574 -7.728 7.5
      vertex -14.0154 -5.72466 7.5
      vertex -18.5848 -3.95032 7.5
    endloop
  endfacet
  facet normal 0 0 1
    outer loop
      vertex -14.0154 5.72466 7.5
      vertex -14.0154 -5.72466 7.5
      vertex -8.90823 0 7.5
    endloop
  endfacet
  facet normal 0 0 1
    outer loop
      vertex -13.8997 8.02499 7.5
      vertex -17.3574 7.728 7.5
      vertex -14.1399 7.00897 7.5
    endloop
  endfacet
  facet normal 0 0 1
    outer loop
      vertex -14.1399 7.00897 7.5
      vertex -17.3574 7.728 7.5
      vertex -14.0154 5.72466 7.5
    endloop
  endfacet
  facet normal -0.951056 0.309017 0
    outer loop
      vertex -18.5848 3.95032 -2
      vertex -17.3574 7.728 7.5
      vertex -17.3574 7.728 -2
    endloop
  endfacet
  facet normal -0.951056 0.309017 0
    outer loop
      vertex -17.3574 7.728 7.5
      vertex -18.5848 3.95032 -2
      vertex -18.5848 3.95032 7.5
    endloop
  endfacet
  facet normal 0.866025 -0.5 0
    outer loop
      vertex 15.3713 -11.1679 7.5
      vertex 17.3574 -7.728 -2
      vertex 17.3574 -7.728 7.5
    endloop
  endfacet
  facet normal 0.866025 -0.5 0
    outer loop
      vertex 17.3574 -7.728 -2
      vertex 15.3713 -11.1679 7.5
      vertex 15.3713 -11.1679 -2
    endloop
  endfacet
  facet normal 0 -1 0
    outer loop
      vertex -1.98604 -18.8959 -2
      vertex 1.98604 -18.8959 7.5
      vertex -1.98604 -18.8959 7.5
    endloop
  endfacet
  facet normal 0 -1 -0
    outer loop
      vertex 1.98604 -18.8959 7.5
      vertex -1.98604 -18.8959 -2
      vertex 1.98604 -18.8959 -2
    endloop
  endfacet
  facet normal 0 0 1
    outer loop
      vertex 13.1399 8.74101 0
      vertex 14.1399 7.00897 0
      vertex 13.8997 8.02499 0
    endloop
  endfacet
  facet normal 0 0 1
    outer loop
      vertex 14.1399 7.00897 0
      vertex 13.1399 8.74101 0
      vertex 14.0154 5.72466 0
    endloop
  endfacet
  facet normal 0 0 1
    outer loop
      vertex 11.9654 9.27533 0
      vertex 14.0154 5.72466 0
      vertex 13.1399 8.74101 0
    endloop
  endfacet
  facet normal 0 0 1
    outer loop
      vertex 11.9654 9.27533 0
      vertex 8.90823 0 0
      vertex 14.0154 5.72466 0
    endloop
  endfacet
  facet normal 0 -0 1
    outer loop
      vertex 8.90823 0 0
      vertex 11.9654 9.27533 0
      vertex 4.45413 7.71475 0
    endloop
  endfacet
  facet normal 0 0 1
    outer loop
      vertex 13.1399 -8.74101 0
      vertex 14.1399 -7.00897 0
      vertex 14.0154 -5.72466 0
    endloop
  endfacet
  facet normal 0 0 1
    outer loop
      vertex 14.1399 -7.00897 0
      vertex 13.1399 -8.74101 0
      vertex 13.8997 -8.02499 0
    endloop
  endfacet
  facet normal 0 0 1
    outer loop
      vertex 14.0154 -5.72466 0
      vertex 11.9654 -9.27533 0
      vertex 13.1399 -8.74101 0
    endloop
  endfacet
  facet normal 0 0 1
    outer loop
      vertex 8.90823 0 0
      vertex 11.9654 -9.27533 0
      vertex 14.0154 -5.72466 0
    endloop
  endfacet
  facet normal 0 0 1
    outer loop
      vertex 4.45412 -7.71475 0
      vertex 8.90823 0 0
      vertex 4.45413 7.71475 0
    endloop
  endfacet
  facet normal 0 0 1
    outer loop
      vertex 8.90823 0 0
      vertex 4.45412 -7.71475 0
      vertex 11.9654 -9.27533 0
    endloop
  endfacet
  facet normal 0 0 1
    outer loop
      vertex -4.45413 7.71475 0
      vertex 4.45413 7.71475 0
      vertex 2.04999 15 0
    endloop
  endfacet
  facet normal 0 0 1
    outer loop
      vertex 4.45413 7.71475 0
      vertex -4.45413 7.71475 0
      vertex 4.45412 -7.71475 0
    endloop
  endfacet
  facet normal 0 0 1
    outer loop
      vertex -2.04999 15 0
      vertex 2.04999 15 0
      vertex 1 15.75 0
    endloop
  endfacet
  facet normal 0 0 1
    outer loop
      vertex -4.45413 -7.71475 0
      vertex 4.45412 -7.71475 0
      vertex -4.45413 7.71475 0
    endloop
  endfacet
  facet normal 0 0 1
    outer loop
      vertex -1 15.75 0
      vertex 1 15.75 0
      vertex 0 16.05 0
    endloop
  endfacet
  facet normal 0 0 1
    outer loop
      vertex 4.45412 -7.71475 0
      vertex -4.45413 -7.71475 0
      vertex 2.04997 -15 0
    endloop
  endfacet
  facet normal 0 0 1
    outer loop
      vertex 1 15.75 0
      vertex -1 15.75 0
      vertex -2.04999 15 0
    endloop
  endfacet
  facet normal 0 -0 1
    outer loop
      vertex -2.04999 -15 0
      vertex 2.04997 -15 0
      vertex -4.45413 -7.71475 0
    endloop
  endfacet
  facet normal 0 0 1
    outer loop
      vertex 2.04999 15 0
      vertex -2.04999 15 0
      vertex -4.45413 7.71475 0
    endloop
  endfacet
  facet normal 0 0 1
    outer loop
      vertex 2.04997 -15 0
      vertex -2.04999 -15 0
      vertex 0.999985 -15.75 0
    endloop
  endfacet
  facet normal 0 -0 1
    outer loop
      vertex -1 -15.75 0
      vertex 0.999985 -15.75 0
      vertex -2.04999 -15 0
    endloop
  endfacet
  facet normal 0 0 1
    outer loop
      vertex 0.999985 -15.75 0
      vertex -1 -15.75 0
      vertex 0 -16.05 0
    endloop
  endfacet
  facet normal 0 0 1
    outer loop
      vertex -4.45413 7.71475 0
      vertex -8.90823 0 0
      vertex -4.45413 -7.71475 0
    endloop
  endfacet
  facet normal 0 0 1
    outer loop
      vertex -11.9654 9.27533 0
      vertex -8.90823 0 0
      vertex -4.45413 7.71475 0
    endloop
  endfacet
  facet normal 0 0 1
    outer loop
      vertex -14.0154 5.72466 0
      vertex -11.9654 9.27533 0
      vertex -13.1399 8.74101 0
    endloop
  endfacet
  facet normal 0 0 1
    outer loop
      vertex -14.1399 7.00897 0
      vertex -13.1399 8.74101 0
      vertex -13.8997 8.02499 0
    endloop
  endfacet
  facet normal 0 0 1
    outer loop
      vertex -11.9654 9.27533 0
      vertex -14.0154 5.72466 0
      vertex -8.90823 0 0
    endloop
  endfacet
  facet normal 0 0 1
    outer loop
      vertex -13.1399 8.74101 0
      vertex -14.1399 7.00897 0
      vertex -14.0154 5.72466 0
    endloop
  endfacet
  facet normal 0 0 1
    outer loop
      vertex -8.90823 0 0
      vertex -11.9654 -9.27533 0
      vertex -4.45413 -7.71475 0
    endloop
  endfacet
  facet normal -0 0 1
    outer loop
      vertex -14.0154 -5.72466 0
      vertex -11.9654 -9.27533 0
      vertex -8.90823 0 0
    endloop
  endfacet
  facet normal 0 0 1
    outer loop
      vertex -11.9654 -9.27533 0
      vertex -14.0154 -5.72466 0
      vertex -13.1399 -8.74101 0
    endloop
  endfacet
  facet normal -0 0 1
    outer loop
      vertex -14.1399 -7.00897 0
      vertex -13.1399 -8.74101 0
      vertex -14.0154 -5.72466 0
    endloop
  endfacet
  facet normal 0 0 1
    outer loop
      vertex -13.1399 -8.74101 0
      vertex -14.1399 -7.00897 0
      vertex -13.8997 -8.02498 0
    endloop
  endfacet
  facet normal 0.406736 -0.913546 0
    outer loop
      vertex 5.87132 -18.0701 -2
      vertex 9.5 -16.4545 7.5
      vertex 5.87132 -18.0701 7.5
    endloop
  endfacet
  facet normal 0.406736 -0.913546 0
    outer loop
      vertex 9.5 -16.4545 7.5
      vertex 5.87132 -18.0701 -2
      vertex 9.5 -16.4545 -2
    endloop
  endfacet
  facet normal 0.951056 -0.309017 0
    outer loop
      vertex 17.3574 -7.728 7.5
      vertex 18.5848 -3.95032 -2
      vertex 18.5848 -3.95032 7.5
    endloop
  endfacet
  facet normal 0.951056 -0.309017 0
    outer loop
      vertex 18.5848 -3.95032 -2
      vertex 17.3574 -7.728 7.5
      vertex 17.3574 -7.728 -2
    endloop
  endfacet
  facet normal -0.207912 -0.978148 0
    outer loop
      vertex -5.87132 -18.0701 -2
      vertex -1.98604 -18.8959 7.5
      vertex -5.87132 -18.0701 7.5
    endloop
  endfacet
  facet normal -0.207912 -0.978148 -0
    outer loop
      vertex -1.98604 -18.8959 7.5
      vertex -5.87132 -18.0701 -2
      vertex -1.98604 -18.8959 -2
    endloop
  endfacet
  facet normal -0.951056 -0.309017 0
    outer loop
      vertex -17.3574 -7.728 -2
      vertex -18.5848 -3.95032 7.5
      vertex -18.5848 -3.95032 -2
    endloop
  endfacet
  facet normal -0.951056 -0.309017 0
    outer loop
      vertex -18.5848 -3.95032 7.5
      vertex -17.3574 -7.728 -2
      vertex -17.3574 -7.728 7.5
    endloop
  endfacet
  facet normal -0.994522 -0.104528 0
    outer loop
      vertex -18.5848 -3.95032 -2
      vertex -19 0 7.5
      vertex -19 0 -2
    endloop
  endfacet
  facet normal -0.994522 -0.104528 0
    outer loop
      vertex -19 0 7.5
      vertex -18.5848 -3.95032 -2
      vertex -18.5848 -3.95032 7.5
    endloop
  endfacet
  facet normal -0.743145 -0.669131 0
    outer loop
      vertex -12.7135 -14.1198 -2
      vertex -15.3713 -11.1679 7.5
      vertex -15.3713 -11.1679 -2
    endloop
  endfacet
  facet normal -0.743145 -0.669131 0
    outer loop
      vertex -15.3713 -11.1679 7.5
      vertex -12.7135 -14.1198 -2
      vertex -12.7135 -14.1198 7.5
    endloop
  endfacet
  facet normal 0.743145 -0.669131 0
    outer loop
      vertex 12.7135 -14.1198 7.5
      vertex 15.3713 -11.1679 -2
      vertex 15.3713 -11.1679 7.5
    endloop
  endfacet
  facet normal 0.743145 -0.669131 0
    outer loop
      vertex 15.3713 -11.1679 -2
      vertex 12.7135 -14.1198 7.5
      vertex 12.7135 -14.1198 -2
    endloop
  endfacet
  facet normal -0.587785 -0.809017 0
    outer loop
      vertex -12.7135 -14.1198 -2
      vertex -9.5 -16.4545 7.5
      vertex -12.7135 -14.1198 7.5
    endloop
  endfacet
  facet normal -0.587785 -0.809017 -0
    outer loop
      vertex -9.5 -16.4545 7.5
      vertex -12.7135 -14.1198 -2
      vertex -9.5 -16.4545 -2
    endloop
  endfacet
  facet normal -0.406736 -0.913546 0
    outer loop
      vertex -9.5 -16.4545 -2
      vertex -5.87132 -18.0701 7.5
      vertex -9.5 -16.4545 7.5
    endloop
  endfacet
  facet normal -0.406736 -0.913546 -0
    outer loop
      vertex -5.87132 -18.0701 7.5
      vertex -9.5 -16.4545 -2
      vertex -5.87132 -18.0701 -2
    endloop
  endfacet
  facet normal -0.581243 0.81373 0
    outer loop
      vertex 2.04997 -15 0
      vertex 0.999985 -15.75 7.5
      vertex 2.04997 -15 7.5
    endloop
  endfacet
  facet normal -0.581243 0.81373 0
    outer loop
      vertex 0.999985 -15.75 7.5
      vertex 2.04997 -15 0
      vertex 0.999985 -15.75 0
    endloop
  endfacet
  facet normal -0.949628 0.313379 0
    outer loop
      vertex 2.04997 -15 0
      vertex 4.45412 -7.71475 7.5
      vertex 4.45412 -7.71475 0
    endloop
  endfacet
  facet normal -0.949628 0.313379 0
    outer loop
      vertex 4.45412 -7.71475 7.5
      vertex 2.04997 -15 0
      vertex 2.04997 -15 7.5
    endloop
  endfacet
  facet normal 0.203421 0.979091 -0
    outer loop
      vertex 11.9654 -9.27533 0
      vertex 4.45412 -7.71475 7.5
      vertex 11.9654 -9.27533 7.5
    endloop
  endfacet
  facet normal 0.203421 0.979091 0
    outer loop
      vertex 4.45412 -7.71475 7.5
      vertex 11.9654 -9.27533 0
      vertex 4.45412 -7.71475 0
    endloop
  endfacet
  facet normal -0.41409 0.910236 0
    outer loop
      vertex 13.1399 -8.74101 0
      vertex 11.9654 -9.27533 7.5
      vertex 13.1399 -8.74101 7.5
    endloop
  endfacet
  facet normal -0.41409 0.910236 0
    outer loop
      vertex 11.9654 -9.27533 7.5
      vertex 13.1399 -8.74101 0
      vertex 11.9654 -9.27533 0
    endloop
  endfacet
  facet normal -0.68583 0.727762 0
    outer loop
      vertex 13.8997 -8.02499 0
      vertex 13.1399 -8.74101 7.5
      vertex 13.8997 -8.02499 7.5
    endloop
  endfacet
  facet normal -0.68583 0.727762 0
    outer loop
      vertex 13.1399 -8.74101 7.5
      vertex 13.8997 -8.02499 0
      vertex 13.1399 -8.74101 0
    endloop
  endfacet
  facet normal -0.973173 0.230074 0
    outer loop
      vertex 13.8997 -8.02499 0
      vertex 14.1399 -7.00897 7.5
      vertex 14.1399 -7.00897 0
    endloop
  endfacet
  facet normal -0.973173 0.230074 0
    outer loop
      vertex 14.1399 -7.00897 7.5
      vertex 13.8997 -8.02499 0
      vertex 13.8997 -8.02499 7.5
    endloop
  endfacet
  facet normal -0.995332 -0.0965071 0
    outer loop
      vertex 14.1399 -7.00897 0
      vertex 14.0154 -5.72466 7.5
      vertex 14.0154 -5.72466 0
    endloop
  endfacet
  facet normal -0.995332 -0.0965071 0
    outer loop
      vertex 14.0154 -5.72466 7.5
      vertex 14.1399 -7.00897 0
      vertex 14.1399 -7.00897 7.5
    endloop
  endfacet
  facet normal -0.746207 -0.665713 0
    outer loop
      vertex 14.0154 -5.72466 0
      vertex 8.90823 0 7.5
      vertex 8.90823 0 0
    endloop
  endfacet
  facet normal -0.746207 -0.665713 0
    outer loop
      vertex 8.90823 0 7.5
      vertex 14.0154 -5.72466 0
      vertex 14.0154 -5.72466 7.5
    endloop
  endfacet
  facet normal -0.746207 0.665713 0
    outer loop
      vertex 8.90823 0 0
      vertex 14.0154 5.72466 7.5
      vertex 14.0154 5.72466 0
    endloop
  endfacet
  facet normal -0.746207 0.665713 0
    outer loop
      vertex 14.0154 5.72466 7.5
      vertex 8.90823 0 0
      vertex 8.90823 0 7.5
    endloop
  endfacet
  facet normal -0.995332 0.0965071 0
    outer loop
      vertex 14.0154 5.72466 0
      vertex 14.1399 7.00897 7.5
      vertex 14.1399 7.00897 0
    endloop
  endfacet
  facet normal -0.995332 0.0965071 0
    outer loop
      vertex 14.1399 7.00897 7.5
      vertex 14.0154 5.72466 0
      vertex 14.0154 5.72466 7.5
    endloop
  endfacet
  facet normal -0.973173 -0.230074 0
    outer loop
      vertex 14.1399 7.00897 0
      vertex 13.8997 8.02499 7.5
      vertex 13.8997 8.02499 0
    endloop
  endfacet
  facet normal -0.973173 -0.230074 0
    outer loop
      vertex 13.8997 8.02499 7.5
      vertex 14.1399 7.00897 0
      vertex 14.1399 7.00897 7.5
    endloop
  endfacet
  facet normal -0.68583 -0.727762 0
    outer loop
      vertex 13.1399 8.74101 0
      vertex 13.8997 8.02499 7.5
      vertex 13.1399 8.74101 7.5
    endloop
  endfacet
  facet normal -0.68583 -0.727762 -0
    outer loop
      vertex 13.8997 8.02499 7.5
      vertex 13.1399 8.74101 0
      vertex 13.8997 8.02499 0
    endloop
  endfacet
  facet normal -0.41409 -0.910236 0
    outer loop
      vertex 11.9654 9.27533 0
      vertex 13.1399 8.74101 7.5
      vertex 11.9654 9.27533 7.5
    endloop
  endfacet
  facet normal -0.41409 -0.910236 -0
    outer loop
      vertex 13.1399 8.74101 7.5
      vertex 11.9654 9.27533 0
      vertex 13.1399 8.74101 0
    endloop
  endfacet
  facet normal 0.203421 -0.979091 0
    outer loop
      vertex 4.45413 7.71475 0
      vertex 11.9654 9.27533 7.5
      vertex 4.45413 7.71475 7.5
    endloop
  endfacet
  facet normal 0.203421 -0.979091 0
    outer loop
      vertex 11.9654 9.27533 7.5
      vertex 4.45413 7.71475 0
      vertex 11.9654 9.27533 0
    endloop
  endfacet
  facet normal -0.949628 -0.313379 0
    outer loop
      vertex 4.45413 7.71475 0
      vertex 2.04999 15 7.5
      vertex 2.04999 15 0
    endloop
  endfacet
  facet normal -0.949628 -0.313379 0
    outer loop
      vertex 2.04999 15 7.5
      vertex 4.45413 7.71475 0
      vertex 4.45413 7.71475 7.5
    endloop
  endfacet
  facet normal -0.581243 -0.81373 0
    outer loop
      vertex 1 15.75 0
      vertex 2.04999 15 7.5
      vertex 1 15.75 7.5
    endloop
  endfacet
  facet normal -0.581243 -0.81373 -0
    outer loop
      vertex 2.04999 15 7.5
      vertex 1 15.75 0
      vertex 2.04999 15 0
    endloop
  endfacet
  facet normal -0.287337 -0.95783 0
    outer loop
      vertex 0 16.05 0
      vertex 1 15.75 7.5
      vertex 0 16.05 7.5
    endloop
  endfacet
  facet normal -0.287337 -0.95783 -0
    outer loop
      vertex 1 15.75 7.5
      vertex 0 16.05 0
      vertex 1 15.75 0
    endloop
  endfacet
  facet normal 0.287337 -0.95783 0
    outer loop
      vertex -1 15.75 0
      vertex 0 16.05 7.5
      vertex -1 15.75 7.5
    endloop
  endfacet
  facet normal 0.287337 -0.95783 0
    outer loop
      vertex 0 16.05 7.5
      vertex -1 15.75 0
      vertex 0 16.05 0
    endloop
  endfacet
  facet normal 0.581243 -0.81373 0
    outer loop
      vertex -2.04999 15 0
      vertex -1 15.75 7.5
      vertex -2.04999 15 7.5
    endloop
  endfacet
  facet normal 0.581243 -0.81373 0
    outer loop
      vertex -1 15.75 7.5
      vertex -2.04999 15 0
      vertex -1 15.75 0
    endloop
  endfacet
  facet normal 0.949628 -0.313379 0
    outer loop
      vertex -4.45413 7.71475 7.5
      vertex -2.04999 15 0
      vertex -2.04999 15 7.5
    endloop
  endfacet
  facet normal 0.949628 -0.313379 0
    outer loop
      vertex -2.04999 15 0
      vertex -4.45413 7.71475 7.5
      vertex -4.45413 7.71475 0
    endloop
  endfacet
  facet normal -0.203421 -0.979091 0
    outer loop
      vertex -11.9654 9.27533 0
      vertex -4.45413 7.71475 7.5
      vertex -11.9654 9.27533 7.5
    endloop
  endfacet
  facet normal -0.203421 -0.979091 -0
    outer loop
      vertex -4.45413 7.71475 7.5
      vertex -11.9654 9.27533 0
      vertex -4.45413 7.71475 0
    endloop
  endfacet
  facet normal 0.41409 -0.910236 0
    outer loop
      vertex -13.1399 8.74101 0
      vertex -11.9654 9.27533 7.5
      vertex -13.1399 8.74101 7.5
    endloop
  endfacet
  facet normal 0.41409 -0.910236 0
    outer loop
      vertex -11.9654 9.27533 7.5
      vertex -13.1399 8.74101 0
      vertex -11.9654 9.27533 0
    endloop
  endfacet
  facet normal 0.68583 -0.727762 0
    outer loop
      vertex -13.8997 8.02499 0
      vertex -13.1399 8.74101 7.5
      vertex -13.8997 8.02499 7.5
    endloop
  endfacet
  facet normal 0.68583 -0.727762 0
    outer loop
      vertex -13.1399 8.74101 7.5
      vertex -13.8997 8.02499 0
      vertex -13.1399 8.74101 0
    endloop
  endfacet
  facet normal 0.973173 -0.230074 0
    outer loop
      vertex -14.1399 7.00897 7.5
      vertex -13.8997 8.02499 0
      vertex -13.8997 8.02499 7.5
    endloop
  endfacet
  facet normal 0.973173 -0.230074 0
    outer loop
      vertex -13.8997 8.02499 0
      vertex -14.1399 7.00897 7.5
      vertex -14.1399 7.00897 0
    endloop
  endfacet
  facet normal 0.995332 0.0965071 0
    outer loop
      vertex -14.0154 5.72466 7.5
      vertex -14.1399 7.00897 0
      vertex -14.1399 7.00897 7.5
    endloop
  endfacet
  facet normal 0.995332 0.0965071 0
    outer loop
      vertex -14.1399 7.00897 0
      vertex -14.0154 5.72466 7.5
      vertex -14.0154 5.72466 0
    endloop
  endfacet
  facet normal 0.746207 0.665713 0
    outer loop
      vertex -8.90823 0 7.5
      vertex -14.0154 5.72466 0
      vertex -14.0154 5.72466 7.5
    endloop
  endfacet
  facet normal 0.746207 0.665713 0
    outer loop
      vertex -14.0154 5.72466 0
      vertex -8.90823 0 7.5
      vertex -8.90823 0 0
    endloop
  endfacet
  facet normal 0.746207 -0.665713 0
    outer loop
      vertex -14.0154 -5.72466 7.5
      vertex -8.90823 0 0
      vertex -8.90823 0 7.5
    endloop
  endfacet
  facet normal 0.746207 -0.665713 0
    outer loop
      vertex -8.90823 0 0
      vertex -14.0154 -5.72466 7.5
      vertex -14.0154 -5.72466 0
    endloop
  endfacet
  facet normal 0.995332 -0.0965071 0
    outer loop
      vertex -14.1399 -7.00897 7.5
      vertex -14.0154 -5.72466 0
      vertex -14.0154 -5.72466 7.5
    endloop
  endfacet
  facet normal 0.995332 -0.0965071 0
    outer loop
      vertex -14.0154 -5.72466 0
      vertex -14.1399 -7.00897 7.5
      vertex -14.1399 -7.00897 0
    endloop
  endfacet
  facet normal 0.973172 0.230077 0
    outer loop
      vertex -13.8997 -8.02498 7.5
      vertex -14.1399 -7.00897 0
      vertex -14.1399 -7.00897 7.5
    endloop
  endfacet
  facet normal 0.973172 0.230077 0
    outer loop
      vertex -14.1399 -7.00897 0
      vertex -13.8997 -8.02498 7.5
      vertex -13.8997 -8.02498 0
    endloop
  endfacet
  facet normal 0.685838 0.727754 -0
    outer loop
      vertex -13.1399 -8.74101 0
      vertex -13.8997 -8.02498 7.5
      vertex -13.1399 -8.74101 7.5
    endloop
  endfacet
  facet normal 0.685838 0.727754 0
    outer loop
      vertex -13.8997 -8.02498 7.5
      vertex -13.1399 -8.74101 0
      vertex -13.8997 -8.02498 0
    endloop
  endfacet
  facet normal 0.41409 0.910236 -0
    outer loop
      vertex -11.9654 -9.27533 0
      vertex -13.1399 -8.74101 7.5
      vertex -11.9654 -9.27533 7.5
    endloop
  endfacet
  facet normal 0.41409 0.910236 0
    outer loop
      vertex -13.1399 -8.74101 7.5
      vertex -11.9654 -9.27533 0
      vertex -13.1399 -8.74101 0
    endloop
  endfacet
  facet normal -0.203421 0.979091 0
    outer loop
      vertex -4.45413 -7.71475 0
      vertex -11.9654 -9.27533 7.5
      vertex -4.45413 -7.71475 7.5
    endloop
  endfacet
  facet normal -0.203421 0.979091 0
    outer loop
      vertex -11.9654 -9.27533 7.5
      vertex -4.45413 -7.71475 0
      vertex -11.9654 -9.27533 0
    endloop
  endfacet
  facet normal 0.949628 0.313379 0
    outer loop
      vertex -2.04999 -15 7.5
      vertex -4.45413 -7.71475 0
      vertex -4.45413 -7.71475 7.5
    endloop
  endfacet
  facet normal 0.949628 0.313379 0
    outer loop
      vertex -4.45413 -7.71475 0
      vertex -2.04999 -15 7.5
      vertex -2.04999 -15 0
    endloop
  endfacet
  facet normal 0.581243 0.81373 -0
    outer loop
      vertex -1 -15.75 0
      vertex -2.04999 -15 7.5
      vertex -1 -15.75 7.5
    endloop
  endfacet
  facet normal 0.581243 0.81373 0
    outer loop
      vertex -2.04999 -15 7.5
      vertex -1 -15.75 0
      vertex -2.04999 -15 0
    endloop
  endfacet
  facet normal 0.287337 0.95783 -0
    outer loop
      vertex 0 -16.05 0
      vertex -1 -15.75 7.5
      vertex 0 -16.05 7.5
    endloop
  endfacet
  facet normal 0.287337 0.95783 0
    outer loop
      vertex -1 -15.75 7.5
      vertex 0 -16.05 0
      vertex -1 -15.75 0
    endloop
  endfacet
  facet normal -0.287341 0.957828 0
    outer loop
      vertex 0.999985 -15.75 0
      vertex 0 -16.05 7.5
      vertex 0.999985 -15.75 7.5
    endloop
  endfacet
  facet normal -0.287341 0.957828 0
    outer loop
      vertex 0 -16.05 7.5
      vertex 0.999985 -15.75 0
      vertex 0 -16.05 0
    endloop
  endfacet
  facet normal 0 0 -1
    outer loop
      vertex 18.5848 -3.95032 -2
      vertex 18.5848 3.95032 -2
      vertex 19 0 -2
    endloop
  endfacet
  facet normal 0 0 -1
    outer loop
      vertex 17.3574 -7.728 -2
      vertex 18.5848 3.95032 -2
      vertex 18.5848 -3.95032 -2
    endloop
  endfacet
  facet normal 0 0 -1
    outer loop
      vertex 17.3574 -7.728 -2
      vertex 17.3574 7.728 -2
      vertex 18.5848 3.95032 -2
    endloop
  endfacet
  facet normal 0 0 -1
    outer loop
      vertex 15.3713 -11.1679 -2
      vertex 17.3574 7.728 -2
      vertex 17.3574 -7.728 -2
    endloop
  endfacet
  facet normal 0 0 -1
    outer loop
      vertex 15.3713 -11.1679 -2
      vertex 15.3713 11.1679 -2
      vertex 17.3574 7.728 -2
    endloop
  endfacet
  facet normal 0 0 -1
    outer loop
      vertex 12.7135 -14.1198 -2
      vertex 15.3713 11.1679 -2
      vertex 15.3713 -11.1679 -2
    endloop
  endfacet
  facet normal 0 0 -1
    outer loop
      vertex 12.7135 -14.1198 -2
      vertex 12.7135 14.1198 -2
      vertex 15.3713 11.1679 -2
    endloop
  endfacet
  facet normal 0 0 -1
    outer loop
      vertex 9.5 -16.4545 -2
      vertex 12.7135 14.1198 -2
      vertex 12.7135 -14.1198 -2
    endloop
  endfacet
  facet normal 0 0 -1
    outer loop
      vertex 9.5 -16.4545 -2
      vertex 9.5 16.4545 -2
      vertex 12.7135 14.1198 -2
    endloop
  endfacet
  facet normal 0 0 -1
    outer loop
      vertex 5.87132 -18.0701 -2
      vertex 9.5 16.4545 -2
      vertex 9.5 -16.4545 -2
    endloop
  endfacet
  facet normal 0 0 -1
    outer loop
      vertex 5.87132 -18.0701 -2
      vertex 5.87132 18.0701 -2
      vertex 9.5 16.4545 -2
    endloop
  endfacet
  facet normal 0 0 -1
    outer loop
      vertex 1.98604 -18.8959 -2
      vertex 5.87132 18.0701 -2
      vertex 5.87132 -18.0701 -2
    endloop
  endfacet
  facet normal 0 0 -1
    outer loop
      vertex 1.98604 -18.8959 -2
      vertex 1.98604 18.8959 -2
      vertex 5.87132 18.0701 -2
    endloop
  endfacet
  facet normal 0 0 -1
    outer loop
      vertex -1.98604 -18.8959 -2
      vertex 1.98604 18.8959 -2
      vertex 1.98604 -18.8959 -2
    endloop
  endfacet
  facet normal 0 0 -1
    outer loop
      vertex -1.98604 -18.8959 -2
      vertex -1.98604 18.8959 -2
      vertex 1.98604 18.8959 -2
    endloop
  endfacet
  facet normal 0 0 -1
    outer loop
      vertex -5.87132 -18.0701 -2
      vertex -1.98604 18.8959 -2
      vertex -1.98604 -18.8959 -2
    endloop
  endfacet
  facet normal 0 0 -1
    outer loop
      vertex -5.87132 -18.0701 -2
      vertex -5.87132 18.0701 -2
      vertex -1.98604 18.8959 -2
    endloop
  endfacet
  facet normal 0 0 -1
    outer loop
      vertex -5.87132 -18.0701 -2
      vertex -9.5 16.4545 -2
      vertex -5.87132 18.0701 -2
    endloop
  endfacet
  facet normal 0 0 -1
    outer loop
      vertex -9.5 -16.4545 -2
      vertex -9.5 16.4545 -2
      vertex -5.87132 -18.0701 -2
    endloop
  endfacet
  facet normal 0 0 -1
    outer loop
      vertex -12.7135 -14.1198 -2
      vertex -9.5 16.4545 -2
      vertex -9.5 -16.4545 -2
    endloop
  endfacet
  facet normal 0 0 -1
    outer loop
      vertex -12.7135 -14.1198 -2
      vertex -12.7135 14.1198 -2
      vertex -9.5 16.4545 -2
    endloop
  endfacet
  facet normal 0 0 -1
    outer loop
      vertex -15.3713 -11.1679 -2
      vertex -12.7135 14.1198 -2
      vertex -12.7135 -14.1198 -2
    endloop
  endfacet
  facet normal 0 0 -1
    outer loop
      vertex -15.3713 -11.1679 -2
      vertex -15.3713 11.1679 -2
      vertex -12.7135 14.1198 -2
    endloop
  endfacet
  facet normal 0 0 -1
    outer loop
      vertex -17.3574 -7.728 -2
      vertex -15.3713 11.1679 -2
      vertex -15.3713 -11.1679 -2
    endloop
  endfacet
  facet normal 0 0 -1
    outer loop
      vertex -17.3574 -7.728 -2
      vertex -17.3574 7.728 -2
      vertex -15.3713 11.1679 -2
    endloop
  endfacet
  facet normal 0 0 -1
    outer loop
      vertex -18.5848 -3.95032 -2
      vertex -17.3574 7.728 -2
      vertex -17.3574 -7.728 -2
    endloop
  endfacet
  facet normal 0 0 -1
    outer loop
      vertex -18.5848 -3.95032 -2
      vertex -18.5848 3.95032 -2
      vertex -17.3574 7.728 -2
    endloop
  endfacet
  facet normal 0 -0 -1
    outer loop
      vertex -18.5848 3.95032 -2
      vertex -18.5848 -3.95032 -2
      vertex -19 0 -2
    endloop
  endfacet
  facet normal -1 0 0
    outer loop
      vertex 18.65 -3.35 0.349999
      vertex 18.65 -3.33002 5.05
      vertex 18.65 -3.33002 0.349999
    endloop
  endfacet
  facet normal -1 -0 0
    outer loop
      vertex 18.65 -3.33002 5.05
      vertex 18.65 -3.35 0.349999
      vertex 18.65 -3.35 5.05
    endloop
  endfacet
  facet normal -1 0 0
    outer loop
      vertex 18.65 3.33002 0.349999
      vertex 18.65 3.35 5.05
      vertex 18.65 3.35 0.349999
    endloop
  endfacet
  facet normal -1 -0 0
    outer loop
      vertex 18.65 3.35 5.05
      vertex 18.65 3.33002 0.349999
      vertex 18.65 3.33002 5.05
    endloop
  endfacet
  facet normal 0 0 1
    outer loop
      vertex 23.35 3.35 5.05
      vertex 19 0 5.05
      vertex 23.35 -3.35 5.05
    endloop
  endfacet
  facet normal 0 0 1
    outer loop
      vertex 18.65 3.33002 5.05
      vertex 23.35 3.35 5.05
      vertex 18.65 3.35 5.05
    endloop
  endfacet
  facet normal 0 0 1
    outer loop
      vertex 23.35 3.35 5.05
      vertex 18.65 3.33002 5.05
      vertex 19 0 5.05
    endloop
  endfacet
  facet normal -0 0 1
    outer loop
      vertex 18.65 -3.33002 5.05
      vertex 23.35 -3.35 5.05
      vertex 19 0 5.05
    endloop
  endfacet
  facet normal 0 0 1
    outer loop
      vertex 23.35 -3.35 5.05
      vertex 18.65 -3.33002 5.05
      vertex 18.65 -3.35 5.05
    endloop
  endfacet
  facet normal 1 -0 0
    outer loop
      vertex 23.35 -3.35 5.05
      vertex 23.35 3.35 0.349999
      vertex 23.35 3.35 5.05
    endloop
  endfacet
  facet normal 1 0 0
    outer loop
      vertex 23.35 3.35 0.349999
      vertex 23.35 -3.35 5.05
      vertex 23.35 -3.35 0.349999
    endloop
  endfacet
  facet normal 0 0 -1
    outer loop
      vertex 23.35 -3.35 0.349999
      vertex 19 0 0.349999
      vertex 23.35 3.35 0.349999
    endloop
  endfacet
  facet normal 0 0 -1
    outer loop
      vertex 18.65 -3.33002 0.349999
      vertex 23.35 -3.35 0.349999
      vertex 18.65 -3.35 0.349999
    endloop
  endfacet
  facet normal 0 0 -1
    outer loop
      vertex 23.35 -3.35 0.349999
      vertex 18.65 -3.33002 0.349999
      vertex 19 0 0.349999
    endloop
  endfacet
  facet normal 0 0 -1
    outer loop
      vertex 18.65 3.33002 0.349999
      vertex 23.35 3.35 0.349999
      vertex 19 0 0.349999
    endloop
  endfacet
  facet normal -0 0 -1
    outer loop
      vertex 23.35 3.35 0.349999
      vertex 18.65 3.33002 0.349999
      vertex 18.65 3.35 0.349999
    endloop
  endfacet
  facet normal 0 -1 0
    outer loop
      vertex 18.65 -3.35 0.349999
      vertex 23.35 -3.35 5.05
      vertex 18.65 -3.35 5.05
    endloop
  endfacet
  facet normal 0 -1 -0
    outer loop
      vertex 23.35 -3.35 5.05
      vertex 18.65 -3.35 0.349999
      vertex 23.35 -3.35 0.349999
    endloop
  endfacet
  facet normal 0 1 -0
    outer loop
      vertex 23.35 3.35 0.349999
      vertex 18.65 3.35 5.05
      vertex 23.35 3.35 5.05
    endloop
  endfacet
  facet normal 0 1 0
    outer loop
      vertex 18.65 3.35 5.05
      vertex 23.35 3.35 0.349999
      vertex 18.65 3.35 0.349999
    endloop
  endfacet
endsolid OpenSCAD_Model
