solid OpenSCAD_Model
  facet normal -1 0 0
    outer loop
      vertex -11 -22.5 -3.5
      vertex -11 22.5 19
      vertex -11 22.5 -3.5
    endloop
  endfacet
  facet normal -1 -0 0
    outer loop
      vertex -11 22.5 19
      vertex -11 -22.5 -3.5
      vertex -11 -22.5 19
    endloop
  endfacet
  facet normal 0 0 1
    outer loop
      vertex 11 22.5 19
      vertex 10 21.5 19
      vertex 11 -22.5 19
    endloop
  endfacet
  facet normal 0 0 1
    outer loop
      vertex 11 22.5 19
      vertex -10 21.5 19
      vertex 10 21.5 19
    endloop
  endfacet
  facet normal 0 0 1
    outer loop
      vertex -10 21.5 19
      vertex -11 22.5 19
      vertex -10 -21.5 19
    endloop
  endfacet
  facet normal -0 0 1
    outer loop
      vertex -11 22.5 19
      vertex -10 21.5 19
      vertex 11 22.5 19
    endloop
  endfacet
  facet normal -0 0 1
    outer loop
      vertex 10 -21.5 19
      vertex 11 -22.5 19
      vertex 10 21.5 19
    endloop
  endfacet
  facet normal -0 0 1
    outer loop
      vertex -10 -21.5 19
      vertex 11 -22.5 19
      vertex 10 -21.5 19
    endloop
  endfacet
  facet normal 0 0 1
    outer loop
      vertex -10 -21.5 19
      vertex -11 -22.5 19
      vertex 11 -22.5 19
    endloop
  endfacet
  facet normal 0 0 1
    outer loop
      vertex -11 -22.5 19
      vertex -10 -21.5 19
      vertex -11 22.5 19
    endloop
  endfacet
  facet normal 1 -0 0
    outer loop
      vertex 11 -22.5 19
      vertex 11 22.5 -3.5
      vertex 11 22.5 19
    endloop
  endfacet
  facet normal 1 0 0
    outer loop
      vertex 11 22.5 -3.5
      vertex 11 -22.5 19
      vertex 11 -22.5 -3.5
    endloop
  endfacet
  facet normal 0 1 -0
    outer loop
      vertex 11 22.5 -3.5
      vertex -11 22.5 19
      vertex 11 22.5 19
    endloop
  endfacet
  facet normal 0 1 0
    outer loop
      vertex -11 22.5 19
      vertex 11 22.5 -3.5
      vertex -11 22.5 -3.5
    endloop
  endfacet
  facet normal 0 0 -1
    outer loop
      vertex -2.5 -3.5 -1
      vertex 2.5 3.5 -1
      vertex 2.5 -3.5 -1
    endloop
  endfacet
  facet normal -0 0 -1
    outer loop
      vertex 2.5 3.5 -1
      vertex -2.5 -3.5 -1
      vertex -2.5 3.5 -1
    endloop
  endfacet
  facet normal 0 -1 0
    outer loop
      vertex -11 -22.5 -3.5
      vertex 11 -22.5 19
      vertex -11 -22.5 19
    endloop
  endfacet
  facet normal 0 -1 -0
    outer loop
      vertex 11 -22.5 19
      vertex -11 -22.5 -3.5
      vertex 11 -22.5 -3.5
    endloop
  endfacet
  facet normal 1 0 0
    outer loop
      vertex -10 21.5 19
      vertex -10 -11.5 9.5
      vertex -10 21.5 2
    endloop
  endfacet
  facet normal 1 -0 0
    outer loop
      vertex -10 -21.5 19
      vertex -10 -11.5 9.5
      vertex -10 21.5 19
    endloop
  endfacet
  facet normal 1 0 0
    outer loop
      vertex -10 -11.5 9.5
      vertex -10 -21.5 19
      vertex -10 -21.5 9.5
    endloop
  endfacet
  facet normal 1 0 0
    outer loop
      vertex -10 21.5 2
      vertex -10 -11.5 9.5
      vertex -10 -11.5 2
    endloop
  endfacet
  facet normal -1 0 0
    outer loop
      vertex 10 -11.5 9.5
      vertex 10 21.5 2
      vertex 10 -11.5 2
    endloop
  endfacet
  facet normal -1 0 0
    outer loop
      vertex 10 21.5 2
      vertex 10 -11.5 9.5
      vertex 10 21.5 19
    endloop
  endfacet
  facet normal -1 0 0
    outer loop
      vertex 10 -21.5 19
      vertex 10 -11.5 9.5
      vertex 10 -21.5 9.5
    endloop
  endfacet
  facet normal -1 0 0
    outer loop
      vertex 10 -11.5 9.5
      vertex 10 -21.5 19
      vertex 10 21.5 19
    endloop
  endfacet
  facet normal 0 -1 0
    outer loop
      vertex -10 21.5 2
      vertex 10 21.5 19
      vertex -10 21.5 19
    endloop
  endfacet
  facet normal 0 -1 -0
    outer loop
      vertex 10 21.5 19
      vertex -10 21.5 2
      vertex 10 21.5 2
    endloop
  endfacet
  facet normal -0 0 1
    outer loop
      vertex -10 21.5 2
      vertex 10 -11.5 2
      vertex 10 21.5 2
    endloop
  endfacet
  facet normal 0 0 1
    outer loop
      vertex 10 -11.5 2
      vertex -10 21.5 2
      vertex -10 -11.5 2
    endloop
  endfacet
  facet normal 0 1 -0
    outer loop
      vertex 10 -21.5 9.5
      vertex -10 -21.5 19
      vertex 10 -21.5 19
    endloop
  endfacet
  facet normal 0 1 0
    outer loop
      vertex -10 -21.5 19
      vertex 10 -21.5 9.5
      vertex -10 -21.5 9.5
    endloop
  endfacet
  facet normal 0 0 -1
    outer loop
      vertex 11 -22.5 -3.5
      vertex 2.5 -3.5 -3.5
      vertex 11 22.5 -3.5
    endloop
  endfacet
  facet normal 0 0 -1
    outer loop
      vertex 11 -22.5 -3.5
      vertex -2.5 -3.5 -3.5
      vertex 2.5 -3.5 -3.5
    endloop
  endfacet
  facet normal -0 0 -1
    outer loop
      vertex -2.5 -3.5 -3.5
      vertex -11 -22.5 -3.5
      vertex -2.5 3.5 -3.5
    endloop
  endfacet
  facet normal 0 0 -1
    outer loop
      vertex -11 -22.5 -3.5
      vertex -2.5 -3.5 -3.5
      vertex 11 -22.5 -3.5
    endloop
  endfacet
  facet normal 0 0 -1
    outer loop
      vertex 2.5 3.5 -3.5
      vertex 11 22.5 -3.5
      vertex 2.5 -3.5 -3.5
    endloop
  endfacet
  facet normal 0 0 -1
    outer loop
      vertex -2.5 3.5 -3.5
      vertex 11 22.5 -3.5
      vertex 2.5 3.5 -3.5
    endloop
  endfacet
  facet normal 0 0 -1
    outer loop
      vertex -2.5 3.5 -3.5
      vertex -11 22.5 -3.5
      vertex 11 22.5 -3.5
    endloop
  endfacet
  facet normal 0 0 -1
    outer loop
      vertex -11 22.5 -3.5
      vertex -2.5 3.5 -3.5
      vertex -11 -22.5 -3.5
    endloop
  endfacet
  facet normal 1 -0 0
    outer loop
      vertex -2.5 -3.5 -1
      vertex -2.5 3.5 -3.5
      vertex -2.5 3.5 -1
    endloop
  endfacet
  facet normal 1 0 0
    outer loop
      vertex -2.5 3.5 -3.5
      vertex -2.5 -3.5 -1
      vertex -2.5 -3.5 -3.5
    endloop
  endfacet
  facet normal -1 0 0
    outer loop
      vertex 2.5 -3.5 -3.5
      vertex 2.5 3.5 -1
      vertex 2.5 3.5 -3.5
    endloop
  endfacet
  facet normal -1 -0 0
    outer loop
      vertex 2.5 3.5 -1
      vertex 2.5 -3.5 -3.5
      vertex 2.5 -3.5 -1
    endloop
  endfacet
  facet normal 0 -1 0
    outer loop
      vertex -2.5 3.5 -3.5
      vertex 2.5 3.5 -1
      vertex -2.5 3.5 -1
    endloop
  endfacet
  facet normal 0 -1 -0
    outer loop
      vertex 2.5 3.5 -1
      vertex -2.5 3.5 -3.5
      vertex 2.5 3.5 -3.5
    endloop
  endfacet
  facet normal 0 1 -0
    outer loop
      vertex 2.5 -3.5 -3.5
      vertex -2.5 -3.5 -1
      vertex 2.5 -3.5 -1
    endloop
  endfacet
  facet normal 0 1 0
    outer loop
      vertex -2.5 -3.5 -1
      vertex 2.5 -3.5 -3.5
      vertex -2.5 -3.5 -3.5
    endloop
  endfacet
  facet normal -0 0 1
    outer loop
      vertex -10 -11.5 9.5
      vertex 10 -21.5 9.5
      vertex 10 -11.5 9.5
    endloop
  endfacet
  facet normal 0 0 1
    outer loop
      vertex 10 -21.5 9.5
      vertex -10 -11.5 9.5
      vertex -10 -21.5 9.5
    endloop
  endfacet
  facet normal 0 1 -0
    outer loop
      vertex 10 -11.5 2
      vertex -10 -11.5 9.5
      vertex 10 -11.5 9.5
    endloop
  endfacet
  facet normal 0 1 0
    outer loop
      vertex -10 -11.5 9.5
      vertex 10 -11.5 2
      vertex -10 -11.5 2
    endloop
  endfacet
endsolid OpenSCAD_Model
