solid OpenSCAD_Model
  facet normal -1 0 0
    outer loop
      vertex -29.75 -11.75 0
      vertex -29.75 11.75 43
      vertex -29.75 11.75 0
    endloop
  endfacet
  facet normal -1 -0 0
    outer loop
      vertex -29.75 11.75 43
      vertex -29.75 -11.75 0
      vertex -29.75 -11.75 43
    endloop
  endfacet
  facet normal 0 0 1
    outer loop
      vertex 29.75 11.75 43
      vertex 28.25 10.25 43
      vertex 29.75 -11.75 43
    endloop
  endfacet
  facet normal 0 0 1
    outer loop
      vertex 29.75 11.75 43
      vertex -28.25 10.25 43
      vertex 28.25 10.25 43
    endloop
  endfacet
  facet normal 0 0 1
    outer loop
      vertex -28.25 10.25 43
      vertex -29.75 11.75 43
      vertex -28.25 -10.25 43
    endloop
  endfacet
  facet normal -0 0 1
    outer loop
      vertex -29.75 11.75 43
      vertex -28.25 10.25 43
      vertex 29.75 11.75 43
    endloop
  endfacet
  facet normal -0 0 1
    outer loop
      vertex 28.25 -10.25 43
      vertex 29.75 -11.75 43
      vertex 28.25 10.25 43
    endloop
  endfacet
  facet normal -0 0 1
    outer loop
      vertex -28.25 -10.25 43
      vertex 29.75 -11.75 43
      vertex 28.25 -10.25 43
    endloop
  endfacet
  facet normal 0 0 1
    outer loop
      vertex -28.25 -10.25 43
      vertex -29.75 -11.75 43
      vertex 29.75 -11.75 43
    endloop
  endfacet
  facet normal 0 0 1
    outer loop
      vertex -29.75 -11.75 43
      vertex -28.25 -10.25 43
      vertex -29.75 11.75 43
    endloop
  endfacet
  facet normal 1 -0 0
    outer loop
      vertex 29.75 -11.75 43
      vertex 29.75 11.75 0
      vertex 29.75 11.75 43
    endloop
  endfacet
  facet normal 1 0 0
    outer loop
      vertex 29.75 11.75 0
      vertex 29.75 -11.75 43
      vertex 29.75 -11.75 0
    endloop
  endfacet
  facet normal 0 1 -0
    outer loop
      vertex 29.75 11.75 0
      vertex -29.75 11.75 43
      vertex 29.75 11.75 43
    endloop
  endfacet
  facet normal 0 1 0
    outer loop
      vertex -29.75 11.75 43
      vertex 29.75 11.75 0
      vertex -29.75 11.75 0
    endloop
  endfacet
  facet normal 0 0 -1
    outer loop
      vertex 29.75 -11.75 0
      vertex 27.75 -4.75 0
      vertex 29.75 11.75 0
    endloop
  endfacet
  facet normal 0 0 -1
    outer loop
      vertex 29.75 -11.75 0
      vertex 23.25 -4.75 0
      vertex 27.75 -4.75 0
    endloop
  endfacet
  facet normal -0 0 -1
    outer loop
      vertex 23.25 -4.75 0
      vertex -29.75 -11.75 0
      vertex 23.25 4.75 0
    endloop
  endfacet
  facet normal 0 0 -1
    outer loop
      vertex -29.75 -11.75 0
      vertex 23.25 -4.75 0
      vertex 29.75 -11.75 0
    endloop
  endfacet
  facet normal 0 0 -1
    outer loop
      vertex 27.75 4.75 0
      vertex 29.75 11.75 0
      vertex 27.75 -4.75 0
    endloop
  endfacet
  facet normal 0 0 -1
    outer loop
      vertex 23.25 4.75 0
      vertex 29.75 11.75 0
      vertex 27.75 4.75 0
    endloop
  endfacet
  facet normal 0 0 -1
    outer loop
      vertex -29.75 11.75 0
      vertex 23.25 4.75 0
      vertex -29.75 -11.75 0
    endloop
  endfacet
  facet normal 0 0 -1
    outer loop
      vertex 23.25 4.75 0
      vertex -29.75 11.75 0
      vertex 29.75 11.75 0
    endloop
  endfacet
  facet normal 0 -1 0
    outer loop
      vertex -29.75 -11.75 0
      vertex 29.75 -11.75 43
      vertex -29.75 -11.75 43
    endloop
  endfacet
  facet normal 0 -1 -0
    outer loop
      vertex 29.75 -11.75 43
      vertex -29.75 -11.75 0
      vertex 29.75 -11.75 0
    endloop
  endfacet
  facet normal 1 -0 0
    outer loop
      vertex -28.25 -10.25 43
      vertex -28.25 10.25 3
      vertex -28.25 10.25 43
    endloop
  endfacet
  facet normal 1 0 0
    outer loop
      vertex -28.25 10.25 3
      vertex -28.25 -10.25 43
      vertex -28.25 -10.25 3
    endloop
  endfacet
  facet normal -1 0 0
    outer loop
      vertex 28.25 -10.25 3
      vertex 28.25 10.25 43
      vertex 28.25 10.25 3
    endloop
  endfacet
  facet normal -1 -0 0
    outer loop
      vertex 28.25 10.25 43
      vertex 28.25 -10.25 3
      vertex 28.25 -10.25 43
    endloop
  endfacet
  facet normal 0 0 1
    outer loop
      vertex 28.25 10.25 3
      vertex 27.75 4.75 3
      vertex 28.25 -10.25 3
    endloop
  endfacet
  facet normal 0 0 1
    outer loop
      vertex 28.25 10.25 3
      vertex 23.25 4.75 3
      vertex 27.75 4.75 3
    endloop
  endfacet
  facet normal 0 0 1
    outer loop
      vertex 23.25 4.75 3
      vertex -28.25 10.25 3
      vertex 23.25 -4.75 3
    endloop
  endfacet
  facet normal -0 0 1
    outer loop
      vertex -28.25 10.25 3
      vertex 23.25 4.75 3
      vertex 28.25 10.25 3
    endloop
  endfacet
  facet normal -0 0 1
    outer loop
      vertex 27.75 -4.75 3
      vertex 28.25 -10.25 3
      vertex 27.75 4.75 3
    endloop
  endfacet
  facet normal -0 0 1
    outer loop
      vertex 23.25 -4.75 3
      vertex 28.25 -10.25 3
      vertex 27.75 -4.75 3
    endloop
  endfacet
  facet normal 0 0 1
    outer loop
      vertex -28.25 -10.25 3
      vertex 23.25 -4.75 3
      vertex -28.25 10.25 3
    endloop
  endfacet
  facet normal 0 0 1
    outer loop
      vertex 23.25 -4.75 3
      vertex -28.25 -10.25 3
      vertex 28.25 -10.25 3
    endloop
  endfacet
  facet normal 0 1 -0
    outer loop
      vertex 28.25 -10.25 3
      vertex -28.25 -10.25 43
      vertex 28.25 -10.25 43
    endloop
  endfacet
  facet normal 0 1 0
    outer loop
      vertex -28.25 -10.25 43
      vertex 28.25 -10.25 3
      vertex -28.25 -10.25 3
    endloop
  endfacet
  facet normal 0 -1 0
    outer loop
      vertex -28.25 10.25 3
      vertex 28.25 10.25 43
      vertex -28.25 10.25 43
    endloop
  endfacet
  facet normal 0 -1 -0
    outer loop
      vertex 28.25 10.25 43
      vertex -28.25 10.25 3
      vertex 28.25 10.25 3
    endloop
  endfacet
  facet normal 1 -0 0
    outer loop
      vertex 23.25 -4.75 3
      vertex 23.25 4.75 0
      vertex 23.25 4.75 3
    endloop
  endfacet
  facet normal 1 0 0
    outer loop
      vertex 23.25 4.75 0
      vertex 23.25 -4.75 3
      vertex 23.25 -4.75 0
    endloop
  endfacet
  facet normal -1 0 0
    outer loop
      vertex 27.75 -4.75 0
      vertex 27.75 4.75 3
      vertex 27.75 4.75 0
    endloop
  endfacet
  facet normal -1 -0 0
    outer loop
      vertex 27.75 4.75 3
      vertex 27.75 -4.75 0
      vertex 27.75 -4.75 3
    endloop
  endfacet
  facet normal 0 1 -0
    outer loop
      vertex 27.75 -4.75 0
      vertex 23.25 -4.75 3
      vertex 27.75 -4.75 3
    endloop
  endfacet
  facet normal 0 1 0
    outer loop
      vertex 23.25 -4.75 3
      vertex 27.75 -4.75 0
      vertex 23.25 -4.75 0
    endloop
  endfacet
  facet normal 0 -1 0
    outer loop
      vertex 23.25 4.75 0
      vertex 27.75 4.75 3
      vertex 23.25 4.75 3
    endloop
  endfacet
  facet normal 0 -1 -0
    outer loop
      vertex 27.75 4.75 3
      vertex 23.25 4.75 0
      vertex 27.75 4.75 0
    endloop
  endfacet
endsolid OpenSCAD_Model
